STARTFONT 2.1
COMMENT 
COMMENT 92.12.01 created by Takahashi N. <ntakahas@etl.go.jp>
COMMENT 94.09.14 modified by Takahashi N. <ntakahas@etl.go.jp>
COMMENT 2001.06.15 modified by Takahashi N. <ntakahas@m17n.org>
FONT -m17n-mule-medium-r-normal--14-140-75-75-p-90-iso10646-1
SIZE 14 75 75
FONTBOUNDINGBOX 20 19 0 -3
STARTPROPERTIES 19
FOUNDRY "m17n"
FAMILY_NAME "mule"
WEIGHT_NAME "medium"
SLANT "r"
SETWIDTH_NAME "normal"
ADD_STYLE_NAME ""
PIXEL_SIZE 14
POINT_SIZE 140
RESOLUTION_X 75
RESOLUTION_Y 75
SPACING "p"
AVERAGE_WIDTH 90
CHARSET_REGISTRY "iso10646"
CHARSET_ENCODING "1"
DEFAULT_CHAR 32
FONT_DESCENT 3
FONT_ASCENT 15
COPYRIGHT "(c) Takahashi Naoto."
_XMBDFED_INFO "Edited with xmbdfed 4.4."
ENDPROPERTIES
CHARS 1572
STARTCHAR SPACE
ENCODING 32
SWIDTH 411 0
DWIDTH 6 0
BBX 0 0 0 0
BITMAP
ENDCHAR
STARTCHAR EXCLAMATION MARK
ENCODING 33
SWIDTH 342 0
DWIDTH 5 0
BBX 1 10 2 0
BITMAP
80
80
80
80
80
80
80
00
80
80
ENDCHAR
STARTCHAR QUOTATION MARK
ENCODING 34
SWIDTH 411 0
DWIDTH 6 0
BBX 4 4 1 8
BITMAP
90
90
90
90
ENDCHAR
STARTCHAR NUMBER SIGN
ENCODING 35
SWIDTH 685 0
DWIDTH 10 0
BBX 8 10 1 0
BITMAP
12
12
12
7F
24
24
FE
48
48
48
ENDCHAR
STARTCHAR DOLLAR SIGN
ENCODING 36
SWIDTH 617 0
DWIDTH 9 0
BBX 7 10 1 0
BITMAP
10
7C
92
92
70
1C
12
92
7C
10
ENDCHAR
STARTCHAR PERCENT SIGN
ENCODING 37
SWIDTH 617 0
DWIDTH 9 0
BBX 7 10 1 0
BITMAP
62
94
94
68
10
10
2C
52
52
8C
ENDCHAR
STARTCHAR AMPERSAND
ENCODING 38
SWIDTH 617 0
DWIDTH 9 0
BBX 7 10 1 0
BITMAP
38
44
44
44
38
72
8A
84
8C
72
ENDCHAR
STARTCHAR APOSTROPHE
ENCODING 39
SWIDTH 342 0
DWIDTH 5 0
BBX 1 4 2 8
BITMAP
80
80
80
80
ENDCHAR
STARTCHAR LEFT PARENTHESIS
ENCODING 40
SWIDTH 342 0
DWIDTH 5 0
BBX 3 12 1 -1
BITMAP
20
40
40
80
80
80
80
80
80
40
40
20
ENDCHAR
STARTCHAR RIGHT PARENTHESIS
ENCODING 41
SWIDTH 342 0
DWIDTH 5 0
BBX 3 12 1 -1
BITMAP
80
40
40
20
20
20
20
20
20
40
40
80
ENDCHAR
STARTCHAR ASTERISK
ENCODING 42
SWIDTH 617 0
DWIDTH 9 0
BBX 7 7 1 1
BITMAP
10
92
54
38
54
92
10
ENDCHAR
STARTCHAR PLUS SIGN
ENCODING 43
SWIDTH 617 0
DWIDTH 9 0
BBX 7 7 1 1
BITMAP
10
10
10
FE
10
10
10
ENDCHAR
STARTCHAR COMMA
ENCODING 44
SWIDTH 274 0
DWIDTH 4 0
BBX 2 4 1 -2
BITMAP
C0
40
40
80
ENDCHAR
STARTCHAR HYPHEN-MINUS
ENCODING 45
SWIDTH 617 0
DWIDTH 9 0
BBX 7 1 1 4
BITMAP
FE
ENDCHAR
STARTCHAR FULL STOP
ENCODING 46
SWIDTH 274 0
DWIDTH 4 0
BBX 2 2 1 0
BITMAP
C0
C0
ENDCHAR
STARTCHAR SOLIDUS
ENCODING 47
SWIDTH 548 0
DWIDTH 8 0
BBX 6 10 1 0
BITMAP
04
04
08
10
10
20
20
40
80
80
ENDCHAR
STARTCHAR DIGIT ZERO
ENCODING 48
SWIDTH 548 0
DWIDTH 8 0
BBX 6 10 1 0
BITMAP
30
48
84
84
84
84
84
84
48
30
ENDCHAR
STARTCHAR DIGIT ONE
ENCODING 49
SWIDTH 480 0
DWIDTH 7 0
BBX 5 10 1 0
BITMAP
20
60
A0
20
20
20
20
20
20
F8
ENDCHAR
STARTCHAR DIGIT TWO
ENCODING 50
SWIDTH 548 0
DWIDTH 8 0
BBX 6 10 1 0
BITMAP
78
84
84
04
18
20
40
80
80
FC
ENDCHAR
STARTCHAR DIGIT THREE
ENCODING 51
SWIDTH 548 0
DWIDTH 8 0
BBX 6 10 1 0
BITMAP
78
84
84
04
38
04
04
84
84
78
ENDCHAR
STARTCHAR DIGIT FOUR
ENCODING 52
SWIDTH 548 0
DWIDTH 8 0
BBX 6 10 1 0
BITMAP
08
18
28
48
88
88
FC
08
08
08
ENDCHAR
STARTCHAR DIGIT FIVE
ENCODING 53
SWIDTH 548 0
DWIDTH 8 0
BBX 6 10 1 0
BITMAP
FC
80
80
80
F8
04
04
04
84
78
ENDCHAR
STARTCHAR DIGIT SIX
ENCODING 54
SWIDTH 548 0
DWIDTH 8 0
BBX 6 10 1 0
BITMAP
38
40
80
80
F8
84
84
84
84
78
ENDCHAR
STARTCHAR DIGIT SEVEN
ENCODING 55
SWIDTH 548 0
DWIDTH 8 0
BBX 6 10 1 0
BITMAP
FC
04
04
08
08
08
10
10
10
10
ENDCHAR
STARTCHAR DIGIT EIGHT
ENCODING 56
SWIDTH 548 0
DWIDTH 8 0
BBX 6 10 1 0
BITMAP
78
84
84
84
78
84
84
84
84
78
ENDCHAR
STARTCHAR DIGIT NINE
ENCODING 57
SWIDTH 548 0
DWIDTH 8 0
BBX 6 10 1 0
BITMAP
78
84
84
84
7C
04
04
04
08
70
ENDCHAR
STARTCHAR COLON
ENCODING 58
SWIDTH 274 0
DWIDTH 4 0
BBX 2 7 1 1
BITMAP
C0
C0
00
00
00
C0
C0
ENDCHAR
STARTCHAR SEMICOLON
ENCODING 59
SWIDTH 274 0
DWIDTH 4 0
BBX 2 9 1 -1
BITMAP
C0
C0
00
00
00
C0
40
40
80
ENDCHAR
STARTCHAR LESS-THAN SIGN
ENCODING 60
SWIDTH 480 0
DWIDTH 7 0
BBX 5 9 1 0
BITMAP
08
10
20
40
80
40
20
10
08
ENDCHAR
STARTCHAR EQUALS SIGN
ENCODING 61
SWIDTH 617 0
DWIDTH 9 0
BBX 7 5 1 2
BITMAP
FE
00
00
00
FE
ENDCHAR
STARTCHAR GREATER-THAN SIGN
ENCODING 62
SWIDTH 480 0
DWIDTH 7 0
BBX 5 9 1 0
BITMAP
80
40
20
10
08
10
20
40
80
ENDCHAR
STARTCHAR QUESTION MARK
ENCODING 63
SWIDTH 480 0
DWIDTH 7 0
BBX 5 10 1 0
BITMAP
70
88
88
08
10
20
20
00
20
20
ENDCHAR
STARTCHAR COMMERCIAL AT
ENCODING 64
SWIDTH 685 0
DWIDTH 10 0
BBX 8 10 1 0
BITMAP
3C
42
99
A5
A5
A5
A5
9A
40
3C
ENDCHAR
STARTCHAR LATIN CAPITAL LETTER A
ENCODING 65
SWIDTH 617 0
DWIDTH 9 0
BBX 7 10 1 0
BITMAP
10
10
28
28
44
44
7C
82
82
82
ENDCHAR
STARTCHAR LATIN CAPITAL LETTER B
ENCODING 66
SWIDTH 548 0
DWIDTH 8 0
BBX 6 10 1 0
BITMAP
F8
84
84
84
F8
84
84
84
84
F8
ENDCHAR
STARTCHAR LATIN CAPITAL LETTER C
ENCODING 67
SWIDTH 548 0
DWIDTH 8 0
BBX 6 10 1 0
BITMAP
78
84
84
80
80
80
80
84
84
78
ENDCHAR
STARTCHAR LATIN CAPITAL LETTER D
ENCODING 68
SWIDTH 548 0
DWIDTH 8 0
BBX 6 10 1 0
BITMAP
F0
88
84
84
84
84
84
84
88
F0
ENDCHAR
STARTCHAR LATIN CAPITAL LETTER E
ENCODING 69
SWIDTH 548 0
DWIDTH 8 0
BBX 6 10 1 0
BITMAP
FC
80
80
80
F8
80
80
80
80
FC
ENDCHAR
STARTCHAR LATIN CAPITAL LETTER F
ENCODING 70
SWIDTH 548 0
DWIDTH 8 0
BBX 6 10 1 0
BITMAP
FC
80
80
80
F8
80
80
80
80
80
ENDCHAR
STARTCHAR LATIN CAPITAL LETTER G
ENCODING 71
SWIDTH 548 0
DWIDTH 8 0
BBX 6 10 1 0
BITMAP
78
84
84
80
80
9C
84
84
8C
74
ENDCHAR
STARTCHAR LATIN CAPITAL LETTER H
ENCODING 72
SWIDTH 548 0
DWIDTH 8 0
BBX 6 10 1 0
BITMAP
84
84
84
84
FC
84
84
84
84
84
ENDCHAR
STARTCHAR LATIN CAPITAL LETTER I
ENCODING 73
SWIDTH 480 0
DWIDTH 7 0
BBX 5 10 1 0
BITMAP
F8
20
20
20
20
20
20
20
20
F8
ENDCHAR
STARTCHAR LATIN CAPITAL LETTER J
ENCODING 74
SWIDTH 617 0
DWIDTH 9 0
BBX 7 10 1 0
BITMAP
3E
08
08
08
08
08
08
88
88
70
ENDCHAR
STARTCHAR LATIN CAPITAL LETTER K
ENCODING 75
SWIDTH 548 0
DWIDTH 8 0
BBX 6 10 1 0
BITMAP
84
88
90
A0
C0
C0
A0
90
88
84
ENDCHAR
STARTCHAR LATIN CAPITAL LETTER L
ENCODING 76
SWIDTH 548 0
DWIDTH 8 0
BBX 6 10 1 0
BITMAP
80
80
80
80
80
80
80
80
80
FC
ENDCHAR
STARTCHAR LATIN CAPITAL LETTER M
ENCODING 77
SWIDTH 754 0
DWIDTH 11 0
BBX 9 10 1 0
BITMAP
8080
C180
C180
A280
A280
9480
9480
8880
8880
8080
ENDCHAR
STARTCHAR LATIN CAPITAL LETTER N
ENCODING 78
SWIDTH 548 0
DWIDTH 8 0
BBX 6 10 1 0
BITMAP
84
C4
C4
A4
A4
94
94
8C
8C
84
ENDCHAR
STARTCHAR LATIN CAPITAL LETTER O
ENCODING 79
SWIDTH 617 0
DWIDTH 9 0
BBX 7 10 1 0
BITMAP
38
44
82
82
82
82
82
82
44
38
ENDCHAR
STARTCHAR LATIN CAPITAL LETTER P
ENCODING 80
SWIDTH 548 0
DWIDTH 8 0
BBX 6 10 1 0
BITMAP
F8
84
84
84
F8
80
80
80
80
80
ENDCHAR
STARTCHAR LATIN CAPITAL LETTER Q
ENCODING 81
SWIDTH 617 0
DWIDTH 9 0
BBX 7 11 1 -1
BITMAP
38
44
82
82
82
82
82
B2
4C
38
06
ENDCHAR
STARTCHAR LATIN CAPITAL LETTER R
ENCODING 82
SWIDTH 548 0
DWIDTH 8 0
BBX 6 10 1 0
BITMAP
F8
84
84
84
F8
90
88
88
84
84
ENDCHAR
STARTCHAR LATIN CAPITAL LETTER S
ENCODING 83
SWIDTH 548 0
DWIDTH 8 0
BBX 6 10 1 0
BITMAP
78
84
84
80
60
18
04
84
84
78
ENDCHAR
STARTCHAR LATIN CAPITAL LETTER T
ENCODING 84
SWIDTH 617 0
DWIDTH 9 0
BBX 7 10 1 0
BITMAP
FE
10
10
10
10
10
10
10
10
10
ENDCHAR
STARTCHAR LATIN CAPITAL LETTER U
ENCODING 85
SWIDTH 548 0
DWIDTH 8 0
BBX 6 10 1 0
BITMAP
84
84
84
84
84
84
84
84
84
78
ENDCHAR
STARTCHAR LATIN CAPITAL LETTER V
ENCODING 86
SWIDTH 617 0
DWIDTH 9 0
BBX 7 10 1 0
BITMAP
82
82
82
44
44
44
28
28
10
10
ENDCHAR
STARTCHAR LATIN CAPITAL LETTER W
ENCODING 87
SWIDTH 754 0
DWIDTH 11 0
BBX 9 10 1 0
BITMAP
8080
8880
8880
8880
5500
5500
5500
2200
2200
2200
ENDCHAR
STARTCHAR LATIN CAPITAL LETTER X
ENCODING 88
SWIDTH 617 0
DWIDTH 9 0
BBX 7 10 1 0
BITMAP
82
82
44
28
10
10
28
44
82
82
ENDCHAR
STARTCHAR LATIN CAPITAL LETTER Y
ENCODING 89
SWIDTH 617 0
DWIDTH 9 0
BBX 7 10 1 0
BITMAP
82
82
44
44
38
10
10
10
10
10
ENDCHAR
STARTCHAR LATIN CAPITAL LETTER Z
ENCODING 90
SWIDTH 548 0
DWIDTH 8 0
BBX 6 10 1 0
BITMAP
FC
04
04
08
10
20
40
80
80
FC
ENDCHAR
STARTCHAR LEFT SQUARE BRACKET
ENCODING 91
SWIDTH 342 0
DWIDTH 5 0
BBX 3 12 1 -1
BITMAP
E0
80
80
80
80
80
80
80
80
80
80
E0
ENDCHAR
STARTCHAR REVERSE SOLIDUS
ENCODING 92
SWIDTH 548 0
DWIDTH 8 0
BBX 6 10 1 0
BITMAP
80
80
40
20
20
10
10
08
04
04
ENDCHAR
STARTCHAR RIGHT SQUARE BRACKET
ENCODING 93
SWIDTH 342 0
DWIDTH 5 0
BBX 3 12 1 -1
BITMAP
E0
20
20
20
20
20
20
20
20
20
20
E0
ENDCHAR
STARTCHAR CIRCUMFLEX ACCENT
ENCODING 94
SWIDTH 480 0
DWIDTH 7 0
BBX 5 3 1 9
BITMAP
20
50
88
ENDCHAR
STARTCHAR LOW LINE
ENCODING 95
SWIDTH 617 0
DWIDTH 9 0
BBX 7 1 1 -1
BITMAP
FE
ENDCHAR
STARTCHAR GRAVE ACCENT
ENCODING 96
SWIDTH 411 0
DWIDTH 6 0
BBX 4 2 1 12
BITMAP
C0
30
ENDCHAR
STARTCHAR LATIN SMALL LETTER A
ENCODING 97
SWIDTH 548 0
DWIDTH 8 0
BBX 6 8 1 0
BITMAP
78
84
04
7C
84
84
8C
74
ENDCHAR
STARTCHAR LATIN SMALL LETTER B
ENCODING 98
SWIDTH 548 0
DWIDTH 8 0
BBX 6 11 1 0
BITMAP
80
80
80
B8
C4
84
84
84
84
C4
B8
ENDCHAR
STARTCHAR LATIN SMALL LETTER C
ENCODING 99
SWIDTH 548 0
DWIDTH 8 0
BBX 6 8 1 0
BITMAP
78
84
80
80
80
80
84
78
ENDCHAR
STARTCHAR LATIN SMALL LETTER D
ENCODING 100
SWIDTH 548 0
DWIDTH 8 0
BBX 6 11 1 0
BITMAP
04
04
04
74
8C
84
84
84
84
8C
74
ENDCHAR
STARTCHAR LATIN SMALL LETTER E
ENCODING 101
SWIDTH 548 0
DWIDTH 8 0
BBX 6 8 1 0
BITMAP
78
84
84
FC
80
80
84
78
ENDCHAR
STARTCHAR LATIN SMALL LETTER F
ENCODING 102
SWIDTH 480 0
DWIDTH 7 0
BBX 5 11 1 0
BITMAP
18
20
20
20
F8
20
20
20
20
20
20
ENDCHAR
STARTCHAR LATIN SMALL LETTER G
ENCODING 103
SWIDTH 617 0
DWIDTH 9 0
BBX 7 11 1 -2
BITMAP
02
3A
44
44
44
38
20
7C
82
82
7C
ENDCHAR
STARTCHAR LATIN SMALL LETTER H
ENCODING 104
SWIDTH 548 0
DWIDTH 8 0
BBX 6 11 1 0
BITMAP
80
80
80
B8
C4
84
84
84
84
84
84
ENDCHAR
STARTCHAR LATIN SMALL LETTER I
ENCODING 105
SWIDTH 480 0
DWIDTH 7 0
BBX 5 11 1 0
BITMAP
20
20
00
60
20
20
20
20
20
20
F8
ENDCHAR
STARTCHAR LATIN SMALL LETTER J
ENCODING 106
SWIDTH 480 0
DWIDTH 7 0
BBX 5 13 1 -2
BITMAP
08
08
00
18
08
08
08
08
08
08
08
90
60
ENDCHAR
STARTCHAR LATIN SMALL LETTER K
ENCODING 107
SWIDTH 548 0
DWIDTH 8 0
BBX 6 10 1 0
BITMAP
80
80
80
88
90
A0
E0
90
88
84
ENDCHAR
STARTCHAR LATIN SMALL LETTER L
ENCODING 108
SWIDTH 480 0
DWIDTH 7 0
BBX 5 10 1 0
BITMAP
60
20
20
20
20
20
20
20
20
F8
ENDCHAR
STARTCHAR LATIN SMALL LETTER M
ENCODING 109
SWIDTH 754 0
DWIDTH 11 0
BBX 9 8 1 0
BITMAP
B300
CC80
8880
8880
8880
8880
8880
8880
ENDCHAR
STARTCHAR LATIN SMALL LETTER N
ENCODING 110
SWIDTH 548 0
DWIDTH 8 0
BBX 6 8 1 0
BITMAP
B8
C4
84
84
84
84
84
84
ENDCHAR
STARTCHAR LATIN SMALL LETTER O
ENCODING 111
SWIDTH 617 0
DWIDTH 9 0
BBX 7 8 1 0
BITMAP
38
44
82
82
82
82
44
38
ENDCHAR
STARTCHAR LATIN SMALL LETTER P
ENCODING 112
SWIDTH 548 0
DWIDTH 8 0
BBX 6 11 1 -3
BITMAP
B8
C4
84
84
84
84
C4
B8
80
80
80
ENDCHAR
STARTCHAR LATIN SMALL LETTER Q
ENCODING 113
SWIDTH 548 0
DWIDTH 8 0
BBX 6 11 1 -3
BITMAP
74
8C
84
84
84
84
8C
74
04
04
04
ENDCHAR
STARTCHAR LATIN SMALL LETTER R
ENCODING 114
SWIDTH 548 0
DWIDTH 8 0
BBX 6 8 1 0
BITMAP
B8
C4
84
80
80
80
80
80
ENDCHAR
STARTCHAR LATIN SMALL LETTER S
ENCODING 115
SWIDTH 548 0
DWIDTH 8 0
BBX 6 8 1 0
BITMAP
78
84
80
60
18
04
84
78
ENDCHAR
STARTCHAR LATIN SMALL LETTER T
ENCODING 116
SWIDTH 480 0
DWIDTH 7 0
BBX 5 10 1 0
BITMAP
20
20
F8
20
20
20
20
20
20
18
ENDCHAR
STARTCHAR LATIN SMALL LETTER U
ENCODING 117
SWIDTH 548 0
DWIDTH 8 0
BBX 6 8 1 0
BITMAP
84
84
84
84
84
84
8C
74
ENDCHAR
STARTCHAR LATIN SMALL LETTER V
ENCODING 118
SWIDTH 548 0
DWIDTH 8 0
BBX 6 8 1 0
BITMAP
84
84
84
48
48
48
30
30
ENDCHAR
STARTCHAR LATIN SMALL LETTER W
ENCODING 119
SWIDTH 754 0
DWIDTH 11 0
BBX 9 8 1 0
BITMAP
8080
8880
8880
4900
5500
5500
2200
2200
ENDCHAR
STARTCHAR LATIN SMALL LETTER X
ENCODING 120
SWIDTH 548 0
DWIDTH 8 0
BBX 6 8 1 0
BITMAP
84
84
48
30
30
48
84
84
ENDCHAR
STARTCHAR LATIN SMALL LETTER Y
ENCODING 121
SWIDTH 617 0
DWIDTH 9 0
BBX 7 11 1 -3
BITMAP
82
82
44
44
28
28
10
10
20
20
40
ENDCHAR
STARTCHAR LATIN SMALL LETTER Z
ENCODING 122
SWIDTH 548 0
DWIDTH 8 0
BBX 6 8 1 0
BITMAP
FC
04
08
10
20
40
80
FC
ENDCHAR
STARTCHAR LEFT CURLY BRACKET
ENCODING 123
SWIDTH 411 0
DWIDTH 6 0
BBX 4 13 1 -2
BITMAP
30
40
40
40
20
20
C0
20
20
40
40
40
30
ENDCHAR
STARTCHAR VERTICAL LINE
ENCODING 124
SWIDTH 342 0
DWIDTH 5 0
BBX 1 14 2 -2
BITMAP
80
80
80
80
80
80
80
80
80
80
80
80
80
80
ENDCHAR
STARTCHAR RIGHT CURLY BRACKET
ENCODING 125
SWIDTH 411 0
DWIDTH 6 0
BBX 4 13 1 -2
BITMAP
C0
20
20
20
40
40
30
40
40
20
20
20
C0
ENDCHAR
STARTCHAR TILDE
ENCODING 126
SWIDTH 617 0
DWIDTH 9 0
BBX 7 3 1 4
BITMAP
62
92
8C
ENDCHAR
STARTCHAR NO-BREAK SPACE
ENCODING 160
SWIDTH 548 0
DWIDTH 8 0
BBX 0 0 0 0
BITMAP
ENDCHAR
STARTCHAR INVERTED EXCLAMATION MARK
ENCODING 161
SWIDTH 205 0
DWIDTH 3 0
BBX 1 10 1 0
BITMAP
80
80
00
80
80
80
80
80
80
80
ENDCHAR
STARTCHAR CENT SIGN
ENCODING 162
SWIDTH 617 0
DWIDTH 9 0
BBX 7 12 1 -2
BITMAP
10
10
38
54
92
90
90
92
54
38
10
10
ENDCHAR
STARTCHAR POUND SIGN
ENCODING 163
SWIDTH 617 0
DWIDTH 9 0
BBX 7 11 1 -1
BITMAP
1C
20
20
20
FC
20
20
20
20
78
C6
ENDCHAR
STARTCHAR CURRENCY SIGN
ENCODING 164
SWIDTH 617 0
DWIDTH 9 0
BBX 7 7 1 1
BITMAP
82
7C
44
44
44
7C
82
ENDCHAR
STARTCHAR YEN SIGN
ENCODING 165
SWIDTH 617 0
DWIDTH 9 0
BBX 7 10 1 0
BITMAP
82
44
28
10
FE
10
FE
10
10
10
ENDCHAR
STARTCHAR BROKEN BAR
ENCODING 166
SWIDTH 205 0
DWIDTH 3 0
BBX 1 10 1 0
BITMAP
80
80
80
80
00
00
80
80
80
80
ENDCHAR
STARTCHAR SECTION SIGN
ENCODING 167
SWIDTH 480 0
DWIDTH 7 0
BBX 5 10 1 0
BITMAP
70
88
80
70
88
88
70
08
88
70
ENDCHAR
STARTCHAR DIAERESIS
ENCODING 168
SWIDTH 480 0
DWIDTH 7 0
BBX 5 2 1 12
BITMAP
88
88
ENDCHAR
STARTCHAR COPYRIGHT SIGN
ENCODING 169
SWIDTH 685 0
DWIDTH 10 0
BBX 8 10 1 0
BITMAP
3C
42
99
A5
A5
A1
A5
99
42
3C
ENDCHAR
STARTCHAR FEMININE ORDINAL INDICATOR
ENCODING 170
SWIDTH 480 0
DWIDTH 7 0
BBX 5 7 1 5
BITMAP
70
08
78
88
78
00
F8
ENDCHAR
STARTCHAR LEFT-POINTING DOUBLE ANGLE QUOTATION MARK
ENCODING 171
SWIDTH 548 0
DWIDTH 8 0
BBX 6 9 1 0
BITMAP
24
24
48
48
90
48
48
24
24
ENDCHAR
STARTCHAR NOT SIGN
ENCODING 172
SWIDTH 548 0
DWIDTH 8 0
BBX 6 4 1 0
BITMAP
FC
04
04
04
ENDCHAR
STARTCHAR SOFT HYPHEN
ENCODING 173
SWIDTH 617 0
DWIDTH 9 0
BBX 7 1 1 4
BITMAP
FE
ENDCHAR
STARTCHAR REGISTERED SIGN
ENCODING 174
SWIDTH 685 0
DWIDTH 10 0
BBX 8 10 1 0
BITMAP
3C
42
B9
A5
A5
B9
A5
A5
42
3C
ENDCHAR
STARTCHAR MACRON
ENCODING 175
SWIDTH 480 0
DWIDTH 7 0
BBX 5 1 1 11
BITMAP
F8
ENDCHAR
STARTCHAR DEGREE SIGN
ENCODING 176
SWIDTH 342 0
DWIDTH 5 0
BBX 3 3 1 11
BITMAP
40
A0
40
ENDCHAR
STARTCHAR PLUS-MINUS SIGN
ENCODING 177
SWIDTH 617 0
DWIDTH 9 0
BBX 7 9 1 1
BITMAP
10
10
10
FE
10
10
10
00
FE
ENDCHAR
STARTCHAR SUPERSCRIPT TWO
ENCODING 178
SWIDTH 480 0
DWIDTH 7 0
BBX 5 7 1 5
BITMAP
70
88
08
70
80
80
F8
ENDCHAR
STARTCHAR SUPERSCRIPT THREE
ENCODING 179
SWIDTH 480 0
DWIDTH 7 0
BBX 5 7 1 5
BITMAP
70
88
08
70
08
88
70
ENDCHAR
STARTCHAR ACUTE ACCENT
ENCODING 180
SWIDTH 411 0
DWIDTH 6 0
BBX 4 2 1 12
BITMAP
30
C0
ENDCHAR
STARTCHAR MICRO SIGN
ENCODING 181
SWIDTH 617 0
DWIDTH 9 0
BBX 7 8 1 -2
BITMAP
22
22
22
44
64
5A
80
80
ENDCHAR
STARTCHAR PILCROW SIGN
ENCODING 182
SWIDTH 617 0
DWIDTH 9 0
BBX 7 11 1 0
BITMAP
7E
F4
F4
F4
74
14
14
14
14
14
14
ENDCHAR
STARTCHAR MIDDLE DOT
ENCODING 183
SWIDTH 274 0
DWIDTH 4 0
BBX 2 2 1 4
BITMAP
C0
C0
ENDCHAR
STARTCHAR CEDILLA
ENCODING 184
SWIDTH 342 0
DWIDTH 5 0
BBX 3 3 1 -3
BITMAP
40
20
E0
ENDCHAR
STARTCHAR SUPERSCRIPT ONE
ENCODING 185
SWIDTH 480 0
DWIDTH 7 0
BBX 3 7 1 5
BITMAP
20
60
A0
20
20
20
20
ENDCHAR
STARTCHAR MASCULINE ORDINAL INDICATOR
ENCODING 186
SWIDTH 480 0
DWIDTH 7 0
BBX 5 7 1 5
BITMAP
70
88
88
88
70
00
F8
ENDCHAR
STARTCHAR RIGHT-POINTING DOUBLE ANGLE QUOTATION MARK
ENCODING 187
SWIDTH 548 0
DWIDTH 8 0
BBX 6 9 1 0
BITMAP
90
90
48
48
24
48
48
90
90
ENDCHAR
STARTCHAR VULGAR FRACTION ONE QUARTER
ENCODING 188
SWIDTH 617 0
DWIDTH 9 0
BBX 7 11 1 0
BITMAP
40
C0
42
44
48
10
24
4C
94
1E
04
ENDCHAR
STARTCHAR VULGAR FRACTION ONE HALF
ENCODING 189
SWIDTH 617 0
DWIDTH 9 0
BBX 7 11 1 0
BITMAP
40
C0
42
44
48
10
2C
42
84
08
0E
ENDCHAR
STARTCHAR VULGAR FRACTION THREE QUARTERS
ENCODING 190
SWIDTH 617 0
DWIDTH 9 0
BBX 7 11 1 0
BITMAP
C0
20
C2
24
C8
10
24
4C
94
1E
04
ENDCHAR
STARTCHAR INVERTED QUESTION MARK
ENCODING 191
SWIDTH 480 0
DWIDTH 7 0
BBX 5 11 1 0
BITMAP
20
20
00
20
20
20
40
88
88
88
70
ENDCHAR
STARTCHAR LATIN CAPITAL LETTER A WITH GRAVE
ENCODING 192
SWIDTH 617 0
DWIDTH 9 0
BBX 7 14 1 0
BITMAP
60
18
00
00
10
10
28
28
44
44
7C
82
82
82
ENDCHAR
STARTCHAR LATIN CAPITAL LETTER A WITH ACUTE
ENCODING 193
SWIDTH 617 0
DWIDTH 9 0
BBX 7 14 1 0
BITMAP
0C
30
00
00
10
10
28
28
44
44
7C
82
82
82
ENDCHAR
STARTCHAR LATIN CAPITAL LETTER A WITH CIRCUMFLEX
ENCODING 194
SWIDTH 617 0
DWIDTH 9 0
BBX 7 14 1 0
BITMAP
10
28
44
00
10
10
28
28
44
44
7C
82
82
82
ENDCHAR
STARTCHAR LATIN CAPITAL LETTER A WITH TILDE
ENCODING 195
SWIDTH 617 0
DWIDTH 9 0
BBX 7 14 1 0
BITMAP
72
8C
00
00
10
10
28
28
44
44
7C
82
82
82
ENDCHAR
STARTCHAR LATIN CAPITAL LETTER A WITH DIAERESIS
ENCODING 196
SWIDTH 617 0
DWIDTH 9 0
BBX 7 13 1 0
BITMAP
44
44
00
10
10
28
28
44
44
7C
82
82
82
ENDCHAR
STARTCHAR LATIN CAPITAL LETTER A WITH RING ABOVE
ENCODING 197
SWIDTH 617 0
DWIDTH 9 0
BBX 7 14 1 0
BITMAP
10
28
10
00
10
10
28
28
44
44
7C
82
82
82
ENDCHAR
STARTCHAR LATIN CAPITAL LETTER AE
ENCODING 198
SWIDTH 754 0
DWIDTH 11 0
BBX 9 10 1 0
BITMAP
1F80
1800
2800
2800
4F00
4800
7800
8800
8800
8F80
ENDCHAR
STARTCHAR LATIN CAPITAL LETTER C WITH CEDILLA
ENCODING 199
SWIDTH 548 0
DWIDTH 8 0
BBX 6 13 1 -3
BITMAP
78
84
84
80
80
80
80
84
84
78
20
10
70
ENDCHAR
STARTCHAR LATIN CAPITAL LETTER E WITH GRAVE
ENCODING 200
SWIDTH 548 0
DWIDTH 8 0
BBX 6 14 1 0
BITMAP
60
18
00
00
FC
80
80
80
F8
80
80
80
80
FC
ENDCHAR
STARTCHAR LATIN CAPITAL LETTER E WITH ACUTE
ENCODING 201
SWIDTH 548 0
DWIDTH 8 0
BBX 6 14 1 0
BITMAP
18
60
00
00
FC
80
80
80
F8
80
80
80
80
FC
ENDCHAR
STARTCHAR LATIN CAPITAL LETTER E WITH CIRCUMFLEX
ENCODING 202
SWIDTH 548 0
DWIDTH 8 0
BBX 6 14 1 0
BITMAP
20
50
88
00
FC
80
80
80
F8
80
80
80
80
FC
ENDCHAR
STARTCHAR LATIN CAPITAL LETTER E WITH DIAERESIS
ENCODING 203
SWIDTH 548 0
DWIDTH 8 0
BBX 6 14 1 0
BITMAP
88
88
00
00
FC
80
80
80
F8
80
80
80
80
FC
ENDCHAR
STARTCHAR LATIN CAPITAL LETTER I WITH GRAVE
ENCODING 204
SWIDTH 480 0
DWIDTH 7 0
BBX 5 14 1 0
BITMAP
60
18
00
00
F8
20
20
20
20
20
20
20
20
F8
ENDCHAR
STARTCHAR LATIN CAPITAL LETTER I WITH ACUTE
ENCODING 205
SWIDTH 480 0
DWIDTH 7 0
BBX 5 14 1 0
BITMAP
30
C0
00
00
F8
20
20
20
20
20
20
20
20
F8
ENDCHAR
STARTCHAR LATIN CAPITAL LETTER I WITH CIRCUMFLEX
ENCODING 206
SWIDTH 480 0
DWIDTH 7 0
BBX 5 14 1 0
BITMAP
20
50
88
00
F8
20
20
20
20
20
20
20
20
F8
ENDCHAR
STARTCHAR LATIN CAPITAL LETTER I WITH DIAERESIS
ENCODING 207
SWIDTH 480 0
DWIDTH 7 0
BBX 5 14 1 0
BITMAP
88
88
00
00
F8
20
20
20
20
20
20
20
20
F8
ENDCHAR
STARTCHAR LATIN CAPITAL LETTER ETH
ENCODING 208
SWIDTH 685 0
DWIDTH 10 0
BBX 8 10 1 0
BITMAP
3C
22
21
21
F9
21
21
21
22
3C
ENDCHAR
STARTCHAR LATIN CAPITAL LETTER N WITH TILDE
ENCODING 209
SWIDTH 548 0
DWIDTH 8 0
BBX 6 14 1 0
BITMAP
64
98
00
00
84
C4
C4
A4
A4
94
94
8C
8C
84
ENDCHAR
STARTCHAR LATIN CAPITAL LETTER O WITH GRAVE
ENCODING 210
SWIDTH 617 0
DWIDTH 9 0
BBX 7 14 1 0
BITMAP
60
18
00
00
38
44
82
82
82
82
82
82
44
38
ENDCHAR
STARTCHAR LATIN CAPITAL LETTER O WITH ACUTE
ENCODING 211
SWIDTH 617 0
DWIDTH 9 0
BBX 7 14 1 0
BITMAP
0C
30
00
00
38
44
82
82
82
82
82
82
44
38
ENDCHAR
STARTCHAR LATIN CAPITAL LETTER O WITH CIRCUMFLEX
ENCODING 212
SWIDTH 617 0
DWIDTH 9 0
BBX 7 14 1 0
BITMAP
10
28
44
00
38
44
82
82
82
82
82
82
44
38
ENDCHAR
STARTCHAR LATIN CAPITAL LETTER O WITH TILDE
ENCODING 213
SWIDTH 617 0
DWIDTH 9 0
BBX 7 14 1 0
BITMAP
72
8C
00
00
38
44
82
82
82
82
82
82
44
38
ENDCHAR
STARTCHAR LATIN CAPITAL LETTER O WITH DIAERESIS
ENCODING 214
SWIDTH 617 0
DWIDTH 9 0
BBX 7 14 1 0
BITMAP
44
44
00
00
38
44
82
82
82
82
82
82
44
38
ENDCHAR
STARTCHAR MULTIPLICATION SIGN
ENCODING 215
SWIDTH 548 0
DWIDTH 8 0
BBX 6 7 1 1
BITMAP
84
84
48
30
48
84
84
ENDCHAR
STARTCHAR LATIN CAPITAL LETTER O WITH STROKE
ENCODING 216
SWIDTH 617 0
DWIDTH 9 0
BBX 7 10 1 0
BITMAP
3A
44
8A
8A
92
92
A2
A2
44
B8
ENDCHAR
STARTCHAR LATIN CAPITAL LETTER U WITH GRAVE
ENCODING 217
SWIDTH 548 0
DWIDTH 8 0
BBX 6 14 1 0
BITMAP
60
18
00
00
84
84
84
84
84
84
84
84
84
78
ENDCHAR
STARTCHAR LATIN CAPITAL LETTER U WITH ACUTE
ENCODING 218
SWIDTH 548 0
DWIDTH 8 0
BBX 6 14 1 0
BITMAP
18
60
00
00
84
84
84
84
84
84
84
84
84
78
ENDCHAR
STARTCHAR LATIN CAPITAL LETTER U WITH CIRCUMFLEX
ENCODING 219
SWIDTH 548 0
DWIDTH 8 0
BBX 6 14 1 0
BITMAP
20
50
88
00
84
84
84
84
84
84
84
84
84
78
ENDCHAR
STARTCHAR LATIN CAPITAL LETTER U WITH DIAERESIS
ENCODING 220
SWIDTH 548 0
DWIDTH 8 0
BBX 6 14 1 0
BITMAP
48
48
00
00
84
84
84
84
84
84
84
84
84
78
ENDCHAR
STARTCHAR LATIN CAPITAL LETTER Y WITH ACUTE
ENCODING 221
SWIDTH 617 0
DWIDTH 9 0
BBX 7 14 1 0
BITMAP
0C
30
00
00
82
82
44
44
28
10
10
10
10
10
ENDCHAR
STARTCHAR LATIN CAPITAL LETTER THORN
ENCODING 222
SWIDTH 548 0
DWIDTH 8 0
BBX 6 11 1 0
BITMAP
80
80
F8
84
84
84
84
F8
80
80
80
ENDCHAR
STARTCHAR LATIN SMALL LETTER SHARP S
ENCODING 223
SWIDTH 548 0
DWIDTH 8 0
BBX 6 10 1 0
BITMAP
70
88
88
90
90
88
84
84
A4
98
ENDCHAR
STARTCHAR LATIN SMALL LETTER A WITH GRAVE
ENCODING 224
SWIDTH 548 0
DWIDTH 8 0
BBX 6 12 1 0
BITMAP
60
18
00
00
78
84
04
7C
84
84
8C
74
ENDCHAR
STARTCHAR LATIN SMALL LETTER A WITH ACUTE
ENCODING 225
SWIDTH 548 0
DWIDTH 8 0
BBX 6 12 1 0
BITMAP
18
60
00
00
78
84
04
7C
84
84
8C
74
ENDCHAR
STARTCHAR LATIN SMALL LETTER A WITH CIRCUMFLEX
ENCODING 226
SWIDTH 548 0
DWIDTH 8 0
BBX 6 12 1 0
BITMAP
20
50
88
00
78
84
04
7C
84
84
8C
74
ENDCHAR
STARTCHAR LATIN SMALL LETTER A WITH TILDE
ENCODING 227
SWIDTH 548 0
DWIDTH 8 0
BBX 6 12 1 0
BITMAP
64
98
00
00
78
84
04
7C
84
84
8C
74
ENDCHAR
STARTCHAR LATIN SMALL LETTER A WITH DIAERESIS
ENCODING 228
SWIDTH 548 0
DWIDTH 8 0
BBX 6 12 1 0
BITMAP
48
48
00
00
78
84
04
7C
84
84
8C
74
ENDCHAR
STARTCHAR LATIN SMALL LETTER A WITH RING ABOVE
ENCODING 229
SWIDTH 548 0
DWIDTH 8 0
BBX 6 12 1 0
BITMAP
10
28
10
00
78
84
04
7C
84
84
8C
74
ENDCHAR
STARTCHAR LATIN SMALL LETTER AE
ENCODING 230
SWIDTH 754 0
DWIDTH 11 0
BBX 9 8 1 0
BITMAP
7700
8880
0880
7F80
8800
8800
8880
7700
ENDCHAR
STARTCHAR LATIN SMALL LETTER C WITH CEDILLA
ENCODING 231
SWIDTH 548 0
DWIDTH 8 0
BBX 6 11 1 -3
BITMAP
78
84
80
80
80
80
84
78
20
10
70
ENDCHAR
STARTCHAR LATIN SMALL LETTER E WITH GRAVE
ENCODING 232
SWIDTH 548 0
DWIDTH 8 0
BBX 6 12 1 0
BITMAP
60
18
00
00
78
84
84
FC
80
80
84
78
ENDCHAR
STARTCHAR LATIN SMALL LETTER E WITH ACUTE
ENCODING 233
SWIDTH 548 0
DWIDTH 8 0
BBX 6 12 1 0
BITMAP
18
60
00
00
78
84
84
FC
80
80
84
78
ENDCHAR
STARTCHAR LATIN SMALL LETTER E WITH CIRCUMFLEX
ENCODING 234
SWIDTH 548 0
DWIDTH 8 0
BBX 6 12 1 0
BITMAP
20
50
88
00
78
84
84
FC
80
80
84
78
ENDCHAR
STARTCHAR LATIN SMALL LETTER E WITH DIAERESIS
ENCODING 235
SWIDTH 548 0
DWIDTH 8 0
BBX 6 12 1 0
BITMAP
48
48
00
00
78
84
84
FC
80
80
84
78
ENDCHAR
STARTCHAR LATIN SMALL LETTER I WITH GRAVE
ENCODING 236
SWIDTH 480 0
DWIDTH 7 0
BBX 5 12 1 0
BITMAP
C0
30
00
00
60
20
20
20
20
20
20
F8
ENDCHAR
STARTCHAR LATIN SMALL LETTER I WITH ACUTE
ENCODING 237
SWIDTH 480 0
DWIDTH 7 0
BBX 5 12 1 0
BITMAP
30
C0
00
00
60
20
20
20
20
20
20
F8
ENDCHAR
STARTCHAR LATIN SMALL LETTER I WITH CIRCUMFLEX
ENCODING 238
SWIDTH 480 0
DWIDTH 7 0
BBX 5 12 1 0
BITMAP
20
50
88
00
60
20
20
20
20
20
20
F8
ENDCHAR
STARTCHAR LATIN SMALL LETTER I WITH DIAERESIS
ENCODING 239
SWIDTH 480 0
DWIDTH 7 0
BBX 5 12 1 0
BITMAP
88
88
00
00
60
20
20
20
20
20
20
F8
ENDCHAR
STARTCHAR LATIN SMALL LETTER ETH
ENCODING 240
SWIDTH 548 0
DWIDTH 8 0
BBX 6 12 1 0
BITMAP
64
18
28
44
04
7C
84
84
84
84
84
78
ENDCHAR
STARTCHAR LATIN SMALL LETTER N WITH TILDE
ENCODING 241
SWIDTH 548 0
DWIDTH 8 0
BBX 6 12 1 0
BITMAP
64
98
00
00
B8
C4
84
84
84
84
84
84
ENDCHAR
STARTCHAR LATIN SMALL LETTER O WITH GRAVE
ENCODING 242
SWIDTH 617 0
DWIDTH 9 0
BBX 7 12 1 0
BITMAP
60
18
00
00
38
44
82
82
82
82
44
38
ENDCHAR
STARTCHAR LATIN SMALL LETTER O WITH ACUTE
ENCODING 243
SWIDTH 617 0
DWIDTH 9 0
BBX 7 12 1 0
BITMAP
0C
30
00
00
38
44
82
82
82
82
44
38
ENDCHAR
STARTCHAR LATIN SMALL LETTER O WITH CIRCUMFLEX
ENCODING 244
SWIDTH 617 0
DWIDTH 9 0
BBX 7 12 1 0
BITMAP
10
28
44
00
38
44
82
82
82
82
44
38
ENDCHAR
STARTCHAR LATIN SMALL LETTER O WITH TILDE
ENCODING 245
SWIDTH 617 0
DWIDTH 9 0
BBX 7 12 1 0
BITMAP
72
8C
00
00
38
44
82
82
82
82
44
38
ENDCHAR
STARTCHAR LATIN SMALL LETTER O WITH DIAERESIS
ENCODING 246
SWIDTH 617 0
DWIDTH 9 0
BBX 7 12 1 0
BITMAP
44
44
00
00
38
44
82
82
82
82
44
38
ENDCHAR
STARTCHAR DIVISION SIGN
ENCODING 247
SWIDTH 548 0
DWIDTH 8 0
BBX 6 7 1 1
BITMAP
30
00
00
FC
00
00
30
ENDCHAR
STARTCHAR LATIN SMALL LETTER O WITH STROKE
ENCODING 248
SWIDTH 617 0
DWIDTH 9 0
BBX 7 8 1 0
BITMAP
3A
44
8A
92
92
A2
44
B8
ENDCHAR
STARTCHAR LATIN SMALL LETTER U WITH GRAVE
ENCODING 249
SWIDTH 548 0
DWIDTH 8 0
BBX 6 12 1 0
BITMAP
60
18
00
00
84
84
84
84
84
84
8C
74
ENDCHAR
STARTCHAR LATIN SMALL LETTER U WITH ACUTE
ENCODING 250
SWIDTH 548 0
DWIDTH 8 0
BBX 6 12 1 0
BITMAP
18
60
00
00
84
84
84
84
84
84
8C
74
ENDCHAR
STARTCHAR LATIN SMALL LETTER U WITH CIRCUMFLEX
ENCODING 251
SWIDTH 548 0
DWIDTH 8 0
BBX 6 12 1 0
BITMAP
20
50
88
00
84
84
84
84
84
84
8C
74
ENDCHAR
STARTCHAR LATIN SMALL LETTER U WITH DIAERESIS
ENCODING 252
SWIDTH 548 0
DWIDTH 8 0
BBX 6 12 1 0
BITMAP
48
48
00
00
84
84
84
84
84
84
8C
74
ENDCHAR
STARTCHAR LATIN SMALL LETTER Y WITH ACUTE
ENCODING 253
SWIDTH 617 0
DWIDTH 9 0
BBX 7 15 1 -3
BITMAP
0C
30
00
00
82
82
44
44
28
28
10
10
20
20
40
ENDCHAR
STARTCHAR LATIN SMALL LETTER THORN
ENCODING 254
SWIDTH 480 0
DWIDTH 7 0
BBX 5 12 1 -2
BITMAP
80
80
F0
88
88
88
90
A0
C0
80
80
80
ENDCHAR
STARTCHAR LATIN SMALL LETTER Y WITH DIAERESIS
ENCODING 255
SWIDTH 617 0
DWIDTH 9 0
BBX 7 15 1 -3
BITMAP
44
44
00
00
82
82
44
44
28
28
10
10
20
20
40
ENDCHAR
STARTCHAR LATIN CAPITAL LETTER A WITH MACRON
ENCODING 256
SWIDTH 617 0
DWIDTH 9 0
BBX 7 13 1 0
BITMAP
7C
00
00
10
10
28
28
44
44
7C
82
82
82
ENDCHAR
STARTCHAR LATIN SMALL LETTER A WITH MACRON
ENCODING 257
SWIDTH 548 0
DWIDTH 8 0
BBX 6 11 1 0
BITMAP
7C
00
00
78
84
04
7C
84
84
8C
74
ENDCHAR
STARTCHAR LATIN CAPITAL LETTER A WITH BREVE
ENCODING 258
SWIDTH 617 0
DWIDTH 9 0
BBX 7 14 1 0
BITMAP
44
44
38
00
10
10
28
28
44
44
7C
82
82
82
ENDCHAR
STARTCHAR LATIN SMALL LETTER A WITH BREVE
ENCODING 259
SWIDTH 548 0
DWIDTH 8 0
BBX 6 12 1 0
BITMAP
88
88
70
00
78
84
04
7C
84
84
8C
74
ENDCHAR
STARTCHAR LATIN CAPITAL LETTER A WITH OGONEK
ENCODING 260
SWIDTH 617 0
DWIDTH 9 0
BBX 7 13 1 -3
BITMAP
10
10
28
28
44
44
7C
82
82
82
04
08
0E
ENDCHAR
STARTCHAR LATIN SMALL LETTER A WITH OGONEK
ENCODING 261
SWIDTH 548 0
DWIDTH 8 0
BBX 6 11 1 -3
BITMAP
78
84
04
7C
84
84
8C
74
08
10
1C
ENDCHAR
STARTCHAR LATIN CAPITAL LETTER C WITH ACUTE
ENCODING 262
SWIDTH 548 0
DWIDTH 8 0
BBX 6 14 1 0
BITMAP
18
60
00
00
78
84
84
80
80
80
80
84
84
78
ENDCHAR
STARTCHAR LATIN SMALL LETTER C WITH ACUTE
ENCODING 263
SWIDTH 548 0
DWIDTH 8 0
BBX 6 12 1 0
BITMAP
18
60
00
00
78
84
80
80
80
80
84
78
ENDCHAR
STARTCHAR LATIN CAPITAL LETTER C WITH CIRCUMFLEX
ENCODING 264
SWIDTH 548 0
DWIDTH 8 0
BBX 6 14 1 0
BITMAP
20
50
88
00
78
84
84
80
80
80
80
84
84
78
ENDCHAR
STARTCHAR LATIN SMALL LETTER C WITH CIRCUMFLEX
ENCODING 265
SWIDTH 548 0
DWIDTH 8 0
BBX 6 12 1 0
BITMAP
20
50
88
00
78
84
80
80
80
80
84
78
ENDCHAR
STARTCHAR LATIN CAPITAL LETTER C WITH DOT ABOVE
ENCODING 266
SWIDTH 548 0
DWIDTH 8 0
BBX 6 14 1 0
BITMAP
20
20
00
00
78
84
84
80
80
80
80
84
84
78
ENDCHAR
STARTCHAR LATIN SMALL LETTER C WITH DOT ABOVE
ENCODING 267
SWIDTH 548 0
DWIDTH 8 0
BBX 6 12 1 0
BITMAP
20
20
00
00
78
84
80
80
80
80
84
78
ENDCHAR
STARTCHAR LATIN CAPITAL LETTER C WITH CARON
ENCODING 268
SWIDTH 548 0
DWIDTH 8 0
BBX 6 14 1 0
BITMAP
88
50
20
00
78
84
84
80
80
80
80
84
84
78
ENDCHAR
STARTCHAR LATIN SMALL LETTER C WITH CARON
ENCODING 269
SWIDTH 548 0
DWIDTH 8 0
BBX 6 12 1 0
BITMAP
88
50
20
00
78
84
80
80
80
80
84
78
ENDCHAR
STARTCHAR LATIN CAPITAL LETTER D WITH CARON
ENCODING 270
SWIDTH 548 0
DWIDTH 8 0
BBX 6 14 1 0
BITMAP
88
50
20
00
F0
88
84
84
84
84
84
84
88
F0
ENDCHAR
STARTCHAR LATIN SMALL LETTER D WITH CARON
ENCODING 271
SWIDTH 548 0
DWIDTH 8 0
BBX 6 14 1 0
BITMAP
44
28
10
04
04
04
74
8C
84
84
84
84
8C
74
ENDCHAR
STARTCHAR LATIN CAPITAL LETTER D WITH STROKE
ENCODING 272
SWIDTH 685 0
DWIDTH 10 0
BBX 8 10 1 0
BITMAP
3C
22
21
21
F9
21
21
21
22
3C
ENDCHAR
STARTCHAR LATIN SMALL LETTER D WITH STROKE
ENCODING 273
SWIDTH 685 0
DWIDTH 10 0
BBX 8 13 1 0
BITMAP
04
04
1F
04
04
74
8C
84
84
84
84
8C
74
ENDCHAR
STARTCHAR LATIN CAPITAL LETTER E WITH MACRON
ENCODING 274
SWIDTH 548 0
DWIDTH 8 0
BBX 6 13 1 0
BITMAP
F8
00
00
FC
80
80
80
F8
80
80
80
80
FC
ENDCHAR
STARTCHAR LATIN SMALL LETTER E WITH MACRON
ENCODING 275
SWIDTH 548 0
DWIDTH 8 0
BBX 6 11 1 0
BITMAP
F8
00
00
78
84
84
FC
80
80
84
78
ENDCHAR
STARTCHAR LATIN CAPITAL LETTER E WITH BREVE
ENCODING 276
SWIDTH 548 0
DWIDTH 8 0
BBX 6 14 1 0
BITMAP
88
88
70
00
FC
80
80
80
F8
80
80
80
80
FC
ENDCHAR
STARTCHAR LATIN SMALL LETTER E WITH BREVE
ENCODING 277
SWIDTH 548 0
DWIDTH 8 0
BBX 6 12 1 0
BITMAP
88
88
70
00
78
84
84
FC
80
80
84
78
ENDCHAR
STARTCHAR LATIN CAPITAL LETTER E WITH DOT ABOVE
ENCODING 278
SWIDTH 548 0
DWIDTH 8 0
BBX 6 14 1 0
BITMAP
20
20
00
00
FC
80
80
80
F8
80
80
80
80
FC
ENDCHAR
STARTCHAR LATIN SMALL LETTER E WITH DOT ABOVE
ENCODING 279
SWIDTH 548 0
DWIDTH 8 0
BBX 6 12 1 0
BITMAP
20
20
00
00
78
84
84
FC
80
80
84
78
ENDCHAR
STARTCHAR LATIN CAPITAL LETTER E WITH OGONEK
ENCODING 280
SWIDTH 548 0
DWIDTH 8 0
BBX 6 13 1 -3
BITMAP
FC
80
80
80
F8
80
80
80
80
FC
10
20
38
ENDCHAR
STARTCHAR LATIN SMALL LETTER E WITH OGONEK
ENCODING 281
SWIDTH 548 0
DWIDTH 8 0
BBX 6 11 1 -3
BITMAP
78
84
84
FC
80
80
84
78
10
20
38
ENDCHAR
STARTCHAR LATIN CAPITAL LETTER E WITH CARON
ENCODING 282
SWIDTH 548 0
DWIDTH 8 0
BBX 6 14 1 0
BITMAP
88
50
20
00
FC
80
80
80
F8
80
80
80
80
FC
ENDCHAR
STARTCHAR LATIN SMALL LETTER E WITH CARON
ENCODING 283
SWIDTH 548 0
DWIDTH 8 0
BBX 6 12 1 0
BITMAP
88
50
20
00
78
84
84
FC
80
80
84
78
ENDCHAR
STARTCHAR LATIN CAPITAL LETTER G WITH CIRCUMFLEX
ENCODING 284
SWIDTH 548 0
DWIDTH 8 0
BBX 6 14 1 0
BITMAP
20
50
88
00
78
84
84
80
80
9C
84
84
8C
74
ENDCHAR
STARTCHAR LATIN SMALL LETTER G WITH CIRCUMFLEX
ENCODING 285
SWIDTH 617 0
DWIDTH 9 0
BBX 7 14 1 -2
BITMAP
10
28
44
00
3A
44
44
44
38
20
7C
82
82
7C
ENDCHAR
STARTCHAR LATIN CAPITAL LETTER G WITH BREVE
ENCODING 286
SWIDTH 548 0
DWIDTH 8 0
BBX 6 14 1 0
BITMAP
88
88
70
00
78
84
84
80
80
9C
84
84
8C
74
ENDCHAR
STARTCHAR LATIN SMALL LETTER G WITH BREVE
ENCODING 287
SWIDTH 617 0
DWIDTH 9 0
BBX 7 14 1 -2
BITMAP
44
44
38
02
3A
44
44
44
38
20
7C
82
82
7C
ENDCHAR
STARTCHAR LATIN CAPITAL LETTER G WITH DOT ABOVE
ENCODING 288
SWIDTH 548 0
DWIDTH 8 0
BBX 6 14 1 0
BITMAP
20
20
00
00
78
84
84
80
80
9C
84
84
8C
74
ENDCHAR
STARTCHAR LATIN SMALL LETTER G WITH DOT ABOVE
ENCODING 289
SWIDTH 617 0
DWIDTH 9 0
BBX 7 14 1 -2
BITMAP
10
10
00
02
3A
44
44
44
38
20
7C
82
82
7C
ENDCHAR
STARTCHAR LATIN CAPITAL LETTER G WITH CEDILLA
ENCODING 290
SWIDTH 548 0
DWIDTH 8 0
BBX 6 13 1 -3
BITMAP
78
84
84
80
80
9C
84
84
8C
74
20
10
70
ENDCHAR
STARTCHAR LATIN SMALL LETTER G WITH CEDILLA
ENCODING 291
SWIDTH 617 0
DWIDTH 9 0
BBX 7 15 1 -2
BITMAP
08
10
18
00
02
3A
44
44
44
38
20
7C
82
82
7C
ENDCHAR
STARTCHAR LATIN CAPITAL LETTER H WITH CIRCUMFLEX
ENCODING 292
SWIDTH 548 0
DWIDTH 8 0
BBX 6 14 1 0
BITMAP
20
50
88
00
84
84
84
84
FC
84
84
84
84
84
ENDCHAR
STARTCHAR LATIN SMALL LETTER H WITH CIRCUMFLEX
ENCODING 293
SWIDTH 548 0
DWIDTH 8 0
BBX 6 15 1 0
BITMAP
20
50
88
00
80
80
80
B8
C4
84
84
84
84
84
84
ENDCHAR
STARTCHAR LATIN CAPITAL LETTER H WITH STROKE
ENCODING 294
SWIDTH 822 0
DWIDTH 12 0
BBX 10 11 1 0
BITMAP
2100
2100
FFC0
2100
2100
3F00
2100
2100
2100
2100
2100
ENDCHAR
STARTCHAR LATIN SMALL LETTER H WITH STROKE
ENCODING 295
SWIDTH 685 0
DWIDTH 10 0
BBX 8 12 1 0
BITMAP
20
20
F8
20
2E
31
21
21
21
21
21
21
ENDCHAR
STARTCHAR LATIN CAPITAL LETTER I WITH TILDE
ENCODING 296
SWIDTH 617 0
DWIDTH 9 0
BBX 7 14 1 0
BITMAP
72
8C
00
00
7C
10
10
10
10
10
10
10
10
7C
ENDCHAR
STARTCHAR LATIN SMALL LETTER I WITH TILDE
ENCODING 297
SWIDTH 548 0
DWIDTH 8 0
BBX 6 12 1 0
BITMAP
64
98
00
00
30
10
10
10
10
10
10
7C
ENDCHAR
STARTCHAR LATIN CAPITAL LETTER I WITH MACRON
ENCODING 298
SWIDTH 480 0
DWIDTH 7 0
BBX 5 13 1 0
BITMAP
F8
00
00
F8
20
20
20
20
20
20
20
20
F8
ENDCHAR
STARTCHAR LATIN SMALL LETTER I WITH MACRON
ENCODING 299
SWIDTH 480 0
DWIDTH 7 0
BBX 5 11 1 0
BITMAP
F8
00
00
60
20
20
20
20
20
20
F8
ENDCHAR
STARTCHAR LATIN CAPITAL LETTER I WITH BREVE
ENCODING 300
SWIDTH 480 0
DWIDTH 7 0
BBX 5 14 1 0
BITMAP
88
88
70
00
F8
20
20
20
20
20
20
20
20
F8
ENDCHAR
STARTCHAR LATIN SMALL LETTER I WITH BREVE
ENCODING 301
SWIDTH 480 0
DWIDTH 7 0
BBX 5 12 1 0
BITMAP
88
88
70
00
60
20
20
20
20
20
20
F8
ENDCHAR
STARTCHAR LATIN CAPITAL LETTER I WITH OGONEK
ENCODING 302
SWIDTH 480 0
DWIDTH 7 0
BBX 5 13 1 -3
BITMAP
F8
20
20
20
20
20
20
20
20
F8
20
40
70
ENDCHAR
STARTCHAR LATIN SMALL LETTER I WITH OGONEK
ENCODING 303
SWIDTH 480 0
DWIDTH 7 0
BBX 5 14 1 -3
BITMAP
20
20
00
60
20
20
20
20
20
20
F8
20
40
70
ENDCHAR
STARTCHAR LATIN CAPITAL LETTER I WITH DOT ABOVE
ENCODING 304
SWIDTH 480 0
DWIDTH 7 0
BBX 5 14 1 0
BITMAP
20
20
00
00
F8
20
20
20
20
20
20
20
20
F8
ENDCHAR
STARTCHAR LATIN SMALL LETTER DOTLESS I
ENCODING 305
SWIDTH 480 0
DWIDTH 7 0
BBX 5 8 1 0
BITMAP
60
20
20
20
20
20
20
F8
ENDCHAR
STARTCHAR LATIN CAPITAL LIGATURE IJ
ENCODING 306
SWIDTH 1028 0
DWIDTH 15 0
BBX 13 10 1 0
BITMAP
F8F8
2020
2020
2020
2020
2020
2020
2220
2220
F9C0
ENDCHAR
STARTCHAR LATIN SMALL LIGATURE IJ
ENCODING 307
SWIDTH 754 0
DWIDTH 11 0
BBX 9 13 1 -2
BITMAP
2080
2080
0000
6180
2080
2080
2080
2080
2080
2080
F880
0100
0600
ENDCHAR
STARTCHAR LATIN CAPITAL LETTER J WITH CIRCUMFLEX
ENCODING 308
SWIDTH 617 0
DWIDTH 9 0
BBX 7 14 1 0
BITMAP
08
14
22
00
3E
08
08
08
08
08
08
88
88
70
ENDCHAR
STARTCHAR LATIN SMALL LETTER J WITH CIRCUMFLEX
ENCODING 309
SWIDTH 617 0
DWIDTH 9 0
BBX 7 14 1 -2
BITMAP
08
14
22
00
18
08
08
08
08
08
08
08
90
60
ENDCHAR
STARTCHAR LATIN CAPITAL LETTER K WITH CEDILLA
ENCODING 310
SWIDTH 548 0
DWIDTH 8 0
BBX 6 13 1 -3
BITMAP
84
88
90
A0
C0
C0
A0
90
88
84
30
10
20
ENDCHAR
STARTCHAR LATIN SMALL LETTER K WITH CEDILLA
ENCODING 311
SWIDTH 548 0
DWIDTH 8 0
BBX 6 13 1 -3
BITMAP
80
80
80
88
90
A0
E0
90
88
84
30
10
20
ENDCHAR
STARTCHAR LATIN SMALL LETTER KRA
ENCODING 312
SWIDTH 548 0
DWIDTH 8 0
BBX 6 8 1 0
BITMAP
84
88
90
E0
E0
90
88
84
ENDCHAR
STARTCHAR LATIN CAPITAL LETTER L WITH ACUTE
ENCODING 313
SWIDTH 548 0
DWIDTH 8 0
BBX 6 14 1 0
BITMAP
30
C0
00
00
80
80
80
80
80
80
80
80
80
FC
ENDCHAR
STARTCHAR LATIN SMALL LETTER L WITH ACUTE
ENCODING 314
SWIDTH 480 0
DWIDTH 7 0
BBX 5 14 1 0
BITMAP
30
C0
00
00
60
20
20
20
20
20
20
20
20
F8
ENDCHAR
STARTCHAR LATIN CAPITAL LETTER L WITH CEDILLA
ENCODING 315
SWIDTH 548 0
DWIDTH 8 0
BBX 6 13 1 -3
BITMAP
80
80
80
80
80
80
80
80
80
FC
20
10
70
ENDCHAR
STARTCHAR LATIN SMALL LETTER L WITH CEDILLA
ENCODING 316
SWIDTH 480 0
DWIDTH 7 0
BBX 5 13 1 -3
BITMAP
60
20
20
20
20
20
20
20
20
F8
20
10
70
ENDCHAR
STARTCHAR LATIN CAPITAL LETTER L WITH CARON
ENCODING 317
SWIDTH 548 0
DWIDTH 8 0
BBX 6 14 1 0
BITMAP
88
50
20
00
80
80
80
80
80
80
80
80
80
FC
ENDCHAR
STARTCHAR LATIN SMALL LETTER L WITH CARON
ENCODING 318
SWIDTH 480 0
DWIDTH 7 0
BBX 5 14 1 0
BITMAP
88
50
20
00
60
20
20
20
20
20
20
20
20
F8
ENDCHAR
STARTCHAR LATIN CAPITAL LETTER L WITH MIDDLE DOT
ENCODING 319
SWIDTH 548 0
DWIDTH 8 0
BBX 6 10 1 0
BITMAP
80
80
80
80
84
84
80
80
80
FC
ENDCHAR
STARTCHAR LATIN SMALL LETTER L WITH MIDDLE DOT
ENCODING 320
SWIDTH 548 0
DWIDTH 8 0
BBX 6 10 1 0
BITMAP
60
20
20
20
24
24
20
20
20
F8
ENDCHAR
STARTCHAR LATIN CAPITAL LETTER L WITH STROKE
ENCODING 321
SWIDTH 685 0
DWIDTH 10 0
BBX 8 10 1 0
BITMAP
20
20
24
28
30
60
A0
20
20
3F
ENDCHAR
STARTCHAR LATIN SMALL LETTER L WITH STROKE
ENCODING 322
SWIDTH 480 0
DWIDTH 7 0
BBX 5 10 1 0
BITMAP
60
20
28
30
60
A0
20
20
20
F8
ENDCHAR
STARTCHAR LATIN CAPITAL LETTER N WITH ACUTE
ENCODING 323
SWIDTH 548 0
DWIDTH 8 0
BBX 6 14 1 0
BITMAP
18
60
00
00
84
C4
C4
A4
A4
94
94
8C
8C
84
ENDCHAR
STARTCHAR LATIN SMALL LETTER N WITH ACUTE
ENCODING 324
SWIDTH 548 0
DWIDTH 8 0
BBX 6 12 1 0
BITMAP
18
60
00
00
B8
C4
84
84
84
84
84
84
ENDCHAR
STARTCHAR LATIN CAPITAL LETTER N WITH CEDILLA
ENCODING 325
SWIDTH 548 0
DWIDTH 8 0
BBX 6 13 1 -3
BITMAP
84
C4
C4
A4
A4
94
94
8C
8C
84
30
10
20
ENDCHAR
STARTCHAR LATIN SMALL LETTER N WITH CEDILLA
ENCODING 326
SWIDTH 548 0
DWIDTH 8 0
BBX 6 11 1 -3
BITMAP
B8
C4
84
84
84
84
84
84
30
10
20
ENDCHAR
STARTCHAR LATIN CAPITAL LETTER N WITH CARON
ENCODING 327
SWIDTH 548 0
DWIDTH 8 0
BBX 6 14 1 0
BITMAP
88
50
20
00
84
C4
C4
A4
A4
94
94
8C
8C
84
ENDCHAR
STARTCHAR LATIN SMALL LETTER N WITH CARON
ENCODING 328
SWIDTH 548 0
DWIDTH 8 0
BBX 6 12 1 0
BITMAP
88
50
20
00
B8
C4
84
84
84
84
84
84
ENDCHAR
STARTCHAR LATIN SMALL LETTER N PRECEDED BY APOSTROPHE
ENCODING 329
SWIDTH 685 0
DWIDTH 10 0
BBX 8 12 1 0
BITMAP
C0
40
80
00
2E
31
21
21
21
21
21
21
ENDCHAR
STARTCHAR LATIN CAPITAL LETTER ENG
ENCODING 330
SWIDTH 548 0
DWIDTH 8 0
BBX 6 12 1 -2
BITMAP
84
C4
C4
A4
A4
94
94
8C
8C
84
04
18
ENDCHAR
STARTCHAR LATIN SMALL LETTER ENG
ENCODING 331
SWIDTH 548 0
DWIDTH 8 0
BBX 6 11 1 -3
BITMAP
B8
C4
84
84
84
84
84
84
04
04
18
ENDCHAR
STARTCHAR LATIN CAPITAL LETTER O WITH MACRON
ENCODING 332
SWIDTH 617 0
DWIDTH 9 0
BBX 7 13 1 0
BITMAP
7C
00
00
38
44
82
82
82
82
82
82
44
38
ENDCHAR
STARTCHAR LATIN SMALL LETTER O WITH MACRON
ENCODING 333
SWIDTH 617 0
DWIDTH 9 0
BBX 7 11 1 0
BITMAP
7C
00
00
38
44
82
82
82
82
44
38
ENDCHAR
STARTCHAR LATIN CAPITAL LETTER O WITH BREVE
ENCODING 334
SWIDTH 617 0
DWIDTH 9 0
BBX 7 14 1 0
BITMAP
44
44
38
00
38
44
82
82
82
82
82
82
44
38
ENDCHAR
STARTCHAR LATIN SMALL LETTER O WITH BREVE
ENCODING 335
SWIDTH 617 0
DWIDTH 9 0
BBX 7 12 1 0
BITMAP
44
44
38
00
38
44
82
82
82
82
44
38
ENDCHAR
STARTCHAR LATIN CAPITAL LETTER O WITH DOUBLE ACUTE
ENCODING 336
SWIDTH 617 0
DWIDTH 9 0
BBX 7 14 1 0
BITMAP
22
44
00
00
38
44
82
82
82
82
82
82
44
38
ENDCHAR
STARTCHAR LATIN SMALL LETTER O WITH DOUBLE ACUTE
ENCODING 337
SWIDTH 617 0
DWIDTH 9 0
BBX 7 12 1 0
BITMAP
22
44
00
00
38
44
82
82
82
82
44
38
ENDCHAR
STARTCHAR LATIN CAPITAL LIGATURE OE
ENCODING 338
SWIDTH 822 0
DWIDTH 12 0
BBX 10 10 1 0
BITMAP
37C0
4C00
8400
8400
8780
8400
8400
8400
4C00
37C0
ENDCHAR
STARTCHAR LATIN SMALL LIGATURE OE
ENCODING 339
SWIDTH 754 0
DWIDTH 11 0
BBX 9 8 1 0
BITMAP
7700
8880
8880
8F80
8800
8800
8880
7700
ENDCHAR
STARTCHAR LATIN CAPITAL LETTER R WITH ACUTE
ENCODING 340
SWIDTH 548 0
DWIDTH 8 0
BBX 6 14 1 0
BITMAP
18
60
00
00
F8
84
84
84
F8
90
88
88
84
84
ENDCHAR
STARTCHAR LATIN SMALL LETTER R WITH ACUTE
ENCODING 341
SWIDTH 548 0
DWIDTH 8 0
BBX 6 12 1 0
BITMAP
18
60
00
00
B8
C4
84
80
80
80
80
80
ENDCHAR
STARTCHAR LATIN CAPITAL LETTER R WITH CEDILLA
ENCODING 342
SWIDTH 548 0
DWIDTH 8 0
BBX 6 13 1 -3
BITMAP
F8
84
84
84
F8
90
88
88
84
84
30
10
20
ENDCHAR
STARTCHAR LATIN SMALL LETTER R WITH CEDILLA
ENCODING 343
SWIDTH 548 0
DWIDTH 8 0
BBX 6 11 1 -3
BITMAP
B8
C4
84
80
80
80
80
80
30
10
20
ENDCHAR
STARTCHAR LATIN CAPITAL LETTER R WITH CARON
ENCODING 344
SWIDTH 548 0
DWIDTH 8 0
BBX 6 14 1 0
BITMAP
88
50
20
00
F8
84
84
84
F8
90
88
88
84
84
ENDCHAR
STARTCHAR LATIN SMALL LETTER R WITH CARON
ENCODING 345
SWIDTH 548 0
DWIDTH 8 0
BBX 6 12 1 0
BITMAP
88
50
20
00
B8
C4
84
80
80
80
80
80
ENDCHAR
STARTCHAR LATIN CAPITAL LETTER S WITH ACUTE
ENCODING 346
SWIDTH 548 0
DWIDTH 8 0
BBX 6 14 1 0
BITMAP
18
60
00
00
78
84
80
80
60
18
04
84
84
78
ENDCHAR
STARTCHAR LATIN SMALL LETTER S WITH ACUTE
ENCODING 347
SWIDTH 548 0
DWIDTH 8 0
BBX 6 12 1 0
BITMAP
18
60
00
00
78
84
80
60
18
84
84
78
ENDCHAR
STARTCHAR LATIN CAPITAL LETTER S WITH CIRCUMFLEX
ENCODING 348
SWIDTH 548 0
DWIDTH 8 0
BBX 6 14 1 0
BITMAP
20
50
88
00
78
84
80
80
60
18
04
84
84
78
ENDCHAR
STARTCHAR LATIN SMALL LETTER S WITH CIRCUMFLEX
ENCODING 349
SWIDTH 548 0
DWIDTH 8 0
BBX 6 12 1 0
BITMAP
20
50
88
00
78
84
80
60
18
04
84
78
ENDCHAR
STARTCHAR LATIN CAPITAL LETTER S WITH CEDILLA *
ENCODING 350
SWIDTH 548 0
DWIDTH 8 0
BBX 6 13 1 -3
BITMAP
78
84
80
80
60
18
04
84
84
78
10
08
38
ENDCHAR
STARTCHAR LATIN SMALL LETTER S WITH CEDILLA *
ENCODING 351
SWIDTH 548 0
DWIDTH 8 0
BBX 6 11 1 -3
BITMAP
78
84
80
60
18
04
84
78
20
10
30
ENDCHAR
STARTCHAR LATIN CAPITAL LETTER S WITH CARON
ENCODING 352
SWIDTH 548 0
DWIDTH 8 0
BBX 6 14 1 0
BITMAP
88
50
20
00
78
84
80
80
60
18
04
84
84
78
ENDCHAR
STARTCHAR LATIN SMALL LETTER S WITH CARON
ENCODING 353
SWIDTH 548 0
DWIDTH 8 0
BBX 6 12 1 0
BITMAP
88
50
20
00
78
84
80
60
18
04
84
78
ENDCHAR
STARTCHAR LATIN CAPITAL LETTER T WITH CEDILLA *
ENCODING 354
SWIDTH 617 0
DWIDTH 9 0
BBX 7 13 1 -3
BITMAP
FE
10
10
10
10
10
10
10
10
10
10
08
38
ENDCHAR
STARTCHAR LATIN SMALL LETTER T WITH CEDILLA *
ENCODING 355
SWIDTH 480 0
DWIDTH 7 0
BBX 5 13 1 -3
BITMAP
20
20
F8
20
20
20
20
20
20
18
20
10
70
ENDCHAR
STARTCHAR LATIN CAPITAL LETTER T WITH CARON
ENCODING 356
SWIDTH 617 0
DWIDTH 9 0
BBX 7 14 1 0
BITMAP
44
28
10
00
FE
10
10
10
10
10
10
10
10
10
ENDCHAR
STARTCHAR LATIN SMALL LETTER T WITH CARON
ENCODING 357
SWIDTH 480 0
DWIDTH 7 0
BBX 5 14 1 0
BITMAP
88
50
20
00
20
20
F8
20
20
20
20
20
20
18
ENDCHAR
STARTCHAR LATIN CAPITAL LETTER T WITH STROKE
ENCODING 358
SWIDTH 617 0
DWIDTH 9 0
BBX 7 10 1 0
BITMAP
FE
10
10
10
7C
10
10
10
10
10
ENDCHAR
STARTCHAR LATIN SMALL LETTER T WITH STROKE
ENCODING 359
SWIDTH 480 0
DWIDTH 7 0
BBX 5 10 1 0
BITMAP
20
20
F8
20
20
F8
20
20
20
18
ENDCHAR
STARTCHAR LATIN CAPITAL LETTER U WITH TILDE
ENCODING 360
SWIDTH 548 0
DWIDTH 8 0
BBX 6 14 1 0
BITMAP
64
98
00
00
84
84
84
84
84
84
84
84
84
78
ENDCHAR
STARTCHAR LATIN SMALL LETTER U WITH TILDE
ENCODING 361
SWIDTH 548 0
DWIDTH 8 0
BBX 6 12 1 0
BITMAP
64
98
00
00
84
84
84
84
84
84
8C
74
ENDCHAR
STARTCHAR LATIN CAPITAL LETTER U WITH MACRON
ENCODING 362
SWIDTH 548 0
DWIDTH 8 0
BBX 6 13 1 0
BITMAP
F8
00
00
84
84
84
84
84
84
84
84
84
78
ENDCHAR
STARTCHAR LATIN SMALL LETTER U WITH MACRON
ENCODING 363
SWIDTH 548 0
DWIDTH 8 0
BBX 6 11 1 0
BITMAP
78
00
00
84
84
84
84
84
84
8C
74
ENDCHAR
STARTCHAR LATIN CAPITAL LETTER U WITH BREVE
ENCODING 364
SWIDTH 548 0
DWIDTH 8 0
BBX 6 14 1 0
BITMAP
88
88
70
00
84
84
84
84
84
84
84
84
84
78
ENDCHAR
STARTCHAR LATIN SMALL LETTER U WITH BREVE
ENCODING 365
SWIDTH 548 0
DWIDTH 8 0
BBX 6 12 1 0
BITMAP
88
88
70
00
84
84
84
84
84
84
8C
74
ENDCHAR
STARTCHAR LATIN CAPITAL LETTER U WITH RING ABOVE
ENCODING 366
SWIDTH 548 0
DWIDTH 8 0
BBX 6 14 1 0
BITMAP
20
50
20
00
84
84
84
84
84
84
84
84
84
78
ENDCHAR
STARTCHAR LATIN SMALL LETTER U WITH RING ABOVE
ENCODING 367
SWIDTH 548 0
DWIDTH 8 0
BBX 6 12 1 0
BITMAP
20
50
20
00
84
84
84
84
84
84
8C
74
ENDCHAR
STARTCHAR LATIN CAPITAL LETTER U WITH DOUBLE ACUTE
ENCODING 368
SWIDTH 548 0
DWIDTH 8 0
BBX 6 14 1 0
BITMAP
24
48
00
00
84
84
84
84
84
84
84
84
84
78
ENDCHAR
STARTCHAR LATIN SMALL LETTER U WITH DOUBLE ACUTE
ENCODING 369
SWIDTH 548 0
DWIDTH 8 0
BBX 6 12 1 0
BITMAP
24
48
00
00
84
84
84
84
84
84
8C
74
ENDCHAR
STARTCHAR LATIN CAPITAL LETTER U WITH OGONEK
ENCODING 370
SWIDTH 548 0
DWIDTH 8 0
BBX 6 13 1 -3
BITMAP
84
84
84
84
84
84
84
84
84
78
10
20
38
ENDCHAR
STARTCHAR LATIN SMALL LETTER U WITH OGONEK
ENCODING 371
SWIDTH 548 0
DWIDTH 8 0
BBX 6 11 1 -3
BITMAP
84
84
84
84
84
84
8C
74
0C
10
1C
ENDCHAR
STARTCHAR LATIN CAPITAL LETTER W WITH CIRCUMFLEX
ENCODING 372
SWIDTH 754 0
DWIDTH 11 0
BBX 9 14 1 0
BITMAP
0800
1400
2200
0000
8080
8880
8880
8880
5500
5500
5500
2200
2200
2200
ENDCHAR
STARTCHAR LATIN SMALL LETTER W WITH CIRCUMFLEX
ENCODING 373
SWIDTH 754 0
DWIDTH 11 0
BBX 9 12 1 0
BITMAP
0800
1400
2200
0000
8080
8880
8880
4900
5500
5500
2200
2200
ENDCHAR
STARTCHAR LATIN CAPITAL LETTER Y WITH CIRCUMFLEX
ENCODING 374
SWIDTH 617 0
DWIDTH 9 0
BBX 7 14 1 0
BITMAP
10
28
44
00
82
82
44
44
28
10
10
10
10
10
ENDCHAR
STARTCHAR LATIN SMALL LETTER Y WITH CIRCUMFLEX
ENCODING 375
SWIDTH 617 0
DWIDTH 9 0
BBX 7 15 1 -3
BITMAP
10
28
44
00
82
82
44
44
28
28
10
10
20
20
40
ENDCHAR
STARTCHAR LATIN CAPITAL LETTER Y WITH DIAERESIS
ENCODING 376
SWIDTH 617 0
DWIDTH 9 0
BBX 7 14 1 0
BITMAP
44
44
00
00
82
82
44
44
28
10
10
10
10
10
ENDCHAR
STARTCHAR LATIN CAPITAL LETTER Z WITH ACUTE
ENCODING 377
SWIDTH 548 0
DWIDTH 8 0
BBX 6 14 1 0
BITMAP
18
60
00
00
FC
04
04
08
10
20
40
80
80
FC
ENDCHAR
STARTCHAR LATIN SMALL LETTER Z WITH ACUTE
ENCODING 378
SWIDTH 548 0
DWIDTH 8 0
BBX 6 12 1 0
BITMAP
18
60
00
00
FC
04
08
10
20
40
80
FC
ENDCHAR
STARTCHAR LATIN CAPITAL LETTER Z WITH DOT ABOVE
ENCODING 379
SWIDTH 548 0
DWIDTH 8 0
BBX 6 14 1 0
BITMAP
20
20
00
00
FC
04
04
08
10
20
40
80
80
FC
ENDCHAR
STARTCHAR LATIN SMALL LETTER Z WITH DOT ABOVE
ENCODING 380
SWIDTH 548 0
DWIDTH 8 0
BBX 6 12 1 0
BITMAP
20
20
00
00
FC
04
08
10
20
40
80
FC
ENDCHAR
STARTCHAR LATIN CAPITAL LETTER Z WITH CARON
ENCODING 381
SWIDTH 548 0
DWIDTH 8 0
BBX 6 14 1 0
BITMAP
88
50
20
00
FC
04
04
08
10
20
40
80
80
FC
ENDCHAR
STARTCHAR LATIN SMALL LETTER Z WITH CARON
ENCODING 382
SWIDTH 548 0
DWIDTH 8 0
BBX 6 12 1 0
BITMAP
88
50
20
00
FC
04
08
10
20
40
80
FC
ENDCHAR
STARTCHAR LATIN SMALL LETTER LONG S
ENCODING 383
SWIDTH 411 0
DWIDTH 6 0
BBX 4 11 1 0
BITMAP
30
40
40
40
C0
40
40
40
40
40
40
ENDCHAR
STARTCHAR LATIN SMALL LETTER B WITH STROKE
ENCODING 384
SWIDTH 617 0
DWIDTH 9 0
BBX 7 12 1 0
BITMAP
40
40
F0
40
40
5C
62
42
42
42
62
5C
ENDCHAR
STARTCHAR LATIN CAPITAL LETTER B WITH HOOK
ENCODING 385
SWIDTH 754 0
DWIDTH 11 0
BBX 9 10 1 0
BITMAP
7F00
9080
9080
1080
1F00
1080
1080
1080
1080
1F00
ENDCHAR
STARTCHAR LATIN CAPITAL LETTER B WITH TOPBAR
ENCODING 386
SWIDTH 617 0
DWIDTH 9 0
BBX 7 10 1 0
BITMAP
FC
84
80
80
F8
84
82
82
84
F8
ENDCHAR
STARTCHAR LATIN SMALL LETTER B WITH TOPBAR
ENCODING 387
SWIDTH 548 0
DWIDTH 8 0
BBX 6 11 1 0
BITMAP
F8
88
80
80
B8
C4
84
84
84
C4
B8
ENDCHAR
STARTCHAR LATIN CAPITAL LETTER TONE SIX
ENCODING 388
SWIDTH 685 0
DWIDTH 10 0
BBX 8 10 1 0
BITMAP
40
C0
C0
40
7C
42
41
41
42
7C
ENDCHAR
STARTCHAR LATIN SMALL LETTER TONE SIX
ENCODING 389
SWIDTH 617 0
DWIDTH 9 0
BBX 7 11 1 0
BITMAP
40
C0
C0
40
5C
62
42
42
42
62
5C
ENDCHAR
STARTCHAR LATIN CAPITAL LETTER OPEN O
ENCODING 390
SWIDTH 548 0
DWIDTH 8 0
BBX 6 10 1 0
BITMAP
78
84
84
04
04
04
04
84
84
78
ENDCHAR
STARTCHAR LATIN CAPITAL LETTER C WITH HOOK
ENCODING 391
SWIDTH 685 0
DWIDTH 10 0
BBX 8 12 1 0
BITMAP
03
04
7C
84
84
80
80
80
80
84
84
78
ENDCHAR
STARTCHAR LATIN SMALL LETTER C WITH HOOK
ENCODING 392
SWIDTH 685 0
DWIDTH 10 0
BBX 8 10 1 0
BITMAP
03
04
7C
84
80
80
80
80
84
78
ENDCHAR
STARTCHAR LATIN CAPITAL LETTER AFRICAN D
ENCODING 393
SWIDTH 685 0
DWIDTH 10 0
BBX 8 10 1 0
BITMAP
3C
22
21
21
F9
21
21
21
22
3C
ENDCHAR
STARTCHAR LATIN CAPITAL LETTER D WITH HOOK
ENCODING 394
SWIDTH 754 0
DWIDTH 11 0
BBX 9 10 1 0
BITMAP
7E00
9100
1080
1080
1080
1080
1080
1080
1100
1E00
ENDCHAR
STARTCHAR LATIN CAPITAL LETTER D WITH TOPBAR
ENCODING 395
SWIDTH 617 0
DWIDTH 9 0
BBX 7 10 1 0
BITMAP
7E
42
02
02
3E
42
82
82
42
3E
ENDCHAR
STARTCHAR LATIN SMALL LETTER D WITH TOPBAR
ENCODING 396
SWIDTH 548 0
DWIDTH 8 0
BBX 6 11 1 0
BITMAP
7C
44
04
04
74
8C
84
84
84
8C
74
ENDCHAR
STARTCHAR LATIN SMALL LETTER TURNED DELTA
ENCODING 397
SWIDTH 548 0
DWIDTH 8 0
BBX 6 11 1 -3
BITMAP
78
84
84
84
84
48
30
08
04
84
78
ENDCHAR
STARTCHAR LATIN CAPITAL LETTER REVERSED E
ENCODING 398
SWIDTH 548 0
DWIDTH 8 0
BBX 6 10 1 0
BITMAP
FC
04
04
04
7C
04
04
04
04
FC
ENDCHAR
STARTCHAR LATIN CAPITAL LETTER SCHWA
ENCODING 399
SWIDTH 548 0
DWIDTH 8 0
BBX 6 10 1 0
BITMAP
78
84
04
04
04
FC
84
84
84
78
ENDCHAR
STARTCHAR LATIN CAPITAL LETTER OPEN E
ENCODING 400
SWIDTH 548 0
DWIDTH 8 0
BBX 6 10 1 0
BITMAP
78
84
80
80
78
80
80
80
84
78
ENDCHAR
STARTCHAR LATIN CAPITAL LETTER F WITH HOOK
ENCODING 401
SWIDTH 685 0
DWIDTH 10 0
BBX 8 12 1 -2
BITMAP
3F
20
20
20
3E
20
20
20
20
20
20
C0
ENDCHAR
STARTCHAR LATIN SMALL LETTER F WITH HOOK
ENCODING 402
SWIDTH 480 0
DWIDTH 7 0
BBX 5 13 1 -2
BITMAP
18
20
20
20
F8
20
20
20
20
20
20
20
C0
ENDCHAR
STARTCHAR LATIN CAPITAL LETTER G WITH HOOK
ENCODING 403
SWIDTH 685 0
DWIDTH 10 0
BBX 8 11 1 0
BITMAP
03
7C
84
84
80
80
9C
84
84
8C
74
ENDCHAR
STARTCHAR LATIN CAPITAL LETTER GAMMA
ENCODING 404
SWIDTH 617 0
DWIDTH 9 0
BBX 7 12 1 -2
BITMAP
82
82
82
44
44
44
28
28
10
10
28
10
ENDCHAR
STARTCHAR LATIN SMALL LETTER HV
ENCODING 405
SWIDTH 754 0
DWIDTH 11 0
BBX 9 11 1 0
BITMAP
8000
8000
8000
B000
C880
8880
8880
8880
8880
8880
8700
ENDCHAR
STARTCHAR LATIN CAPITAL LETTER IOTA
ENCODING 406
SWIDTH 342 0
DWIDTH 5 0
BBX 3 10 1 0
BITMAP
80
80
80
80
80
80
80
80
80
60
ENDCHAR
STARTCHAR LATIN CAPITAL LETTER I WITH STROKE
ENCODING 407
SWIDTH 480 0
DWIDTH 7 0
BBX 5 10 1 0
BITMAP
F8
20
20
20
F8
20
20
20
20
F8
ENDCHAR
STARTCHAR LATIN CAPITAL LETTER K WITH HOOK
ENCODING 408
SWIDTH 685 0
DWIDTH 10 0
BBX 8 10 1 0
BITMAP
86
89
91
A0
C0
C0
A0
90
88
84
ENDCHAR
STARTCHAR LATIN SMALL LETTER K WITH HOOK
ENCODING 409
SWIDTH 548 0
DWIDTH 8 0
BBX 6 11 1 0
BITMAP
60
90
80
80
88
90
A0
E0
90
88
84
ENDCHAR
STARTCHAR LATIN SMALL LETTER L WITH BAR
ENCODING 410
SWIDTH 480 0
DWIDTH 7 0
BBX 5 10 1 0
BITMAP
60
20
20
20
F8
20
20
20
20
F8
ENDCHAR
STARTCHAR LATIN SMALL LETTER LAMBDA WITH STROKE
ENCODING 411
SWIDTH 548 0
DWIDTH 8 0
BBX 6 10 1 0
BITMAP
C0
48
30
20
50
10
28
28
44
44
ENDCHAR
STARTCHAR LATIN CAPITAL LETTER TURNED M
ENCODING 412
SWIDTH 754 0
DWIDTH 11 0
BBX 9 10 1 0
BITMAP
8880
8880
8880
8880
8880
8880
8880
8880
9980
6680
ENDCHAR
STARTCHAR LATIN CAPITAL LETTER N WITH LEFT HOOK
ENCODING 413
SWIDTH 685 0
DWIDTH 10 0
BBX 8 12 1 -2
BITMAP
21
31
31
29
29
25
25
23
23
21
20
C0
ENDCHAR
STARTCHAR LATIN SMALL LETTER N WITH LONG RIGHT LEG
ENCODING 414
SWIDTH 548 0
DWIDTH 8 0
BBX 6 11 1 -3
BITMAP
B8
C4
84
84
84
84
84
84
04
04
04
ENDCHAR
STARTCHAR LATIN CAPITAL LETTER O WITH MIDDLE TILDE
ENCODING 415
SWIDTH 617 0
DWIDTH 9 0
BBX 7 10 1 0
BITMAP
38
44
82
82
FE
82
82
82
44
38
ENDCHAR
STARTCHAR LATIN CAPITAL LETTER O WITH HORN
ENCODING 416
SWIDTH 685 0
DWIDTH 10 0
BBX 8 12 1 0
BITMAP
03
01
3A
44
82
82
82
82
82
82
44
38
ENDCHAR
STARTCHAR LATIN SMALL LETTER O WITH HORN
ENCODING 417
SWIDTH 685 0
DWIDTH 10 0
BBX 8 10 1 0
BITMAP
03
01
3A
44
82
82
82
82
44
38
ENDCHAR
STARTCHAR LATIN CAPITAL LETTER OI
ENCODING 418
SWIDTH 754 0
DWIDTH 11 0
BBX 9 12 1 -2
BITMAP
3880
4780
8480
8480
8480
8480
8480
8480
4480
3880
0080
0080
ENDCHAR
STARTCHAR LATIN SMALL LETTER OI
ENCODING 419
SWIDTH 754 0
DWIDTH 11 0
BBX 9 10 1 -2
BITMAP
3880
4780
8480
8480
8480
8480
4480
3880
0080
0080
ENDCHAR
STARTCHAR LATIN CAPITAL LETTER P WITH HOOK
ENCODING 420
SWIDTH 754 0
DWIDTH 11 0
BBX 9 10 1 0
BITMAP
7F00
9080
1080
1080
1F00
1000
1000
1000
1000
1000
ENDCHAR
STARTCHAR LATIN SMALL LETTER P WITH HOOK
ENCODING 421
SWIDTH 548 0
DWIDTH 8 0
BBX 6 13 1 -3
BITMAP
60
80
80
B8
C4
84
84
84
C4
B8
80
80
80
ENDCHAR
STARTCHAR LATIN LETTER YR
ENCODING 422
SWIDTH 685 0
DWIDTH 10 0
BBX 8 13 1 -1
BITMAP
E0
40
7C
42
42
42
7C
48
44
44
42
42
01
ENDCHAR
STARTCHAR LATIN CAPITAL LETTER TONE TWO
ENCODING 423
SWIDTH 548 0
DWIDTH 8 0
BBX 6 10 1 0
BITMAP
78
84
04
04
18
60
80
84
84
78
ENDCHAR
STARTCHAR LATIN SMALL LETTER TONE TWO
ENCODING 424
SWIDTH 548 0
DWIDTH 8 0
BBX 6 8 1 0
BITMAP
78
84
04
18
60
80
84
78
ENDCHAR
STARTCHAR LATIN CAPITAL LETTER ESH
ENCODING 425
SWIDTH 617 0
DWIDTH 9 0
BBX 7 10 1 0
BITMAP
FE
40
20
10
08
08
10
20
40
FE
ENDCHAR
STARTCHAR LATIN LETTER REVERSED ESH LOOP
ENCODING 426
SWIDTH 548 0
DWIDTH 8 0
BBX 6 13 1 -2
BITMAP
60
B0
50
10
10
10
10
10
10
10
10
10
0C
ENDCHAR
STARTCHAR LATIN SMALL LETTER T WITH PALATAL HOOK
ENCODING 427
SWIDTH 480 0
DWIDTH 7 0
BBX 5 12 1 -2
BITMAP
20
20
F8
20
20
20
20
20
20
18
08
30
ENDCHAR
STARTCHAR LATIN CAPITAL LETTER T WITH HOOK
ENCODING 428
SWIDTH 685 0
DWIDTH 10 0
BBX 8 10 1 0
BITMAP
7F
88
88
08
08
08
08
08
08
08
ENDCHAR
STARTCHAR LATIN SMALL LETTER T WITH HOOK
ENCODING 429
SWIDTH 480 0
DWIDTH 7 0
BBX 5 12 1 0
BITMAP
18
20
20
20
F8
20
20
20
20
20
20
18
ENDCHAR
STARTCHAR LATIN CAPITAL LETTER T WITH RETROFLEX HOOK
ENCODING 430
SWIDTH 617 0
DWIDTH 9 0
BBX 7 12 1 -2
BITMAP
FE
10
10
10
10
10
10
10
10
10
10
0C
ENDCHAR
STARTCHAR LATIN CAPITAL LETTER U WITH HORN
ENCODING 431
SWIDTH 685 0
DWIDTH 10 0
BBX 8 12 1 0
BITMAP
03
01
86
84
84
84
84
84
84
84
84
78
ENDCHAR
STARTCHAR LATIN SMALL LETTER U WITH HORN
ENCODING 432
SWIDTH 685 0
DWIDTH 10 0
BBX 8 10 1 0
BITMAP
03
01
86
84
84
84
84
84
8C
74
ENDCHAR
STARTCHAR LATIN CAPITAL LETTER UPSILON
ENCODING 433
SWIDTH 685 0
DWIDTH 10 0
BBX 8 10 1 0
BITMAP
E7
24
42
81
81
81
81
81
42
3C
ENDCHAR
STARTCHAR LATIN CAPITAL LETTER V WITH HOOK
ENCODING 434
SWIDTH 617 0
DWIDTH 9 0
BBX 7 10 1 0
BITMAP
8C
82
82
82
82
82
82
84
88
70
ENDCHAR
STARTCHAR LATIN CAPITAL LETTER Y WITH HOOK
ENCODING 435
SWIDTH 822 0
DWIDTH 12 0
BBX 9 10 2 0
BITMAP
6080
A080
1100
1100
0E00
0400
0400
0400
0400
0400
ENDCHAR
STARTCHAR LATIN SMALL LETTER Y WITH HOOK
ENCODING 436
SWIDTH 822 0
DWIDTH 12 0
BBX 10 12 1 -3
BITMAP
0180
8240
8200
4400
4400
2800
2800
1000
1000
2000
2000
4000
ENDCHAR
STARTCHAR LATIN CAPITAL LETTER Z WITH STROKE
ENCODING 437
SWIDTH 548 0
DWIDTH 8 0
BBX 6 10 1 0
BITMAP
FC
04
08
10
FC
20
40
80
80
FC
ENDCHAR
STARTCHAR LATIN SMALL LETTER Z WITH STROKE
ENCODING 438
SWIDTH 548 0
DWIDTH 8 0
BBX 6 8 1 0
BITMAP
FC
04
08
7C
20
40
80
FC
ENDCHAR
STARTCHAR LATIN CAPITAL LETTER EZH
ENCODING 439
SWIDTH 548 0
DWIDTH 8 0
BBX 6 13 1 -3
BITMAP
FC
04
08
10
20
70
08
04
04
04
04
88
70
ENDCHAR
STARTCHAR LATIN CAPITAL LETTER EZH REVERSED
ENCODING 440
SWIDTH 548 0
DWIDTH 8 0
BBX 6 13 1 -3
BITMAP
FC
80
40
20
10
38
40
80
80
80
80
44
38
ENDCHAR
STARTCHAR LATIN SMALL LETTER EZH REVERSED
ENCODING 441
SWIDTH 548 0
DWIDTH 8 0
BBX 6 11 1 -3
BITMAP
FC
40
20
10
38
40
80
80
80
44
38
ENDCHAR
STARTCHAR LATIN SMALL LETTER EZH WITH TAIL
ENCODING 442
SWIDTH 548 0
DWIDTH 8 0
BBX 6 11 1 -3
BITMAP
FC
08
10
20
70
08
10
20
40
44
38
ENDCHAR
STARTCHAR LATIN LETTER TWO WITH STROKE
ENCODING 443
SWIDTH 548 0
DWIDTH 8 0
BBX 6 10 1 0
BITMAP
78
84
84
08
10
FC
20
40
80
FC
ENDCHAR
STARTCHAR LATIN CAPITAL LETTER TONE FIVE
ENCODING 444
SWIDTH 548 0
DWIDTH 8 0
BBX 6 10 1 0
BITMAP
FC
80
C0
30
08
04
04
04
88
70
ENDCHAR
STARTCHAR LATIN SMALL LETTER TONE FIVE
ENCODING 445
SWIDTH 548 0
DWIDTH 8 0
BBX 6 8 1 0
BITMAP
FC
80
70
08
04
04
88
70
ENDCHAR
STARTCHAR LATIN LETTER INVERTED GLOTTAL STOP WITH STROKE
ENCODING 446
SWIDTH 548 0
DWIDTH 8 0
BBX 6 9 1 0
BITMAP
20
20
F8
20
20
18
04
84
78
ENDCHAR
STARTCHAR LATIN LETTER WYNN
ENCODING 447
SWIDTH 480 0
DWIDTH 7 0
BBX 5 11 1 -3
BITMAP
B0
C8
88
88
88
90
90
A0
C0
80
80
ENDCHAR
STARTCHAR LATIN LETTER DENTAL CLICK
ENCODING 448
SWIDTH 342 0
DWIDTH 5 0
BBX 1 10 2 0
BITMAP
80
80
80
80
80
80
80
80
80
80
ENDCHAR
STARTCHAR LATIN LETTER LATERAL CLICK
ENCODING 449
SWIDTH 342 0
DWIDTH 5 0
BBX 3 10 1 0
BITMAP
A0
A0
A0
A0
A0
A0
A0
A0
A0
A0
ENDCHAR
STARTCHAR LATIN LETTER ALVEOLAR CLICK
ENCODING 450
SWIDTH 480 0
DWIDTH 7 0
BBX 5 10 1 0
BITMAP
20
20
20
F8
20
F8
20
20
20
20
ENDCHAR
STARTCHAR LATIN LETTER RETROFLEX CLICK
ENCODING 451
SWIDTH 342 0
DWIDTH 5 0
BBX 1 10 2 0
BITMAP
80
80
80
80
80
80
80
00
80
80
ENDCHAR
STARTCHAR LATIN CAPITAL LETTER DZ WITH CARON
ENCODING 452
SWIDTH 1097 0
DWIDTH 16 0
BBX 14 14 1 0
BITMAP
0088
0050
0020
0000
F0FC
8804
8404
8408
8410
8420
8440
8480
8880
F0FC
ENDCHAR
STARTCHAR LATIN CAPITAL LETTER D WITH SMALL LETTER Z WITH CARON
ENCODING 453
SWIDTH 1097 0
DWIDTH 16 0
BBX 14 12 1 0
BITMAP
0088
0050
F020
8800
84FC
8404
8408
8410
8420
8440
8880
F0FC
ENDCHAR
STARTCHAR LATIN SMALL LETTER DZ WITH CARON
ENCODING 454
SWIDTH 1097 0
DWIDTH 16 0
BBX 14 12 1 0
BITMAP
0088
0450
0420
0400
34FC
4C04
8408
8410
8420
8440
4C80
34FC
ENDCHAR
STARTCHAR LATIN CAPITAL LETTER LJ
ENCODING 455
SWIDTH 1234 0
DWIDTH 18 0
BBX 16 10 1 0
BITMAP
801F
8004
8004
8004
8004
8004
8004
8044
8044
FE38
ENDCHAR
STARTCHAR LATIN CAPITAL LETTER L WITH SMALL LETTER J
ENCODING 456
SWIDTH 1097 0
DWIDTH 16 0
BBX 14 13 1 -2
BITMAP
0004
8004
8000
800C
8004
8004
8004
8004
8004
8004
FE04
0048
0030
ENDCHAR
STARTCHAR LATIN SMALL LETTER LJ
ENCODING 457
SWIDTH 960 0
DWIDTH 14 0
BBX 12 13 1 -2
BITMAP
0010
6010
2000
2030
2010
2010
2010
2010
2010
2010
F810
0120
00C0
ENDCHAR
STARTCHAR LATIN CAPITAL LETTER NJ
ENCODING 458
SWIDTH 1165 0
DWIDTH 17 0
BBX 15 10 1 0
BITMAP
843E
C408
C408
A408
A408
9408
9408
8C88
8C88
8470
ENDCHAR
STARTCHAR LATIN CAPITAL LETTER N WITH SMALL LETTER J
ENCODING 459
SWIDTH 1028 0
DWIDTH 15 0
BBX 13 13 1 -2
BITMAP
0008
8408
C400
C418
A408
A408
9408
9408
8C08
8C08
8408
0090
0060
ENDCHAR
STARTCHAR LATIN SMALL LETTER NJ
ENCODING 460
SWIDTH 1028 0
DWIDTH 15 0
BBX 13 13 1 -2
BITMAP
0008
0008
0000
B818
C408
8408
8408
8408
8408
8408
8408
0090
0060
ENDCHAR
STARTCHAR LATIN CAPITAL LETTER A WITH CARON
ENCODING 461
SWIDTH 617 0
DWIDTH 9 0
BBX 7 14 1 0
BITMAP
44
28
10
00
10
10
28
28
44
44
7C
82
82
82
ENDCHAR
STARTCHAR LATIN SMALL LETTER A WITH CARON
ENCODING 462
SWIDTH 548 0
DWIDTH 8 0
BBX 6 12 1 0
BITMAP
88
50
20
00
78
84
04
7C
84
84
8C
74
ENDCHAR
STARTCHAR LATIN CAPITAL LETTER I WITH CARON
ENCODING 463
SWIDTH 480 0
DWIDTH 7 0
BBX 5 14 1 0
BITMAP
88
50
20
00
F8
20
20
20
20
20
20
20
20
F8
ENDCHAR
STARTCHAR LATIN SMALL LETTER I WITH CARON
ENCODING 464
SWIDTH 480 0
DWIDTH 7 0
BBX 5 12 1 0
BITMAP
88
50
20
00
60
20
20
20
20
20
20
F8
ENDCHAR
STARTCHAR LATIN CAPITAL LETTER O WITH CARON
ENCODING 465
SWIDTH 617 0
DWIDTH 9 0
BBX 7 14 1 0
BITMAP
44
28
10
00
38
44
82
82
82
82
82
82
44
38
ENDCHAR
STARTCHAR LATIN SMALL LETTER O WITH CARON
ENCODING 466
SWIDTH 617 0
DWIDTH 9 0
BBX 7 12 1 0
BITMAP
44
28
10
00
38
44
82
82
82
82
44
38
ENDCHAR
STARTCHAR LATIN CAPITAL LETTER U WITH CARON
ENCODING 467
SWIDTH 548 0
DWIDTH 8 0
BBX 6 14 1 0
BITMAP
88
50
20
00
84
84
84
84
84
84
84
84
84
78
ENDCHAR
STARTCHAR LATIN SMALL LETTER U WITH CARON
ENCODING 468
SWIDTH 548 0
DWIDTH 8 0
BBX 6 12 1 0
BITMAP
88
50
20
00
84
84
84
84
84
84
8C
74
ENDCHAR
STARTCHAR LATIN CAPITAL LETTER U WITH DIAERESIS AND MACRON
ENCODING 469
SWIDTH 548 0
DWIDTH 8 0
BBX 6 15 1 0
BITMAP
FC
00
48
48
00
84
84
84
84
84
84
84
84
84
78
ENDCHAR
STARTCHAR LATIN SMALL LETTER U WITH DIAERESIS AND MACRON
ENCODING 470
SWIDTH 548 0
DWIDTH 8 0
BBX 6 13 1 0
BITMAP
78
00
48
48
00
84
84
84
84
84
84
8C
74
ENDCHAR
STARTCHAR LATIN CAPITAL LETTER U WITH DIAERESIS AND ACUTE
ENCODING 471
SWIDTH 548 0
DWIDTH 8 0
BBX 6 16 1 0
BITMAP
18
60
00
48
48
00
84
84
84
84
84
84
84
84
84
78
ENDCHAR
STARTCHAR LATIN SMALL LETTER U WITH DIAERESIS AND ACUTE
ENCODING 472
SWIDTH 548 0
DWIDTH 8 0
BBX 6 14 1 0
BITMAP
18
60
00
48
48
00
84
84
84
84
84
84
8C
74
ENDCHAR
STARTCHAR LATIN CAPITAL LETTER U WITH DIAERESIS AND CARON
ENCODING 473
SWIDTH 548 0
DWIDTH 8 0
BBX 6 16 1 0
BITMAP
88
50
20
88
88
00
84
84
84
84
84
84
84
84
84
78
ENDCHAR
STARTCHAR LATIN SMALL LETTER U WITH DIAERESIS AND CARON
ENCODING 474
SWIDTH 548 0
DWIDTH 8 0
BBX 6 15 1 0
BITMAP
88
50
20
00
88
88
00
84
84
84
84
84
84
8C
74
ENDCHAR
STARTCHAR LATIN CAPITAL LETTER U WITH DIAERESIS AND GRAVE
ENCODING 475
SWIDTH 548 0
DWIDTH 8 0
BBX 6 16 1 0
BITMAP
60
18
00
48
48
00
84
84
84
84
84
84
84
84
84
78
ENDCHAR
STARTCHAR LATIN SMALL LETTER U WITH DIAERESIS AND GRAVE
ENCODING 476
SWIDTH 548 0
DWIDTH 8 0
BBX 6 14 1 0
BITMAP
60
18
00
48
48
00
84
84
84
84
84
84
8C
74
ENDCHAR
STARTCHAR LATIN SMALL LETTER TURNED E
ENCODING 477
SWIDTH 548 0
DWIDTH 8 0
BBX 6 8 1 0
BITMAP
78
84
04
04
FC
84
84
78
ENDCHAR
STARTCHAR LATIN CAPITAL LETTER A WITH DIAERESIS AND MACRON
ENCODING 478
SWIDTH 617 0
DWIDTH 9 0
BBX 7 15 1 0
BITMAP
7C
00
44
44
00
10
10
28
28
44
44
7C
82
82
82
ENDCHAR
STARTCHAR LATIN SMALL LETTER A WITH DIAERESIS AND MACRON
ENCODING 479
SWIDTH 548 0
DWIDTH 8 0
BBX 6 13 1 0
BITMAP
78
00
48
48
00
78
84
04
7C
84
84
8C
74
ENDCHAR
STARTCHAR LATIN CAPITAL LETTER A WITH DOT ABOVE AND MACRON
ENCODING 480
SWIDTH 617 0
DWIDTH 9 0
BBX 7 15 1 0
BITMAP
7C
00
10
10
00
10
10
28
28
44
44
7C
82
82
82
ENDCHAR
STARTCHAR LATIN SMALL LETTER A WITH DOT ABOVE AND MACRON
ENCODING 481
SWIDTH 548 0
DWIDTH 8 0
BBX 6 13 1 0
BITMAP
7C
00
10
10
00
78
84
04
7C
84
84
8C
74
ENDCHAR
STARTCHAR LATIN CAPITAL LETTER AE WITH MACRON
ENCODING 482
SWIDTH 754 0
DWIDTH 11 0
BBX 9 13 1 0
BITMAP
1F00
0000
0000
1F80
1800
2800
2800
4F00
4800
7800
8800
8800
8F80
ENDCHAR
STARTCHAR LATIN SMALL LETTER AE WITH MACRON
ENCODING 483
SWIDTH 754 0
DWIDTH 11 0
BBX 9 11 1 0
BITMAP
3E00
0000
0000
7700
8880
0880
7F80
8800
8800
8880
7700
ENDCHAR
STARTCHAR LATIN CAPITAL LETTER G WITH STROKE
ENCODING 484
SWIDTH 685 0
DWIDTH 10 0
BBX 8 10 1 0
BITMAP
78
84
84
80
80
9C
84
9F
84
78
ENDCHAR
STARTCHAR LATIN SMALL LETTER G WITH STROKE
ENCODING 485
SWIDTH 685 0
DWIDTH 10 0
BBX 8 12 1 -3
BITMAP
02
3A
44
44
44
38
20
3C
42
FF
42
3C
ENDCHAR
STARTCHAR LATIN CAPITAL LETTER G WITH CARON
ENCODING 486
SWIDTH 548 0
DWIDTH 8 0
BBX 6 14 1 0
BITMAP
88
50
20
00
78
84
84
80
80
9C
84
84
8C
74
ENDCHAR
STARTCHAR LATIN SMALL LETTER G WITH CARON
ENCODING 487
SWIDTH 617 0
DWIDTH 9 0
BBX 7 14 1 -2
BITMAP
44
28
10
02
3A
44
44
44
38
40
7C
82
82
7C
ENDCHAR
STARTCHAR LATIN CAPITAL LETTER K WITH CARON
ENCODING 488
SWIDTH 548 0
DWIDTH 8 0
BBX 6 14 1 0
BITMAP
88
50
20
00
84
88
90
A0
C0
C0
A0
90
88
84
ENDCHAR
STARTCHAR LATIN SMALL LETTER K WITH CARON
ENCODING 489
SWIDTH 548 0
DWIDTH 8 0
BBX 6 14 1 0
BITMAP
88
50
20
00
80
80
80
88
90
A0
E0
90
88
84
ENDCHAR
STARTCHAR LATIN CAPITAL LETTER O WITH OGONEK
ENCODING 490
SWIDTH 617 0
DWIDTH 9 0
BBX 7 13 1 -3
BITMAP
38
44
82
82
82
82
82
82
44
38
10
20
38
ENDCHAR
STARTCHAR LATIN SMALL LETTER O WITH OGONEK
ENCODING 491
SWIDTH 617 0
DWIDTH 9 0
BBX 7 11 1 -3
BITMAP
38
44
82
82
82
82
44
38
10
20
38
ENDCHAR
STARTCHAR LATIN CAPITAL LETTER O WITH OGONEK AND MACRON
ENCODING 492
SWIDTH 617 0
DWIDTH 9 0
BBX 7 16 1 -3
BITMAP
7C
00
00
38
44
82
82
82
82
82
82
44
38
10
20
38
ENDCHAR
STARTCHAR LATIN SMALL LETTER O WITH OGONEK AND MACRON
ENCODING 493
SWIDTH 617 0
DWIDTH 9 0
BBX 7 14 1 -3
BITMAP
7C
00
00
38
44
82
82
82
82
44
38
10
20
38
ENDCHAR
STARTCHAR LATIN CAPITAL LETTER EZH WITH CARON
ENCODING 494
SWIDTH 548 0
DWIDTH 8 0
BBX 6 17 1 -3
BITMAP
88
50
20
00
FC
04
08
10
20
70
08
04
04
04
04
88
70
ENDCHAR
STARTCHAR LATIN SMALL LETTER EZH WITH CARON
ENCODING 495
SWIDTH 548 0
DWIDTH 8 0
BBX 6 15 1 -3
BITMAP
44
28
10
00
FC
08
10
20
70
08
04
04
04
88
70
ENDCHAR
STARTCHAR LATIN SMALL LETTER J WITH CARON
ENCODING 496
SWIDTH 617 0
DWIDTH 9 0
BBX 7 14 1 -2
BITMAP
22
14
08
00
18
08
08
08
08
08
08
08
90
60
ENDCHAR
STARTCHAR LATIN CAPITAL LETTER DZ
ENCODING 497
SWIDTH 1097 0
DWIDTH 16 0
BBX 14 10 1 0
BITMAP
F0FC
8804
8404
8408
8410
8420
8440
8480
8880
F0FC
ENDCHAR
STARTCHAR LATIN CAPITAL LETTER D WITH SMALL LETTER Z
ENCODING 498
SWIDTH 1097 0
DWIDTH 16 0
BBX 14 10 1 0
BITMAP
F000
8800
84FC
8404
8408
8410
8420
8440
8880
F0FC
ENDCHAR
STARTCHAR LATIN SMALL LETTER DZ
ENCODING 499
SWIDTH 1097 0
DWIDTH 16 0
BBX 14 11 1 0
BITMAP
0400
0400
0400
34FC
4C04
8408
8410
8420
8440
4C80
34FC
ENDCHAR
STARTCHAR LATIN CAPITAL LETTER G WITH ACUTE
ENCODING 500
SWIDTH 548 0
DWIDTH 8 0
BBX 6 14 1 0
BITMAP
18
60
00
00
78
84
84
80
80
9C
84
84
8C
74
ENDCHAR
STARTCHAR LATIN SMALL LETTER G WITH ACUTE
ENCODING 501
SWIDTH 617 0
DWIDTH 9 0
BBX 7 14 1 -2
BITMAP
0C
30
00
02
3A
44
44
44
38
40
7C
82
82
7C
ENDCHAR
STARTCHAR LATIN CAPITAL LETTER HWAIR
ENCODING 502
SWIDTH 822 0
DWIDTH 12 0
BBX 10 10 1 0
BITMAP
8400
8400
8400
8440
FC40
8440
8440
8440
8440
8380
ENDCHAR
STARTCHAR LATIN CAPITAL LETTER WYNN
ENCODING 503
SWIDTH 548 0
DWIDTH 8 0
BBX 6 13 1 -3
BITMAP
B8
C4
84
84
84
88
88
90
A0
A0
C0
80
80
ENDCHAR
STARTCHAR LATIN CAPITAL LETTER N WITH GRAVE
ENCODING 504
SWIDTH 548 0
DWIDTH 8 0
BBX 6 14 2 0
BITMAP
60
18
00
00
04
C4
C4
A4
A4
94
94
8C
8C
84
ENDCHAR
STARTCHAR LATIN SMALL LETTER N WITH GRAVE
ENCODING 505
SWIDTH 548 0
DWIDTH 8 0
BBX 6 12 1 0
BITMAP
60
18
00
00
B0
C8
84
84
84
84
84
84
ENDCHAR
STARTCHAR LATIN CAPITAL LETTER A WITH RING ABOVE AND ACUTE
ENCODING 506
SWIDTH 617 0
DWIDTH 9 0
BBX 7 16 1 0
BITMAP
0C
30
00
10
28
10
10
10
28
28
44
44
7C
82
82
82
ENDCHAR
STARTCHAR LATIN SMALL LETTER A WITH RING ABOVE AND ACUTE
ENCODING 507
SWIDTH 548 0
DWIDTH 8 0
BBX 6 15 1 0
BITMAP
18
60
00
20
50
20
00
78
84
04
7C
84
84
8C
74
ENDCHAR
STARTCHAR LATIN CAPITAL LETTER AE WITH ACUTE
ENCODING 508
SWIDTH 754 0
DWIDTH 11 0
BBX 9 14 1 0
BITMAP
0300
0C00
0000
0000
1F80
1800
2800
2800
4F00
4800
7800
8800
8800
8F80
ENDCHAR
STARTCHAR LATIN SMALL LETTER AE WITH ACUTE
ENCODING 509
SWIDTH 754 0
DWIDTH 11 0
BBX 9 12 1 0
BITMAP
0600
1800
0000
0000
7700
8880
0880
7F80
8800
8800
8880
7700
ENDCHAR
STARTCHAR LATIN CAPITAL LETTER O WITH STROKE AND ACUTE
ENCODING 510
SWIDTH 617 0
DWIDTH 9 0
BBX 7 14 1 0
BITMAP
0C
30
00
00
3A
44
8A
8A
92
92
A2
A2
44
B8
ENDCHAR
STARTCHAR LATIN SMALL LETTER O WITH STROKE AND ACUTE
ENCODING 511
SWIDTH 617 0
DWIDTH 9 0
BBX 7 12 1 0
BITMAP
0C
30
00
00
3A
44
8A
92
92
A2
44
B8
ENDCHAR
STARTCHAR LATIN CAPITAL LETTER A WITH DOUBLE GRAVE
ENCODING 512
SWIDTH 617 0
DWIDTH 9 0
BBX 7 14 1 0
BITMAP
48
24
00
00
10
10
28
28
44
44
7C
82
82
82
ENDCHAR
STARTCHAR LATIN SMALL LETTER A WITH DOUBLE GRAVE
ENCODING 513
SWIDTH 548 0
DWIDTH 8 0
BBX 6 12 2 0
BITMAP
90
48
00
00
78
84
04
7C
84
84
8C
74
ENDCHAR
STARTCHAR LATIN CAPITAL LETTER A WITH INVERTED BREVE
ENCODING 514
SWIDTH 617 0
DWIDTH 9 0
BBX 7 14 1 0
BITMAP
38
44
44
00
10
10
28
28
44
44
7C
82
82
82
ENDCHAR
STARTCHAR LATIN SMALL LETTER A WITH INVERTED BREVE
ENCODING 515
SWIDTH 548 0
DWIDTH 8 0
BBX 6 12 1 0
BITMAP
70
88
88
00
78
84
04
7C
84
84
8C
74
ENDCHAR
STARTCHAR LATIN CAPITAL LETTER E WITH DOUBLE GRAVE
ENCODING 516
SWIDTH 548 0
DWIDTH 8 0
BBX 6 14 1 0
BITMAP
90
48
00
00
FC
80
80
80
F8
80
80
80
80
FC
ENDCHAR
STARTCHAR LATIN SMALL LETTER E WITH DOUBLE GRAVE
ENCODING 517
SWIDTH 548 0
DWIDTH 8 0
BBX 6 12 1 0
BITMAP
90
48
00
00
78
84
84
FC
80
80
84
78
ENDCHAR
STARTCHAR LATIN CAPITAL LETTER E WITH INVERTED BREVE
ENCODING 518
SWIDTH 548 0
DWIDTH 8 0
BBX 6 14 1 0
BITMAP
70
88
88
00
FC
80
80
80
F8
80
80
80
80
FC
ENDCHAR
STARTCHAR LATIN SMALL LETTER E WITH INVERTED BREVE
ENCODING 519
SWIDTH 548 0
DWIDTH 8 0
BBX 6 12 1 0
BITMAP
70
88
88
00
78
84
84
FC
80
80
84
78
ENDCHAR
STARTCHAR LATIN CAPITAL LETTER I WITH DOUBLE GRAVE
ENCODING 520
SWIDTH 480 0
DWIDTH 7 0
BBX 5 14 1 0
BITMAP
90
48
00
00
F8
20
20
20
20
20
20
20
20
F8
ENDCHAR
STARTCHAR LATIN SMALL LETTER I WITH DOUBLE GRAVE
ENCODING 521
SWIDTH 480 0
DWIDTH 7 0
BBX 5 12 1 0
BITMAP
90
48
00
00
60
20
20
20
20
20
20
F8
ENDCHAR
STARTCHAR LATIN CAPITAL LETTER I WITH INVERTED BREVE
ENCODING 522
SWIDTH 480 0
DWIDTH 7 0
BBX 5 14 1 0
BITMAP
70
88
88
00
F8
20
20
20
20
20
20
20
20
F8
ENDCHAR
STARTCHAR LATIN SMALL LETTER I WITH INVERTED BREVE
ENCODING 523
SWIDTH 480 0
DWIDTH 7 0
BBX 5 12 1 0
BITMAP
70
88
88
00
60
20
20
20
20
20
20
F8
ENDCHAR
STARTCHAR LATIN CAPITAL LETTER O WITH DOUBLE GRAVE
ENCODING 524
SWIDTH 617 0
DWIDTH 9 0
BBX 7 14 1 0
BITMAP
48
24
00
00
38
44
82
82
82
82
82
82
44
38
ENDCHAR
STARTCHAR LATIN SMALL LETTER O WITH DOUBLE GRAVE
ENCODING 525
SWIDTH 617 0
DWIDTH 9 0
BBX 7 12 1 0
BITMAP
48
24
00
00
38
44
82
82
82
82
44
38
ENDCHAR
STARTCHAR LATIN CAPITAL LETTER O WITH INVERTED BREVE
ENCODING 526
SWIDTH 617 0
DWIDTH 9 0
BBX 7 14 1 0
BITMAP
38
44
44
00
38
44
82
82
82
82
82
82
44
38
ENDCHAR
STARTCHAR LATIN SMALL LETTER O WITH INVERTED BREVE
ENCODING 527
SWIDTH 617 0
DWIDTH 9 0
BBX 7 12 1 0
BITMAP
38
44
44
00
38
44
82
82
82
82
44
38
ENDCHAR
STARTCHAR LATIN CAPITAL LETTER R WITH DOUBLE GRAVE
ENCODING 528
SWIDTH 548 0
DWIDTH 8 0
BBX 6 14 1 0
BITMAP
48
24
00
00
F8
84
84
84
F8
90
88
88
84
84
ENDCHAR
STARTCHAR LATIN SMALL LETTER R WITH DOUBLE GRAVE
ENCODING 529
SWIDTH 548 0
DWIDTH 8 0
BBX 6 12 1 0
BITMAP
88
44
00
00
B8
C4
84
80
80
80
80
80
ENDCHAR
STARTCHAR LATIN CAPITAL LETTER R WITH INVERTED BREVE
ENCODING 530
SWIDTH 548 0
DWIDTH 8 0
BBX 6 14 1 0
BITMAP
88
88
70
00
F8
84
84
84
F8
90
88
88
84
84
ENDCHAR
STARTCHAR LATIN SMALL LETTER R WITH INVERTED BREVE
ENCODING 531
SWIDTH 548 0
DWIDTH 8 0
BBX 6 12 1 0
BITMAP
88
88
70
00
B8
C4
84
80
80
80
80
80
ENDCHAR
STARTCHAR LATIN CAPITAL LETTER U WITH DOUBLE GRAVE
ENCODING 532
SWIDTH 548 0
DWIDTH 8 0
BBX 6 14 1 0
BITMAP
90
48
00
00
84
84
84
84
84
84
84
84
84
78
ENDCHAR
STARTCHAR LATIN SMALL LETTER U WITH DOUBLE GRAVE
ENCODING 533
SWIDTH 548 0
DWIDTH 8 0
BBX 6 12 1 0
BITMAP
90
48
00
00
84
84
84
84
84
84
8C
74
ENDCHAR
STARTCHAR LATIN CAPITAL LETTER U WITH INVERTED BREVE
ENCODING 534
SWIDTH 548 0
DWIDTH 8 0
BBX 6 14 2 0
BITMAP
70
88
88
00
84
84
84
84
84
84
84
84
84
78
ENDCHAR
STARTCHAR LATIN SMALL LETTER U WITH INVERTED BREVE
ENCODING 535
SWIDTH 548 0
DWIDTH 8 0
BBX 6 12 1 0
BITMAP
70
88
88
00
84
84
84
84
84
84
8C
74
ENDCHAR
STARTCHAR LATIN CAPITAL LETTER S WITH COMMA BELOW
ENCODING 536
SWIDTH 548 0
DWIDTH 8 0
BBX 6 13 1 -3
BITMAP
78
84
80
80
60
18
04
84
84
78
30
10
20
ENDCHAR
STARTCHAR LATIN SMALL LETTER S WITH COMMA BELOW
ENCODING 537
SWIDTH 548 0
DWIDTH 8 0
BBX 6 11 1 -3
BITMAP
78
84
80
60
18
04
84
78
30
10
20
ENDCHAR
STARTCHAR LATIN CAPITAL LETTER T WITH COMMA BELOW
ENCODING 538
SWIDTH 617 0
DWIDTH 9 0
BBX 7 13 1 -3
BITMAP
FE
10
10
10
10
10
10
10
10
10
18
08
10
ENDCHAR
STARTCHAR LATIN SMALL LETTER T WITH COMMA BELOW
ENCODING 539
SWIDTH 480 0
DWIDTH 7 0
BBX 5 13 1 -3
BITMAP
20
20
F8
20
20
20
20
20
20
18
30
10
20
ENDCHAR
STARTCHAR LATIN CAPITAL LETTER YOGH
ENCODING 540
SWIDTH 548 0
DWIDTH 8 0
BBX 6 13 1 -3
BITMAP
78
84
04
04
08
30
48
04
04
04
08
30
C0
ENDCHAR
STARTCHAR LATIN SMALL LETTER YOGH
ENCODING 541
SWIDTH 548 0
DWIDTH 8 0
BBX 6 11 1 -3
BITMAP
38
44
84
04
18
68
04
04
08
30
C0
ENDCHAR
STARTCHAR LATIN CAPITAL LETTER H WITH CARON
ENCODING 542
SWIDTH 548 0
DWIDTH 8 0
BBX 6 14 1 0
BITMAP
88
50
20
00
84
84
84
84
FC
84
84
84
84
84
ENDCHAR
STARTCHAR LATIN SMALL LETTER H WITH CARON
ENCODING 543
SWIDTH 548 0
DWIDTH 8 0
BBX 6 15 1 0
BITMAP
88
50
20
00
80
80
80
B8
C4
84
84
84
84
84
84
ENDCHAR
STARTCHAR LATIN CAPITAL LETTER OU
ENCODING 546
SWIDTH 617 0
DWIDTH 9 0
BBX 7 10 1 0
BITMAP
6C
82
82
82
7C
82
82
82
82
7C
ENDCHAR
STARTCHAR LATIN SMALL LETTER OU
ENCODING 547
SWIDTH 548 0
DWIDTH 8 0
BBX 6 10 1 0
BITMAP
48
84
84
84
78
84
84
84
84
78
ENDCHAR
STARTCHAR LATIN CAPITAL LETTER Z WITH HOOK
ENCODING 548
SWIDTH 548 0
DWIDTH 8 0
BBX 6 13 1 -3
BITMAP
FC
04
04
08
10
20
40
80
80
FC
04
04
08
ENDCHAR
STARTCHAR LATIN SMALL LETTER Z WITH HOOK
ENCODING 549
SWIDTH 960 0
DWIDTH 14 0
BBX 6 11 1 -3
BITMAP
FC
04
08
10
20
40
80
FC
04
04
08
ENDCHAR
STARTCHAR LATIN CAPITAL LETTER A WITH DOT ABOVE
ENCODING 550
SWIDTH 617 0
DWIDTH 9 0
BBX 7 14 1 0
BITMAP
10
10
00
00
10
10
28
28
44
44
7C
82
82
82
ENDCHAR
STARTCHAR LATIN SMALL LETTER A WITH DOT ABOVE
ENCODING 551
SWIDTH 548 0
DWIDTH 8 0
BBX 6 12 1 0
BITMAP
10
10
00
00
78
84
04
7C
84
84
8C
74
ENDCHAR
STARTCHAR LATIN CAPITAL LETTER E WITH CEDILLA
ENCODING 552
SWIDTH 548 0
DWIDTH 8 0
BBX 6 13 1 -3
BITMAP
FC
80
80
80
F8
80
80
80
80
FC
20
10
70
ENDCHAR
STARTCHAR LATIN SMALL LETTER E WITH CEDILLA
ENCODING 553
SWIDTH 548 0
DWIDTH 8 0
BBX 6 11 2 -3
BITMAP
78
84
84
FC
80
80
84
78
20
10
70
ENDCHAR
STARTCHAR LATIN CAPITAL LETTER O WITH DIAERESIS AND MACRON
ENCODING 554
SWIDTH 617 0
DWIDTH 9 0
BBX 7 15 1 0
BITMAP
7C
00
44
44
00
38
44
82
82
82
82
82
82
44
38
ENDCHAR
STARTCHAR LATIN SMALL LETTER O WITH DIAERESIS AND MACRON
ENCODING 555
SWIDTH 617 0
DWIDTH 9 0
BBX 7 13 1 0
BITMAP
7C
00
44
44
00
38
44
82
82
82
82
44
38
ENDCHAR
STARTCHAR LATIN CAPITAL LETTER O WITH TILDE AND MACRON
ENCODING 556
SWIDTH 617 0
DWIDTH 9 0
BBX 7 15 1 0
BITMAP
7C
00
72
8C
00
38
44
82
82
82
82
82
82
44
38
ENDCHAR
STARTCHAR LATIN SMALL LETTER O WITH TILDE AND MACRON
ENCODING 557
SWIDTH 617 0
DWIDTH 9 0
BBX 7 13 1 0
BITMAP
7C
00
72
8C
00
38
44
82
82
82
82
44
38
ENDCHAR
STARTCHAR LATIN CAPITAL LETTER O WITH DOT ABOVE
ENCODING 558
SWIDTH 617 0
DWIDTH 9 0
BBX 7 14 1 0
BITMAP
10
10
00
00
38
44
82
82
82
82
82
82
44
38
ENDCHAR
STARTCHAR LATIN SMALL LETTER O WITH DOT ABOVE
ENCODING 559
SWIDTH 617 0
DWIDTH 9 0
BBX 7 12 1 0
BITMAP
10
10
00
00
38
44
82
82
82
82
44
38
ENDCHAR
STARTCHAR LATIN CAPITAL LETTER O WITH DOT ABOVE AND MACRON
ENCODING 560
SWIDTH 617 0
DWIDTH 9 0
BBX 7 15 1 0
BITMAP
7C
00
10
10
00
38
44
82
82
82
82
82
82
44
38
ENDCHAR
STARTCHAR LATIN SMALL LETTER O WITH DOT ABOVE AND MACRON
ENCODING 561
SWIDTH 617 0
DWIDTH 9 0
BBX 7 13 1 0
BITMAP
7C
00
10
10
00
38
44
82
82
82
82
44
38
ENDCHAR
STARTCHAR LATIN CAPITAL LETTER Y WITH MACRON
ENCODING 562
SWIDTH 617 0
DWIDTH 9 0
BBX 7 13 1 0
BITMAP
7C
00
00
82
82
44
44
28
10
10
10
10
10
ENDCHAR
STARTCHAR LATIN SMALL LETTER Y WITH MACRON
ENCODING 563
SWIDTH 617 0
DWIDTH 9 0
BBX 7 14 1 -3
BITMAP
7C
00
00
82
82
44
44
28
28
10
10
20
20
40
ENDCHAR
STARTCHAR LATIN SMALL LETTER TURNED A
ENCODING 592
SWIDTH 548 0
DWIDTH 8 0
BBX 6 8 1 0
BITMAP
B8
C4
84
84
F8
80
84
78
ENDCHAR
STARTCHAR LATIN SMALL LETTER ALPHA
ENCODING 593
SWIDTH 548 0
DWIDTH 8 0
BBX 6 8 1 0
BITMAP
74
8C
84
84
84
84
8C
74
ENDCHAR
STARTCHAR LATIN SMALL LETTER TURNED ALPHA
ENCODING 594
SWIDTH 548 0
DWIDTH 8 0
BBX 6 8 1 0
BITMAP
B8
C4
84
84
84
84
C4
B8
ENDCHAR
STARTCHAR LATIN SMALL LETTER B WITH HOOK
ENCODING 595
SWIDTH 548 0
DWIDTH 8 0
BBX 6 12 1 0
BITMAP
70
88
80
80
B8
C4
84
84
84
84
C4
B8
ENDCHAR
STARTCHAR LATIN SMALL LETTER OPEN O
ENCODING 596
SWIDTH 548 0
DWIDTH 8 0
BBX 6 8 1 0
BITMAP
78
84
04
04
04
04
84
78
ENDCHAR
STARTCHAR LATIN SMALL LETTER C WITH CURL
ENCODING 597
SWIDTH 548 0
DWIDTH 8 0
BBX 6 9 1 -1
BITMAP
78
84
80
80
80
9C
A4
78
80
ENDCHAR
STARTCHAR LATIN SMALL LETTER D WITH TAIL
ENCODING 598
SWIDTH 685 0
DWIDTH 10 0
BBX 8 14 1 -3
BITMAP
04
04
04
74
8C
84
84
84
84
8C
74
04
04
03
ENDCHAR
STARTCHAR LATIN SMALL LETTER D WITH HOOK
ENCODING 599
SWIDTH 685 0
DWIDTH 10 0
BBX 8 12 1 0
BITMAP
03
04
04
04
74
8C
84
84
84
84
8C
74
ENDCHAR
STARTCHAR LATIN SMALL LETTER REVERSED E
ENCODING 600
SWIDTH 548 0
DWIDTH 8 0
BBX 6 8 1 0
BITMAP
78
84
84
FC
04
04
84
78
ENDCHAR
STARTCHAR LATIN SMALL LETTER SCHWA
ENCODING 601
SWIDTH 548 0
DWIDTH 8 0
BBX 6 8 1 0
BITMAP
78
84
04
04
FC
84
84
78
ENDCHAR
STARTCHAR LATIN SMALL LETTER SCHWA WITH HOOK
ENCODING 602
SWIDTH 754 0
DWIDTH 11 0
BBX 9 8 1 0
BITMAP
7900
8500
0700
1C80
E400
8400
8400
7800
ENDCHAR
STARTCHAR LATIN SMALL LETTER OPEN E
ENCODING 603
SWIDTH 548 0
DWIDTH 8 0
BBX 6 8 1 0
BITMAP
78
84
80
78
80
80
84
78
ENDCHAR
STARTCHAR LATIN SMALL LETTER REVERSED OPEN E
ENCODING 604
SWIDTH 548 0
DWIDTH 8 0
BBX 6 8 1 0
BITMAP
78
84
04
78
04
04
84
78
ENDCHAR
STARTCHAR LATIN SMALL LETTER REVERSED OPEN E WITH HOOK
ENCODING 605
SWIDTH 754 0
DWIDTH 11 0
BBX 9 9 1 0
BITMAP
0100
7900
8700
0480
3800
0400
0400
8400
7800
ENDCHAR
STARTCHAR LATIN SMALL LETTER CLOSED REVERSED OPEN E
ENCODING 606
SWIDTH 548 0
DWIDTH 8 0
BBX 6 8 1 0
BITMAP
38
44
84
98
84
84
44
38
ENDCHAR
STARTCHAR LATIN SMALL LETTER DOTLESS J WITH STROKE
ENCODING 607
SWIDTH 480 0
DWIDTH 7 0
BBX 5 11 1 -3
BITMAP
20
20
20
20
20
20
F8
20
20
20
C0
ENDCHAR
STARTCHAR LATIN SMALL LETTER G WITH HOOK
ENCODING 608
SWIDTH 685 0
DWIDTH 10 0
BBX 8 13 1 -3
BITMAP
03
04
34
4C
84
84
84
84
4C
34
04
08
70
ENDCHAR
STARTCHAR LATIN SMALL LETTER SCRIPT G
ENCODING 609
SWIDTH 548 0
DWIDTH 8 0
BBX 6 11 1 -3
BITMAP
34
4C
84
84
84
84
4C
34
04
08
70
ENDCHAR
STARTCHAR LATIN LETTER SMALL CAPITAL G
ENCODING 610
SWIDTH 617 0
DWIDTH 9 0
BBX 7 8 1 0
BITMAP
3C
42
80
80
8E
82
46
3A
ENDCHAR
STARTCHAR LATIN SMALL LETTER GAMMA
ENCODING 611
SWIDTH 617 0
DWIDTH 9 0
BBX 7 11 1 -3
BITMAP
82
82
44
44
28
28
10
10
28
28
10
ENDCHAR
STARTCHAR LATIN SMALL LETTER RAMS HORN
ENCODING 612
SWIDTH 754 0
DWIDTH 11 0
BBX 9 8 1 0
BITMAP
6300
9480
1400
0800
0800
1400
1400
0800
ENDCHAR
STARTCHAR LATIN SMALL LETTER TURNED H
ENCODING 613
SWIDTH 548 0
DWIDTH 8 0
BBX 6 11 1 -3
BITMAP
84
84
84
84
84
84
8C
74
04
04
04
ENDCHAR
STARTCHAR LATIN SMALL LETTER H WITH HOOK
ENCODING 614
SWIDTH 548 0
DWIDTH 8 0
BBX 6 12 1 0
BITMAP
70
88
80
80
B8
C4
84
84
84
84
84
84
ENDCHAR
STARTCHAR LATIN SMALL LETTER HENG WITH HOOK
ENCODING 615
SWIDTH 548 0
DWIDTH 8 0
BBX 6 15 1 -3
BITMAP
70
88
80
80
B8
C4
84
84
84
84
84
84
04
04
18
ENDCHAR
STARTCHAR LATIN SMALL LETTER I WITH STROKE
ENCODING 616
SWIDTH 480 0
DWIDTH 7 0
BBX 5 11 1 0
BITMAP
20
20
00
60
20
20
F8
20
20
20
F8
ENDCHAR
STARTCHAR LATIN SMALL LETTER IOTA
ENCODING 617
SWIDTH 411 0
DWIDTH 6 0
BBX 3 8 2 0
BITMAP
80
80
80
80
80
80
80
60
ENDCHAR
STARTCHAR LATIN LETTER SMALL CAPITAL I
ENCODING 618
SWIDTH 480 0
DWIDTH 7 0
BBX 5 8 1 0
BITMAP
F8
20
20
20
20
20
20
F8
ENDCHAR
STARTCHAR LATIN SMALL LETTER L WITH MIDDLE TILDE
ENCODING 619
SWIDTH 480 0
DWIDTH 7 0
BBX 5 10 1 0
BITMAP
60
20
20
20
68
B0
20
20
20
F8
ENDCHAR
STARTCHAR LATIN SMALL LETTER L WITH BELT
ENCODING 620
SWIDTH 480 0
DWIDTH 7 0
BBX 5 10 1 0
BITMAP
60
20
20
E0
A0
78
20
20
20
F8
ENDCHAR
STARTCHAR LATIN SMALL LETTER L WITH RETROFLEX HOOK
ENCODING 621
SWIDTH 411 0
DWIDTH 6 0
BBX 4 13 1 -3
BITMAP
C0
40
40
40
40
40
40
40
40
40
40
40
30
ENDCHAR
STARTCHAR LATIN SMALL LETTER LEZH
ENCODING 622
SWIDTH 617 0
DWIDTH 9 0
BBX 7 13 1 -3
BITMAP
C0
40
7E
42
44
48
5C
42
42
42
02
04
38
ENDCHAR
STARTCHAR LATIN SMALL LETTER TURNED M
ENCODING 623
SWIDTH 754 0
DWIDTH 11 0
BBX 9 8 1 0
BITMAP
8880
8880
8880
8880
8880
8880
9980
6680
ENDCHAR
STARTCHAR LATIN SMALL LETTER TURNED M WITH LONG LEG
ENCODING 624
SWIDTH 754 0
DWIDTH 11 0
BBX 9 11 1 -3
BITMAP
8880
8880
8880
8880
8880
8880
9980
6680
0080
0080
0080
ENDCHAR
STARTCHAR LATIN SMALL LETTER M WITH HOOK
ENCODING 625
SWIDTH 754 0
DWIDTH 11 0
BBX 9 11 1 -3
BITMAP
B300
CC80
8880
8880
8880
8880
8880
8880
0080
0080
0700
ENDCHAR
STARTCHAR LATIN SMALL LETTER N WITH LEFT HOOK
ENCODING 626
SWIDTH 685 0
DWIDTH 10 0
BBX 8 11 1 -3
BITMAP
2E
31
21
21
21
21
21
21
20
20
C0
ENDCHAR
STARTCHAR LATIN SMALL LETTER N WITH RETROFLEX HOOK
ENCODING 627
SWIDTH 685 0
DWIDTH 10 0
BBX 8 11 1 -3
BITMAP
B8
C4
84
84
84
84
84
84
04
04
03
ENDCHAR
STARTCHAR LATIN LETTER SMALL CAPITAL N
ENCODING 628
SWIDTH 617 0
DWIDTH 9 0
BBX 7 8 1 0
BITMAP
C2
C2
A2
92
92
8A
86
86
ENDCHAR
STARTCHAR LATIN SMALL LETTER BARRED O
ENCODING 629
SWIDTH 617 0
DWIDTH 9 0
BBX 7 8 1 0
BITMAP
38
44
82
FE
82
82
44
38
ENDCHAR
STARTCHAR LATIN LETTER SMALL CAPITAL OE
ENCODING 630
SWIDTH 754 0
DWIDTH 11 0
BBX 9 8 1 0
BITMAP
7F80
8800
8800
8F00
8800
8800
8800
7F80
ENDCHAR
STARTCHAR LATIN SMALL LETTER CLOSED OMEGA
ENCODING 631
SWIDTH 754 0
DWIDTH 11 0
BBX 9 8 1 0
BITMAP
3E00
4100
8080
8080
8880
8880
8880
7700
ENDCHAR
STARTCHAR LATIN SMALL LETTER PHI
ENCODING 632
SWIDTH 617 0
DWIDTH 9 0
BBX 7 13 1 -3
BITMAP
10
10
10
38
54
92
92
92
54
38
10
10
10
ENDCHAR
STARTCHAR LATIN SMALL LETTER TURNED R
ENCODING 633
SWIDTH 548 0
DWIDTH 8 0
BBX 6 8 1 0
BITMAP
04
04
04
04
04
84
8C
74
ENDCHAR
STARTCHAR LATIN SMALL LETTER TURNED R WITH LONG LEG
ENCODING 634
SWIDTH 548 0
DWIDTH 8 0
BBX 6 11 1 0
BITMAP
04
04
04
04
04
04
04
04
84
8C
74
ENDCHAR
STARTCHAR LATIN SMALL LETTER TURNED R WITH HOOK
ENCODING 635
SWIDTH 685 0
DWIDTH 10 0
BBX 8 11 1 -3
BITMAP
04
04
04
04
04
84
8C
74
04
04
03
ENDCHAR
STARTCHAR LATIN SMALL LETTER R WITH LONG LEG
ENCODING 636
SWIDTH 548 0
DWIDTH 8 0
BBX 6 11 1 -3
BITMAP
B8
C4
84
80
80
80
80
80
80
80
80
ENDCHAR
STARTCHAR LATIN SMALL LETTER R WITH TAIL
ENCODING 637
SWIDTH 548 0
DWIDTH 8 0
BBX 6 11 1 -3
BITMAP
B8
C4
84
80
80
80
80
80
80
80
70
ENDCHAR
STARTCHAR LATIN SMALL LETTER R WITH FISHHOOK
ENCODING 638
SWIDTH 548 0
DWIDTH 8 0
BBX 6 8 1 0
BITMAP
38
44
84
80
80
80
80
80
ENDCHAR
STARTCHAR LATIN SMALL LETTER REVERSED R WITH FISHHOOK
ENCODING 639
SWIDTH 548 0
DWIDTH 8 0
BBX 6 8 1 0
BITMAP
70
88
84
04
04
04
04
04
ENDCHAR
STARTCHAR LATIN LETTER SMALL CAPITAL R
ENCODING 640
SWIDTH 548 0
DWIDTH 8 0
BBX 6 8 1 0
BITMAP
F8
84
84
F8
90
88
84
84
ENDCHAR
STARTCHAR LATIN LETTER SMALL CAPITAL INVERTED R
ENCODING 641
SWIDTH 548 0
DWIDTH 8 0
BBX 6 8 1 0
BITMAP
84
84
88
90
F8
84
84
F8
ENDCHAR
STARTCHAR LATIN SMALL LETTER S WITH HOOK
ENCODING 642
SWIDTH 548 0
DWIDTH 8 0
BBX 6 11 1 -3
BITMAP
78
84
80
60
18
04
84
F8
80
80
70
ENDCHAR
STARTCHAR LATIN SMALL LETTER ESH
ENCODING 643
SWIDTH 480 0
DWIDTH 7 0
BBX 5 14 1 -3
BITMAP
18
20
20
20
20
20
20
20
20
20
20
20
20
C0
ENDCHAR
STARTCHAR LATIN SMALL LETTER DOTLESS J WITH STROKE AND HOOK
ENCODING 644
SWIDTH 480 0
DWIDTH 7 0
BBX 5 14 1 -3
BITMAP
18
20
20
20
20
20
20
20
20
F8
20
20
20
C0
ENDCHAR
STARTCHAR LATIN SMALL LETTER SQUAT REVERSED ESH
ENCODING 645
SWIDTH 480 0
DWIDTH 7 0
BBX 5 10 1 0
BITMAP
C0
20
20
20
20
20
20
20
20
18
ENDCHAR
STARTCHAR LATIN SMALL LETTER ESH WITH CURL
ENCODING 646
SWIDTH 548 0
DWIDTH 8 0
BBX 6 14 1 -3
BITMAP
0C
10
10
10
10
10
10
10
10
10
10
78
94
60
ENDCHAR
STARTCHAR LATIN SMALL LETTER TURNED T
ENCODING 647
SWIDTH 480 0
DWIDTH 7 0
BBX 5 10 1 0
BITMAP
C0
20
20
20
20
20
20
F8
20
20
ENDCHAR
STARTCHAR LATIN SMALL LETTER T WITH RETROFLEX HOOK
ENCODING 648
SWIDTH 480 0
DWIDTH 7 0
BBX 5 13 1 -3
BITMAP
20
20
F8
20
20
20
20
20
20
20
20
20
18
ENDCHAR
STARTCHAR LATIN SMALL LETTER U BAR
ENCODING 649
SWIDTH 685 0
DWIDTH 10 0
BBX 8 8 1 0
BITMAP
42
42
42
FF
42
42
46
3A
ENDCHAR
STARTCHAR LATIN SMALL LETTER UPSILON
ENCODING 650
SWIDTH 617 0
DWIDTH 9 0
BBX 7 8 1 0
BITMAP
EE
44
44
82
82
82
44
38
ENDCHAR
STARTCHAR LATIN SMALL LETTER V WITH HOOK
ENCODING 651
SWIDTH 617 0
DWIDTH 9 0
BBX 7 9 1 0
BITMAP
0C
82
82
82
82
84
84
88
70
ENDCHAR
STARTCHAR LATIN SMALL LETTER TURNED V
ENCODING 652
SWIDTH 617 0
DWIDTH 9 0
BBX 7 8 1 0
BITMAP
10
10
28
28
44
44
82
82
ENDCHAR
STARTCHAR LATIN SMALL LETTER TURNED W
ENCODING 653
SWIDTH 754 0
DWIDTH 11 0
BBX 9 8 1 0
BITMAP
2200
2200
5500
5500
4900
8880
8880
8080
ENDCHAR
STARTCHAR LATIN SMALL LETTER TURNED Y
ENCODING 654
SWIDTH 617 0
DWIDTH 9 0
BBX 7 11 1 0
BITMAP
04
08
08
10
10
28
28
44
44
82
82
ENDCHAR
STARTCHAR LATIN LETTER SMALL CAPITAL Y
ENCODING 655
SWIDTH 617 0
DWIDTH 9 0
BBX 7 8 1 0
BITMAP
82
82
44
28
10
10
10
10
ENDCHAR
STARTCHAR LATIN SMALL LETTER Z WITH RETROFLEX HOOK
ENCODING 656
SWIDTH 685 0
DWIDTH 10 0
BBX 8 9 1 -1
BITMAP
FC
04
08
10
20
42
82
FE
01
ENDCHAR
STARTCHAR LATIN SMALL LETTER Z WITH CURL
ENCODING 657
SWIDTH 617 0
DWIDTH 9 0
BBX 7 9 1 -1
BITMAP
FC
04
08
10
20
46
8A
FC
10
ENDCHAR
STARTCHAR LATIN SMALL LETTER EZH
ENCODING 658
SWIDTH 548 0
DWIDTH 8 0
BBX 6 11 1 -3
BITMAP
FC
08
10
20
70
08
04
04
04
08
70
ENDCHAR
STARTCHAR LATIN SMALL LETTER EZH WITH CURL
ENCODING 659
SWIDTH 548 0
DWIDTH 8 0
BBX 6 11 1 -3
BITMAP
FC
08
10
20
70
08
04
04
64
98
74
ENDCHAR
STARTCHAR LATIN LETTER GLOTTAL STOP
ENCODING 660
SWIDTH 480 0
DWIDTH 7 0
BBX 5 10 1 0
BITMAP
70
88
08
08
30
20
20
20
20
70
ENDCHAR
STARTCHAR LATIN LETTER PHARYNGEAL VOICED FRICATIVE
ENCODING 661
SWIDTH 480 0
DWIDTH 7 0
BBX 5 10 1 0
BITMAP
70
88
80
80
60
20
20
20
20
70
ENDCHAR
STARTCHAR LATIN LETTER INVERTED GLOTTAL STOP
ENCODING 662
SWIDTH 480 0
DWIDTH 7 0
BBX 5 10 1 0
BITMAP
70
20
20
20
20
30
08
08
88
70
ENDCHAR
STARTCHAR LATIN LETTER STRETCHED C
ENCODING 663
SWIDTH 548 0
DWIDTH 8 0
BBX 6 11 1 -3
BITMAP
78
84
80
80
80
80
80
80
80
84
78
ENDCHAR
STARTCHAR LATIN LETTER BILABIAL CLICK
ENCODING 664
SWIDTH 617 0
DWIDTH 9 0
BBX 7 10 1 0
BITMAP
38
44
82
82
92
92
82
82
44
38
ENDCHAR
STARTCHAR LATIN LETTER SMALL CAPITAL B
ENCODING 665
SWIDTH 548 0
DWIDTH 8 0
BBX 6 8 1 0
BITMAP
F8
84
84
F8
84
84
84
F8
ENDCHAR
STARTCHAR LATIN SMALL LETTER CLOSED OPEN E
ENCODING 666
SWIDTH 617 0
DWIDTH 9 0
BBX 7 8 1 0
BITMAP
78
84
82
62
82
82
84
78
ENDCHAR
STARTCHAR LATIN LETTER SMALL CAPITAL G WITH HOOK
ENCODING 667
SWIDTH 685 0
DWIDTH 10 0
BBX 8 10 1 0
BITMAP
03
04
7C
84
80
80
9C
84
8C
74
ENDCHAR
STARTCHAR LATIN LETTER SMALL CAPITAL H
ENCODING 668
SWIDTH 548 0
DWIDTH 8 0
BBX 6 8 1 0
BITMAP
84
84
84
FC
84
84
84
84
ENDCHAR
STARTCHAR LATIN SMALL LETTER J WITH CROSSED-TAIL
ENCODING 669
SWIDTH 617 0
DWIDTH 9 0
BBX 6 13 1 -2
BITMAP
08
08
00
18
08
08
08
08
08
08
7C
90
E0
ENDCHAR
STARTCHAR LATIN SMALL LETTER TURNED K
ENCODING 670
SWIDTH 548 0
DWIDTH 8 0
BBX 6 10 1 -3
BITMAP
84
88
90
E0
A0
90
88
80
80
80
ENDCHAR
STARTCHAR LATIN LETTER SMALL CAPITAL L
ENCODING 671
SWIDTH 548 0
DWIDTH 8 0
BBX 6 8 1 0
BITMAP
80
80
80
80
80
80
80
FC
ENDCHAR
STARTCHAR LATIN SMALL LETTER Q WITH HOOK
ENCODING 672
SWIDTH 685 0
DWIDTH 10 0
BBX 8 13 1 -3
BITMAP
03
04
74
8C
84
84
84
84
8C
74
04
04
04
ENDCHAR
STARTCHAR LATIN LETTER GLOTTAL STOP WITH STROKE
ENCODING 673
SWIDTH 480 0
DWIDTH 7 0
BBX 5 10 1 0
BITMAP
70
88
08
08
30
20
F8
20
20
70
ENDCHAR
STARTCHAR LATIN LETTER REVERSED GLOTTAL STOP WITH STROKE
ENCODING 674
SWIDTH 480 0
DWIDTH 7 0
BBX 5 10 1 0
BITMAP
70
88
80
80
60
20
F8
20
20
70
ENDCHAR
STARTCHAR LATIN SMALL LETTER DZ DIGRAPH
ENCODING 675
SWIDTH 891 0
DWIDTH 13 0
BBX 11 11 1 0
BITMAP
0400
0400
0400
77E0
8C20
8440
8480
8480
8500
8E00
77E0
ENDCHAR
STARTCHAR LATIN SMALL LETTER DEZH DIGRAPH
ENCODING 676
SWIDTH 891 0
DWIDTH 13 0
BBX 11 14 1 -3
BITMAP
0400
0400
0400
77E0
8C20
8440
8480
85C0
8420
8C20
7420
0020
0040
0380
ENDCHAR
STARTCHAR LATIN SMALL LETTER DZ DIGRAPH WITH CURL
ENCODING 677
SWIDTH 960 0
DWIDTH 14 0
BBX 12 12 1 -1
BITMAP
0400
0400
0400
77E0
8C20
8440
8480
8480
8530
8E50
77E0
0080
ENDCHAR
STARTCHAR LATIN SMALL LETTER TS DIGRAPH
ENCODING 678
SWIDTH 891 0
DWIDTH 13 0
BBX 11 10 1 0
BITMAP
2000
2000
FBC0
2420
2400
2300
20C0
2020
2420
1BC0
ENDCHAR
STARTCHAR LATIN SMALL LETTER TESH DIGRAPH
ENCODING 679
SWIDTH 685 0
DWIDTH 10 0
BBX 8 14 1 -3
BITMAP
03
24
24
FC
24
24
24
24
24
24
1C
04
04
18
ENDCHAR
STARTCHAR LATIN SMALL LETTER TC DIGRAPH WITH CURL
ENCODING 680
SWIDTH 891 0
DWIDTH 13 0
BBX 11 10 1 0
BITMAP
2000
2000
F9C0
2220
2400
2400
2400
24E0
2720
19C0
ENDCHAR
STARTCHAR LATIN SMALL LETTER FENG DIGRAPH
ENCODING 681
SWIDTH 891 0
DWIDTH 13 0
BBX 11 14 1 -3
BITMAP
1800
2000
2000
25C0
FE20
2420
2420
2420
2420
2420
2420
0020
0020
00C0
ENDCHAR
STARTCHAR LATIN SMALL LETTER LS DIGRAPH
ENCODING 682
SWIDTH 822 0
DWIDTH 12 0
BBX 10 10 1 0
BITMAP
6000
2000
2780
2840
2800
2600
2180
2040
2840
FF80
ENDCHAR
STARTCHAR LATIN SMALL LETTER LZ DIGRAPH
ENCODING 683
SWIDTH 754 0
DWIDTH 11 0
BBX 9 10 1 0
BITMAP
6000
2000
2F80
2080
2100
2200
2200
2400
2800
FF80
ENDCHAR
STARTCHAR LATIN LETTER BILABIAL PERCUSSIVE
ENCODING 684
SWIDTH 754 0
DWIDTH 11 0
BBX 9 10 1 0
BITMAP
8880
8880
5500
5500
2200
8880
8880
5500
5500
2200
ENDCHAR
STARTCHAR LATIN LETTER BIDENTAL PERCUSSIVE
ENCODING 685
SWIDTH 617 0
DWIDTH 9 0
BBX 7 10 1 0
BITMAP
FE
82
82
82
00
00
FE
82
82
82
ENDCHAR
STARTCHAR MODIFIER LETTER SMALL H
ENCODING 688
SWIDTH 548 0
DWIDTH 8 0
BBX 0 0 0 0
BITMAP
ENDCHAR
STARTCHAR MODIFIER LETTER SMALL H WITH HOOK
ENCODING 689
SWIDTH 548 0
DWIDTH 8 0
BBX 0 0 0 0
BITMAP
ENDCHAR
STARTCHAR MODIFIER LETTER SMALL J
ENCODING 690
SWIDTH 548 0
DWIDTH 8 0
BBX 0 0 0 0
BITMAP
ENDCHAR
STARTCHAR MODIFIER LETTER SMALL R
ENCODING 691
SWIDTH 548 0
DWIDTH 8 0
BBX 0 0 0 0
BITMAP
ENDCHAR
STARTCHAR MODIFIER LETTER SMALL TURNED R
ENCODING 692
SWIDTH 548 0
DWIDTH 8 0
BBX 0 0 0 0
BITMAP
ENDCHAR
STARTCHAR MODIFIER LETTER SMALL TURNED R WITH HOOK
ENCODING 693
SWIDTH 548 0
DWIDTH 8 0
BBX 0 0 0 0
BITMAP
ENDCHAR
STARTCHAR MODIFIER LETTER SMALL CAPITAL INVERTED R
ENCODING 694
SWIDTH 548 0
DWIDTH 8 0
BBX 0 0 0 0
BITMAP
ENDCHAR
STARTCHAR MODIFIER LETTER SMALL W
ENCODING 695
SWIDTH 548 0
DWIDTH 8 0
BBX 0 0 0 0
BITMAP
ENDCHAR
STARTCHAR MODIFIER LETTER SMALL Y
ENCODING 696
SWIDTH 548 0
DWIDTH 8 0
BBX 0 0 0 0
BITMAP
ENDCHAR
STARTCHAR MODIFIER LETTER PRIME
ENCODING 697
SWIDTH 548 0
DWIDTH 8 0
BBX 0 0 0 0
BITMAP
ENDCHAR
STARTCHAR MODIFIER LETTER DOUBLE PRIME
ENCODING 698
SWIDTH 548 0
DWIDTH 8 0
BBX 0 0 0 0
BITMAP
ENDCHAR
STARTCHAR MODIFIER LETTER TURNED COMMA
ENCODING 699
SWIDTH 548 0
DWIDTH 8 0
BBX 0 0 0 0
BITMAP
ENDCHAR
STARTCHAR MODIFIER LETTER APOSTROPHE
ENCODING 700
SWIDTH 548 0
DWIDTH 8 0
BBX 0 0 0 0
BITMAP
ENDCHAR
STARTCHAR MODIFIER LETTER REVERSED COMMA
ENCODING 701
SWIDTH 548 0
DWIDTH 8 0
BBX 0 0 0 0
BITMAP
ENDCHAR
STARTCHAR MODIFIER LETTER RIGHT HALF RING
ENCODING 702
SWIDTH 548 0
DWIDTH 8 0
BBX 0 0 0 0
BITMAP
ENDCHAR
STARTCHAR MODIFIER LETTER LEFT HALF RING
ENCODING 703
SWIDTH 548 0
DWIDTH 8 0
BBX 0 0 0 0
BITMAP
ENDCHAR
STARTCHAR MODIFIER LETTER GLOTTAL STOP
ENCODING 704
SWIDTH 548 0
DWIDTH 8 0
BBX 0 0 0 0
BITMAP
ENDCHAR
STARTCHAR MODIFIER LETTER REVERSED GLOTTAL STOP
ENCODING 705
SWIDTH 548 0
DWIDTH 8 0
BBX 0 0 0 0
BITMAP
ENDCHAR
STARTCHAR MODIFIER LETTER LEFT ARROWHEAD
ENCODING 706
SWIDTH 548 0
DWIDTH 8 0
BBX 0 0 0 0
BITMAP
ENDCHAR
STARTCHAR MODIFIER LETTER RIGHT ARROWHEAD
ENCODING 707
SWIDTH 548 0
DWIDTH 8 0
BBX 0 0 0 0
BITMAP
ENDCHAR
STARTCHAR MODIFIER LETTER UP ARROWHEAD
ENCODING 708
SWIDTH 548 0
DWIDTH 8 0
BBX 0 0 0 0
BITMAP
ENDCHAR
STARTCHAR MODIFIER LETTER DOWN ARROWHEAD
ENCODING 709
SWIDTH 548 0
DWIDTH 8 0
BBX 0 0 0 0
BITMAP
ENDCHAR
STARTCHAR MODIFIER LETTER CIRCUMFLEX ACCENT
ENCODING 710
SWIDTH 480 0
DWIDTH 7 0
BBX 5 3 1 12
BITMAP
20
50
88
ENDCHAR
STARTCHAR CARON
ENCODING 711
SWIDTH 480 0
DWIDTH 7 0
BBX 5 3 1 12
BITMAP
88
50
20
ENDCHAR
STARTCHAR MODIFIER LETTER VERTICAL LINE
ENCODING 712
SWIDTH 205 0
DWIDTH 3 0
BBX 1 3 1 12
BITMAP
80
80
80
ENDCHAR
STARTCHAR MODIFIER LETTER MACRON
ENCODING 713
SWIDTH 480 0
DWIDTH 7 0
BBX 5 1 1 13
BITMAP
F8
ENDCHAR
STARTCHAR MODIFIER LETTER ACUTE ACCENT
ENCODING 714
SWIDTH 411 0
DWIDTH 6 0
BBX 4 2 1 13
BITMAP
30
C0
ENDCHAR
STARTCHAR MODIFIER LETTER GRAVE ACCENT
ENCODING 715
SWIDTH 411 0
DWIDTH 6 0
BBX 4 2 1 13
BITMAP
C0
30
ENDCHAR
STARTCHAR MODIFIER LETTER LOW VERTICAL LINE
ENCODING 716
SWIDTH 205 0
DWIDTH 3 0
BBX 1 3 1 -3
BITMAP
80
80
80
ENDCHAR
STARTCHAR MODIFIER LETTER LOW MACRON
ENCODING 717
SWIDTH 480 0
DWIDTH 7 0
BBX 5 1 1 -2
BITMAP
F8
ENDCHAR
STARTCHAR MODIFIER LETTER LOW GRAVE ACCENT
ENCODING 718
SWIDTH 411 0
DWIDTH 6 0
BBX 4 2 1 -3
BITMAP
C0
30
ENDCHAR
STARTCHAR MODIFIER LETTER LOW ACUTE ACCENT
ENCODING 719
SWIDTH 411 0
DWIDTH 6 0
BBX 4 2 1 -3
BITMAP
30
C0
ENDCHAR
STARTCHAR MODIFIER LETTER TRIANGULAR COLON
ENCODING 720
SWIDTH 342 0
DWIDTH 5 0
BBX 3 7 1 1
BITMAP
E0
40
00
00
00
40
E0
ENDCHAR
STARTCHAR MODIFIER LETTER HALF TRIANGULAR COLON
ENCODING 721
SWIDTH 548 0
DWIDTH 8 0
BBX 0 0 0 0
BITMAP
ENDCHAR
STARTCHAR MODIFIER LETTER CENTRED RIGHT HALF RING
ENCODING 722
SWIDTH 548 0
DWIDTH 8 0
BBX 0 0 0 0
BITMAP
ENDCHAR
STARTCHAR MODIFIER LETTER CENTRED LEFT HALF RING
ENCODING 723
SWIDTH 548 0
DWIDTH 8 0
BBX 0 0 0 0
BITMAP
ENDCHAR
STARTCHAR MODIFIER LETTER UP TACK
ENCODING 724
SWIDTH 548 0
DWIDTH 8 0
BBX 0 0 0 0
BITMAP
ENDCHAR
STARTCHAR MODIFIER LETTER DOWN TACK
ENCODING 725
SWIDTH 548 0
DWIDTH 8 0
BBX 0 0 0 0
BITMAP
ENDCHAR
STARTCHAR MODIFIER LETTER PLUS SIGN
ENCODING 726
SWIDTH 548 0
DWIDTH 8 0
BBX 0 0 0 0
BITMAP
ENDCHAR
STARTCHAR MODIFIER LETTER MINUS SIGN
ENCODING 727
SWIDTH 548 0
DWIDTH 8 0
BBX 0 0 0 0
BITMAP
ENDCHAR
STARTCHAR BREVE
ENCODING 728
SWIDTH 548 0
DWIDTH 8 0
BBX 0 0 0 0
BITMAP
ENDCHAR
STARTCHAR DOT ABOVE
ENCODING 729
SWIDTH 548 0
DWIDTH 8 0
BBX 0 0 0 0
BITMAP
ENDCHAR
STARTCHAR RING ABOVE
ENCODING 730
SWIDTH 548 0
DWIDTH 8 0
BBX 0 0 0 0
BITMAP
ENDCHAR
STARTCHAR OGONEK
ENCODING 731
SWIDTH 548 0
DWIDTH 8 0
BBX 0 0 0 0
BITMAP
ENDCHAR
STARTCHAR SMALL TILDE
ENCODING 732
SWIDTH 548 0
DWIDTH 8 0
BBX 0 0 0 0
BITMAP
ENDCHAR
STARTCHAR DOUBLE ACUTE ACCENT
ENCODING 733
SWIDTH 548 0
DWIDTH 8 0
BBX 0 0 0 0
BITMAP
ENDCHAR
STARTCHAR MODIFIER LETTER RHOTIC HOOK
ENCODING 734
SWIDTH 548 0
DWIDTH 8 0
BBX 0 0 0 0
BITMAP
ENDCHAR
STARTCHAR MODIFIER LETTER CROSS ACCENT
ENCODING 735
SWIDTH 548 0
DWIDTH 8 0
BBX 0 0 0 0
BITMAP
ENDCHAR
STARTCHAR MODIFIER LETTER SMALL GAMMA
ENCODING 736
SWIDTH 548 0
DWIDTH 8 0
BBX 0 0 0 0
BITMAP
ENDCHAR
STARTCHAR MODIFIER LETTER SMALL L
ENCODING 737
SWIDTH 548 0
DWIDTH 8 0
BBX 0 0 0 0
BITMAP
ENDCHAR
STARTCHAR MODIFIER LETTER SMALL S
ENCODING 738
SWIDTH 548 0
DWIDTH 8 0
BBX 0 0 0 0
BITMAP
ENDCHAR
STARTCHAR MODIFIER LETTER SMALL X
ENCODING 739
SWIDTH 548 0
DWIDTH 8 0
BBX 0 0 0 0
BITMAP
ENDCHAR
STARTCHAR MODIFIER LETTER SMALL REVERSED GLOTTAL STOP
ENCODING 740
SWIDTH 548 0
DWIDTH 8 0
BBX 0 0 0 0
BITMAP
ENDCHAR
STARTCHAR MODIFIER LETTER EXTRA-HIGH TONE BAR
ENCODING 741
SWIDTH 548 0
DWIDTH 8 0
BBX 0 0 0 0
BITMAP
ENDCHAR
STARTCHAR MODIFIER LETTER HIGH TONE BAR
ENCODING 742
SWIDTH 548 0
DWIDTH 8 0
BBX 0 0 0 0
BITMAP
ENDCHAR
STARTCHAR MODIFIER LETTER MID TONE BAR
ENCODING 743
SWIDTH 548 0
DWIDTH 8 0
BBX 0 0 0 0
BITMAP
ENDCHAR
STARTCHAR MODIFIER LETTER LOW TONE BAR
ENCODING 744
SWIDTH 548 0
DWIDTH 8 0
BBX 0 0 0 0
BITMAP
ENDCHAR
STARTCHAR MODIFIER LETTER EXTRA-LOW TONE BAR
ENCODING 745
SWIDTH 548 0
DWIDTH 8 0
BBX 0 0 0 0
BITMAP
ENDCHAR
STARTCHAR MODIFIER LETTER YIN DEPARTING TONE MARK
ENCODING 746
SWIDTH 548 0
DWIDTH 8 0
BBX 0 0 0 0
BITMAP
ENDCHAR
STARTCHAR MODIFIER LETTER YANG DEPARTING TONE MARK
ENCODING 747
SWIDTH 548 0
DWIDTH 8 0
BBX 0 0 0 0
BITMAP
ENDCHAR
STARTCHAR MODIFIER LETTER VOICING
ENCODING 748
SWIDTH 548 0
DWIDTH 8 0
BBX 0 0 0 0
BITMAP
ENDCHAR
STARTCHAR MODIFIER LETTER UNASPIRATED
ENCODING 749
SWIDTH 548 0
DWIDTH 8 0
BBX 0 0 0 0
BITMAP
ENDCHAR
STARTCHAR MODIFIER LETTER DOUBLE APOSTROPHE
ENCODING 750
SWIDTH 548 0
DWIDTH 8 0
BBX 0 0 0 0
BITMAP
ENDCHAR
STARTCHAR COMBINING GRAVE ACCENT
ENCODING 768
SWIDTH 274 0
DWIDTH 4 0
BBX 4 4 0 12
BITMAP
C0
30
00
00
ENDCHAR
STARTCHAR COMBINING ACUTE ACCENT
ENCODING 769
SWIDTH 274 0
DWIDTH 4 0
BBX 4 4 0 12
BITMAP
30
C0
00
00
ENDCHAR
STARTCHAR COMBINING CIRCUMFLEX ACCENT
ENCODING 770
SWIDTH 342 0
DWIDTH 5 0
BBX 5 4 0 12
BITMAP
20
50
88
00
ENDCHAR
STARTCHAR COMBINING TILDE
ENCODING 771
SWIDTH 480 0
DWIDTH 7 0
BBX 7 4 0 12
BITMAP
72
8C
00
00
ENDCHAR
STARTCHAR COMBINING MACRON
ENCODING 772
SWIDTH 342 0
DWIDTH 5 0
BBX 5 3 0 13
BITMAP
F8
00
00
ENDCHAR
STARTCHAR COMBINING OVERLINE
ENCODING 773
SWIDTH 480 0
DWIDTH 7 0
BBX 7 3 0 13
BITMAP
FE
00
00
ENDCHAR
STARTCHAR COMBINING BREVE
ENCODING 774
SWIDTH 342 0
DWIDTH 5 0
BBX 5 4 0 12
BITMAP
88
88
70
00
ENDCHAR
STARTCHAR COMBINING DOT ABOVE
ENCODING 775
SWIDTH 68 0
DWIDTH 1 0
BBX 1 4 0 12
BITMAP
80
80
00
00
ENDCHAR
STARTCHAR COMBINING DIARESIS
ENCODING 776
SWIDTH 342 0
DWIDTH 5 0
BBX 5 4 0 12
BITMAP
88
88
00
00
ENDCHAR
STARTCHAR COMBINING HOOK ABOVE
ENCODING 777
SWIDTH 137 0
DWIDTH 2 0
BBX 2 4 0 12
BITMAP
C0
40
80
00
ENDCHAR
STARTCHAR COMBINING RING ABOVE
ENCODING 778
SWIDTH 205 0
DWIDTH 3 0
BBX 3 4 0 12
BITMAP
40
A0
40
00
ENDCHAR
STARTCHAR COMBINING DOUBLE ACUTE ACCENT
ENCODING 779
SWIDTH 411 0
DWIDTH 6 0
BBX 6 4 0 12
BITMAP
44
88
00
00
ENDCHAR
STARTCHAR COMBINING CARON
ENCODING 780
SWIDTH 342 0
DWIDTH 5 0
BBX 5 4 0 12
BITMAP
88
50
20
00
ENDCHAR
STARTCHAR COMBINING VERTICAL LINE ABOVE
ENCODING 781
SWIDTH 68 0
DWIDTH 1 0
BBX 1 5 0 11
BITMAP
80
80
80
80
00
ENDCHAR
STARTCHAR COMBINING DOUBLE VERTICAL LINE ABOVE
ENCODING 782
SWIDTH 205 0
DWIDTH 3 0
BBX 3 5 0 11
BITMAP
A0
A0
A0
A0
00
ENDCHAR
STARTCHAR COMBINIING DOUBLE GRAVE ACCENT
ENCODING 783
SWIDTH 411 0
DWIDTH 6 0
BBX 6 4 0 12
BITMAP
88
44
00
00
ENDCHAR
STARTCHAR COMBINING CANDRABINDU
ENCODING 784
SWIDTH 480 0
DWIDTH 7 0
BBX 7 5 0 11
BITMAP
10
92
82
7C
00
ENDCHAR
STARTCHAR COMBINING INVERTED BREVE
ENCODING 785
SWIDTH 342 0
DWIDTH 5 0
BBX 5 4 0 12
BITMAP
70
88
88
00
ENDCHAR
STARTCHAR COMBINING TURNED COMMA ABOVE
ENCODING 786
SWIDTH 137 0
DWIDTH 2 0
BBX 2 4 0 12
BITMAP
40
80
C0
00
ENDCHAR
STARTCHAR COMBINING COMMA ABOVE
ENCODING 787
SWIDTH 137 0
DWIDTH 2 0
BBX 2 4 0 12
BITMAP
C0
40
80
00
ENDCHAR
STARTCHAR COMBINING REVERSED COMMA ABOVE
ENCODING 788
SWIDTH 137 0
DWIDTH 2 0
BBX 2 4 0 12
BITMAP
C0
80
40
00
ENDCHAR
STARTCHAR COMBINING COMMA ABOVE RIGHT
ENCODING 789
SWIDTH 342 0
DWIDTH 5 0
BBX 2 4 3 12
BITMAP
C0
40
80
00
ENDCHAR
STARTCHAR COMBINING GRAVE ACCENT BELOW
ENCODING 790
SWIDTH 274 0
DWIDTH 4 0
BBX 4 4 0 -3
BITMAP
00
00
C0
30
ENDCHAR
STARTCHAR COMBINING ACUTE ACCENT BELOW
ENCODING 791
SWIDTH 274 0
DWIDTH 4 0
BBX 4 4 0 -3
BITMAP
00
00
30
C0
ENDCHAR
STARTCHAR COMBINING LEFT TACK BELOW
ENCODING 792
SWIDTH 205 0
DWIDTH 3 0
BBX 3 4 0 -3
BITMAP
00
20
E0
20
ENDCHAR
STARTCHAR COMBINING RIGHT TACK BELOW
ENCODING 793
SWIDTH 205 0
DWIDTH 3 0
BBX 3 4 0 -3
BITMAP
00
80
E0
80
ENDCHAR
STARTCHAR COMBINING LEFT ANGLE ABOVE
ENCODING 794
SWIDTH 342 0
DWIDTH 5 0
BBX 5 4 0 12
BITMAP
F8
08
08
00
ENDCHAR
STARTCHAR COMBINING HORN
ENCODING 795
SWIDTH 342 0
DWIDTH 5 0
BBX 2 3 3 13
BITMAP
C0
40
80
ENDCHAR
STARTCHAR COMBINING LEFT HALF RING BELOW
ENCODING 796
SWIDTH 137 0
DWIDTH 2 0
BBX 2 3 0 -3
BITMAP
40
80
40
ENDCHAR
STARTCHAR COMBINING UP TACK BELOW
ENCODING 797
SWIDTH 205 0
DWIDTH 3 0
BBX 3 3 0 -3
BITMAP
40
40
E0
ENDCHAR
STARTCHAR COMBINING DOWN TACK BELOW
ENCODING 798
SWIDTH 205 0
DWIDTH 3 0
BBX 3 3 0 -3
BITMAP
E0
40
40
ENDCHAR
STARTCHAR COMBINING PLUS SIGN BELOW
ENCODING 799
SWIDTH 205 0
DWIDTH 3 0
BBX 3 3 0 -3
BITMAP
40
E0
40
ENDCHAR
STARTCHAR COMBINING MINUS SIGN BELOW
ENCODING 800
SWIDTH 205 0
DWIDTH 3 0
BBX 3 1 0 -3
BITMAP
E0
ENDCHAR
STARTCHAR COMBINING PALATALIZED HOOK BELOW
ENCODING 801
SWIDTH 342 0
DWIDTH 5 0
BBX 3 4 2 -3
BITMAP
20
20
20
C0
ENDCHAR
STARTCHAR COMBINING RETROFLEX HOOK BELOW
ENCODING 802
SWIDTH 480 0
DWIDTH 7 0
BBX 7 4 0 -3
BITMAP
08
08
08
06
ENDCHAR
STARTCHAR COMBINING DOT BELOW
ENCODING 803
SWIDTH 68 0
DWIDTH 1 0
BBX 1 2 0 -3
BITMAP
80
80
ENDCHAR
STARTCHAR COMBINING DIAERESIS BELOW
ENCODING 804
SWIDTH 342 0
DWIDTH 5 0
BBX 5 2 0 -3
BITMAP
88
88
ENDCHAR
STARTCHAR COMBINING RING BELOW
ENCODING 805
SWIDTH 205 0
DWIDTH 3 0
BBX 3 3 0 -3
BITMAP
40
A0
40
ENDCHAR
STARTCHAR COMBINING COMMA BELOW
ENCODING 806
SWIDTH 137 0
DWIDTH 2 0
BBX 2 3 0 -3
BITMAP
C0
40
80
ENDCHAR
STARTCHAR COMBINING CEDILLA
ENCODING 807
SWIDTH 205 0
DWIDTH 3 0
BBX 3 3 0 -3
BITMAP
40
20
E0
ENDCHAR
STARTCHAR COMBINING OGONEK
ENCODING 808
SWIDTH 205 0
DWIDTH 3 0
BBX 3 3 0 -3
BITMAP
40
80
E0
ENDCHAR
STARTCHAR COMBINING VERTICAL LINE BELOW
ENCODING 809
SWIDTH 68 0
DWIDTH 1 0
BBX 1 4 0 -3
BITMAP
80
80
80
80
ENDCHAR
STARTCHAR COMBINING BRIDGE BELOW
ENCODING 810
SWIDTH 342 0
DWIDTH 5 0
BBX 5 2 0 -3
BITMAP
F8
88
ENDCHAR
STARTCHAR COMBINING INVERTED DOUBLE ARCH BELOW
ENCODING 811
SWIDTH 342 0
DWIDTH 5 0
BBX 5 3 0 -3
BITMAP
A8
A8
50
ENDCHAR
STARTCHAR COMBINING CARON BELOW
ENCODING 812
SWIDTH 342 0
DWIDTH 5 0
BBX 5 3 0 -3
BITMAP
88
50
20
ENDCHAR
STARTCHAR COMBINING CIRCUMFLEX ACCENT BELOW
ENCODING 813
SWIDTH 342 0
DWIDTH 5 0
BBX 5 3 0 -3
BITMAP
20
50
88
ENDCHAR
STARTCHAR COMBINING BREVE BELOW
ENCODING 814
SWIDTH 342 0
DWIDTH 5 0
BBX 5 3 0 -3
BITMAP
88
88
70
ENDCHAR
STARTCHAR COMBINING INVERTED BREVE BELOW
ENCODING 815
SWIDTH 342 0
DWIDTH 5 0
BBX 5 3 0 -3
BITMAP
70
88
88
ENDCHAR
STARTCHAR COMBINING TILDE BELOW
ENCODING 816
SWIDTH 480 0
DWIDTH 7 0
BBX 7 2 0 -3
BITMAP
72
8C
ENDCHAR
STARTCHAR COMBINING MACRON BELOW
ENCODING 817
SWIDTH 342 0
DWIDTH 5 0
BBX 5 1 0 -3
BITMAP
F8
ENDCHAR
STARTCHAR COMBINING LOW LINE
ENCODING 818
SWIDTH 480 0
DWIDTH 7 0
BBX 7 1 0 -3
BITMAP
FE
ENDCHAR
STARTCHAR COMBINING DOUBLE LOW LINE
ENCODING 819
SWIDTH 480 0
DWIDTH 7 0
BBX 7 3 0 -3
BITMAP
FE
00
FE
ENDCHAR
STARTCHAR COMBINING TILDE OVERLAY
ENCODING 820
SWIDTH 480 0
DWIDTH 7 0
BBX 7 2 0 5
BITMAP
72
8C
ENDCHAR
STARTCHAR COMBINING SHORT STROKE OVERLAY
ENCODING 821
SWIDTH 342 0
DWIDTH 5 0
BBX 5 1 0 5
BITMAP
F8
ENDCHAR
STARTCHAR COMBINING LONG STROKE OVERLAY
ENCODING 822
SWIDTH 480 0
DWIDTH 7 0
BBX 7 1 0 5
BITMAP
FE
ENDCHAR
STARTCHAR COMBINING SHORT SOLIDUS OVERLAY
ENCODING 823
SWIDTH 342 0
DWIDTH 5 0
BBX 5 5 0 2
BITMAP
08
10
20
40
80
ENDCHAR
STARTCHAR COMBINING LONG SOLIDUS OVERLAY
ENCODING 824
SWIDTH 480 0
DWIDTH 7 0
BBX 7 10 0 0
BITMAP
02
04
08
08
10
10
20
20
40
80
ENDCHAR
STARTCHAR COMBINING RIGHT HALF RING BELOW
ENCODING 825
SWIDTH 137 0
DWIDTH 2 0
BBX 2 3 0 -3
BITMAP
80
40
80
ENDCHAR
STARTCHAR COMBINING INVERTED BRIDGE BELOW
ENCODING 826
SWIDTH 342 0
DWIDTH 5 0
BBX 5 2 0 -3
BITMAP
88
F8
ENDCHAR
STARTCHAR COMBINING SQUARE BELOW
ENCODING 827
SWIDTH 205 0
DWIDTH 3 0
BBX 3 3 0 -3
BITMAP
E0
A0
E0
ENDCHAR
STARTCHAR COMBINING SEAGULL BELOW
ENCODING 828
SWIDTH 342 0
DWIDTH 5 0
BBX 5 3 0 -3
BITMAP
50
A8
A8
ENDCHAR
STARTCHAR COMBINING X ABOVE
ENCODING 829
SWIDTH 205 0
DWIDTH 3 0
BBX 3 3 0 13
BITMAP
A0
40
A0
ENDCHAR
STARTCHAR COMBINING VERTICAL TILDE
ENCODING 830
SWIDTH 137 0
DWIDTH 2 0
BBX 2 6 0 10
BITMAP
40
80
80
40
40
80
ENDCHAR
STARTCHAR COMBINING DOUBLE OVERLINE
ENCODING 831
SWIDTH 480 0
DWIDTH 7 0
BBX 7 3 0 13
BITMAP
FE
00
FE
ENDCHAR
STARTCHAR COMBINING GRAVE TONE MARK
ENCODING 832
SWIDTH 205 0
DWIDTH 3 0
BBX 3 3 0 13
BITMAP
80
40
20
ENDCHAR
STARTCHAR COMBINING ACUTE TONE MARK
ENCODING 833
SWIDTH 480 0
DWIDTH 7 0
BBX 3 3 4 13
BITMAP
20
40
80
ENDCHAR
STARTCHAR COMBINING GREEK PERISPOMENI
ENCODING 834
SWIDTH 411 0
DWIDTH 6 0
BBX 6 2 0 14
BITMAP
64
98
ENDCHAR
STARTCHAR COMBINING GREEK KORONIS
ENCODING 835
SWIDTH 137 0
DWIDTH 2 0
BBX 2 3 0 13
BITMAP
C0
40
80
ENDCHAR
STARTCHAR COMBINING GREEK DIALYTIKA TONOS
ENCODING 836
SWIDTH 342 0
DWIDTH 5 0
BBX 5 5 0 11
BITMAP
10
10
20
88
88
ENDCHAR
STARTCHAR COMBINING GREEK YPOGEGRAMMENI
ENCODING 837
SWIDTH 137 0
DWIDTH 2 0
BBX 2 3 0 -3
BITMAP
80
80
40
ENDCHAR
STARTCHAR COMBINING BRIDGE ABOVE
ENCODING 838
SWIDTH 342 0
DWIDTH 5 0
BBX 5 2 0 14
BITMAP
F8
88
ENDCHAR
STARTCHAR COMBINING EQUALS SIGN BELOW
ENCODING 839
SWIDTH 342 0
DWIDTH 5 0
BBX 5 3 0 -3
BITMAP
F8
00
F8
ENDCHAR
STARTCHAR COMBINING DOUBLE VERTICAL LINE BELOW
ENCODING 840
SWIDTH 205 0
DWIDTH 3 0
BBX 3 4 0 -3
BITMAP
A0
A0
A0
A0
ENDCHAR
STARTCHAR COMBINING LEFT ANGLE BELOW
ENCODING 841
SWIDTH 205 0
DWIDTH 3 0
BBX 3 3 0 -3
BITMAP
E0
20
20
ENDCHAR
STARTCHAR COMBINING NOT TILDE ABOVE
ENCODING 842
SWIDTH 480 0
DWIDTH 7 0
BBX 7 4 0 12
BITMAP
08
72
9C
20
ENDCHAR
STARTCHAR COMBINING HOMOTHETIC ABOVE
ENCODING 843
SWIDTH 480 0
DWIDTH 7 0
BBX 7 5 0 11
BITMAP
10
02
7C
80
10
ENDCHAR
STARTCHAR COMBINING ALMOST EQUAL TO ABOVE
ENCODING 844
SWIDTH 411 0
DWIDTH 6 0
BBX 6 5 0 11
BITMAP
64
98
00
64
98
ENDCHAR
STARTCHAR COMBINNING LEFT RIGHT ARROW BELOW
ENCODING 845
SWIDTH 480 0
DWIDTH 7 0
BBX 7 3 0 -3
BITMAP
44
FE
44
ENDCHAR
STARTCHAR COMBINING UPWARDS ARROW BELOW
ENCODING 846
SWIDTH 205 0
DWIDTH 3 0
BBX 3 4 0 -3
BITMAP
40
E0
40
40
ENDCHAR
STARTCHAR COMBINING DOUBLE TILDE
ENCODING 864
SWIDTH 960 0
DWIDTH 14 0
BBX 14 3 0 13
BITMAP
1C04
6318
80E0
ENDCHAR
STARTCHAR COMBINING DOUBLE INVERTED BREVE
ENCODING 865
SWIDTH 960 0
DWIDTH 14 0
BBX 14 3 0 13
BITMAP
0FC0
7038
8004
ENDCHAR
STARTCHAR COMBINING DOUBLE RIGHTWARDS ARROW BELOW
ENCODING 866
SWIDTH 960 0
DWIDTH 14 0
BBX 14 5 0 -3
BITMAP
0010
0008
FFFC
0008
0010
ENDCHAR
STARTCHAR GREEK NUMERAL SIGN
ENCODING 884
SWIDTH 342 0
DWIDTH 5 0
BBX 3 3 1 7
BITMAP
20
40
80
ENDCHAR
STARTCHAR GREEK LOWER NUMERAL SIGN
ENCODING 885
SWIDTH 342 0
DWIDTH 5 0
BBX 3 3 1 -2
BITMAP
20
40
80
ENDCHAR
STARTCHAR GREEK YPOGEGRAMMENI
ENCODING 890
SWIDTH 342 0
DWIDTH 5 0
BBX 2 3 3 -2
BITMAP
80
80
40
ENDCHAR
STARTCHAR GREEK QUESTION MARK
ENCODING 894
SWIDTH 274 0
DWIDTH 4 0
BBX 2 9 1 -1
BITMAP
C0
C0
00
00
00
C0
40
40
80
ENDCHAR
STARTCHAR GREEK TONOS
ENCODING 900
SWIDTH 274 0
DWIDTH 4 0
BBX 2 3 1 11
BITMAP
40
40
80
ENDCHAR
STARTCHAR GREEK DIALYTIKA TONOS
ENCODING 901
SWIDTH 480 0
DWIDTH 7 0
BBX 5 5 1 9
BITMAP
10
10
20
88
88
ENDCHAR
STARTCHAR GREEK CAPITAL LETTER ALPHA WITH TONOS
ENCODING 902
SWIDTH 754 0
DWIDTH 11 0
BBX 9 11 1 0
BITMAP
4000
4400
8400
8A00
0A00
1100
1100
1F00
2080
2080
2080
ENDCHAR
STARTCHAR GREEK ANO TELEIA
ENCODING 903
SWIDTH 274 0
DWIDTH 4 0
BBX 2 2 1 4
BITMAP
C0
C0
ENDCHAR
STARTCHAR GREEK CAPITAL LETTER EPSILON WITH TONOS
ENCODING 904
SWIDTH 754 0
DWIDTH 11 0
BBX 9 11 1 0
BITMAP
4000
5F80
9000
9000
1000
1F00
1000
1000
1000
1000
1F80
ENDCHAR
STARTCHAR GREEK CAPITAL LETTER ETA WITH TONOS
ENCODING 905
SWIDTH 754 0
DWIDTH 11 0
BBX 9 11 1 0
BITMAP
4000
5080
9080
9080
1080
1F80
1080
1080
1080
1080
1080
ENDCHAR
STARTCHAR GREEK CAPITAL LETTER IOTA WITH TONOS
ENCODING 906
SWIDTH 548 0
DWIDTH 8 0
BBX 6 11 1 0
BITMAP
40
5C
88
88
08
08
08
08
08
08
1C
ENDCHAR
STARTCHAR GREEK CAPITAL LETTER OMICRON WITH TONOS
ENCODING 908
SWIDTH 754 0
DWIDTH 11 0
BBX 9 11 1 0
BITMAP
4000
4E00
9100
A080
2080
2080
2080
2080
2080
1100
0E00
ENDCHAR
STARTCHAR GREEK CAPITAL LETTER UPSILON WITH TONOS
ENCODING 910
SWIDTH 822 0
DWIDTH 12 0
BBX 10 11 1 0
BITMAP
4000
5040
9040
8880
0880
0500
0200
0200
0200
0200
0200
ENDCHAR
STARTCHAR GREEK CAPITAL LETTER OMEGA WITH TONOS
ENCODING 911
SWIDTH 822 0
DWIDTH 12 0
BBX 10 11 1 0
BITMAP
4000
4F00
9080
A040
2040
2040
2040
1080
0900
0900
39C0
ENDCHAR
STARTCHAR SMALL GREEK LETTER IOTA WITH DIALYTIKA AND TONOS
ENCODING 912
SWIDTH 480 0
DWIDTH 7 0
BBX 5 13 1 0
BITMAP
10
10
20
A8
88
00
20
20
20
20
20
20
18
ENDCHAR
STARTCHAR GREEK CAPITAL LETTER ALPHA
ENCODING 913
SWIDTH 617 0
DWIDTH 9 0
BBX 7 10 1 0
BITMAP
10
10
28
28
44
44
7C
82
82
82
ENDCHAR
STARTCHAR GREEK CAPITAL LETTER BETA
ENCODING 914
SWIDTH 548 0
DWIDTH 8 0
BBX 6 10 1 0
BITMAP
F8
84
84
84
F8
84
84
84
84
F8
ENDCHAR
STARTCHAR GREEK CAPITAL LETTER GAMMA
ENCODING 915
SWIDTH 548 0
DWIDTH 8 0
BBX 6 10 1 0
BITMAP
FC
84
80
80
80
80
80
80
80
80
ENDCHAR
STARTCHAR GREEK CAPITAL LETTER DELTA
ENCODING 916
SWIDTH 617 0
DWIDTH 9 0
BBX 7 10 1 0
BITMAP
10
10
28
28
44
44
44
82
82
FE
ENDCHAR
STARTCHAR GREEK CAPITAL LETTER EPSILON
ENCODING 917
SWIDTH 548 0
DWIDTH 8 0
BBX 6 10 1 0
BITMAP
FC
80
80
80
F8
80
80
80
80
FC
ENDCHAR
STARTCHAR GREEK CAPITAL LETTER ZETA
ENCODING 918
SWIDTH 548 0
DWIDTH 8 0
BBX 6 10 1 0
BITMAP
FC
04
04
08
10
20
40
80
80
FC
ENDCHAR
STARTCHAR GREEK CAPITAL LETTER ETA
ENCODING 919
SWIDTH 548 0
DWIDTH 8 0
BBX 6 10 1 0
BITMAP
84
84
84
84
FC
84
84
84
84
84
ENDCHAR
STARTCHAR GREEK CAPITAL LETTER THETA
ENCODING 920
SWIDTH 617 0
DWIDTH 9 0
BBX 7 10 1 0
BITMAP
38
44
82
82
BA
82
82
82
44
38
ENDCHAR
STARTCHAR GREEK CAPITAL LETTER IOTA
ENCODING 921
SWIDTH 480 0
DWIDTH 7 0
BBX 3 10 2 0
BITMAP
E0
40
40
40
40
40
40
40
40
E0
ENDCHAR
STARTCHAR GREEK CAPITAL LETTER KAPPA
ENCODING 922
SWIDTH 548 0
DWIDTH 8 0
BBX 6 10 1 0
BITMAP
84
88
90
A0
C0
C0
A0
90
88
84
ENDCHAR
STARTCHAR GREEK CAPITAL LETTER LAMDA
ENCODING 923
SWIDTH 617 0
DWIDTH 9 0
BBX 7 10 1 0
BITMAP
10
10
28
28
44
44
44
82
82
82
ENDCHAR
STARTCHAR GREEK CAPITAL LETTER MU
ENCODING 924
SWIDTH 754 0
DWIDTH 11 0
BBX 9 10 1 0
BITMAP
8080
C180
C180
A280
A280
9480
9480
8880
8880
8080
ENDCHAR
STARTCHAR GREEK CAPITAL LETTER NU
ENCODING 925
SWIDTH 548 0
DWIDTH 8 0
BBX 6 10 1 0
BITMAP
84
C4
C4
A4
A4
94
94
8C
8C
84
ENDCHAR
STARTCHAR GREEK CAPITAL LETTER KSI
ENCODING 926
SWIDTH 548 0
DWIDTH 8 0
BBX 6 10 1 0
BITMAP
FC
00
00
00
78
00
00
00
00
FC
ENDCHAR
STARTCHAR GREEK CAPITAL LETTER OMICRON
ENCODING 927
SWIDTH 617 0
DWIDTH 9 0
BBX 7 10 1 0
BITMAP
38
44
82
82
82
82
82
82
44
38
ENDCHAR
STARTCHAR GREEK CAPITAL LETTER PI
ENCODING 928
SWIDTH 685 0
DWIDTH 10 0
BBX 8 10 1 0
BITMAP
FF
42
42
42
42
42
42
42
42
42
ENDCHAR
STARTCHAR GREEK CAPITAL LETTER RHO
ENCODING 929
SWIDTH 548 0
DWIDTH 8 0
BBX 6 10 1 0
BITMAP
F8
84
84
84
F8
80
80
80
80
80
ENDCHAR
STARTCHAR GREEK CAPITAL LETTER SIGMA
ENCODING 931
SWIDTH 617 0
DWIDTH 9 0
BBX 7 10 1 0
BITMAP
FE
40
20
10
08
08
10
20
40
FE
ENDCHAR
STARTCHAR GREEK CAPITAL LETTER TAU
ENCODING 932
SWIDTH 617 0
DWIDTH 9 0
BBX 7 10 1 0
BITMAP
FE
10
10
10
10
10
10
10
10
10
ENDCHAR
STARTCHAR GREEK CAPITAL LETTER UPSILON
ENCODING 933
SWIDTH 617 0
DWIDTH 9 0
BBX 7 10 1 0
BITMAP
82
82
44
44
28
10
10
10
10
10
ENDCHAR
STARTCHAR GREEK CAPITAL LETTER PHI
ENCODING 934
SWIDTH 754 0
DWIDTH 11 0
BBX 9 10 1 0
BITMAP
0800
3E00
4900
8880
8880
8880
8880
4900
3E00
0800
ENDCHAR
STARTCHAR GREEK CAPITAL LETTER KHI
ENCODING 935
SWIDTH 617 0
DWIDTH 9 0
BBX 7 10 1 0
BITMAP
82
82
44
28
10
10
28
44
82
82
ENDCHAR
STARTCHAR GREEK CAPITAL LETTER PSI
ENCODING 936
SWIDTH 617 0
DWIDTH 9 0
BBX 7 10 1 0
BITMAP
92
92
92
92
54
38
10
10
10
10
ENDCHAR
STARTCHAR GREEK CAPITAL LETTER OMEGA
ENCODING 937
SWIDTH 685 0
DWIDTH 10 0
BBX 8 10 1 0
BITMAP
3C
42
81
81
81
81
42
24
24
E7
ENDCHAR
STARTCHAR GREEK CAPITAL LETTER IOTA WITH DIALYTIKA
ENCODING 938
SWIDTH 480 0
DWIDTH 7 0
BBX 5 14 1 0
BITMAP
88
88
00
00
F8
20
20
20
20
20
20
20
20
F8
ENDCHAR
STARTCHAR GREEK CAPITAL LETTER UPSILON WITH DIALYTIKA
ENCODING 939
SWIDTH 617 0
DWIDTH 9 0
BBX 7 14 1 0
BITMAP
44
44
00
00
82
82
44
44
28
10
10
10
10
10
ENDCHAR
STARTCHAR GREEK SMALL LETTER ALPHA WITH TONOS
ENCODING 940
SWIDTH 617 0
DWIDTH 9 0
BBX 7 11 1 0
BITMAP
10
10
20
00
32
4A
84
84
84
8A
72
ENDCHAR
STARTCHAR GREEK SMALL LETTER EPSILON WITH TONOS
ENCODING 941
SWIDTH 548 0
DWIDTH 8 0
BBX 6 11 1 0
BITMAP
10
10
20
00
78
84
80
78
80
84
78
ENDCHAR
STARTCHAR GREEK SMALL LETTER ETA WITH TONOS
ENCODING 942
SWIDTH 617 0
DWIDTH 9 0
BBX 7 13 1 -2
BITMAP
08
08
10
00
DC
62
42
42
42
42
42
02
02
ENDCHAR
STARTCHAR GREEK SMALL LETTER IOTA WITH TONOS
ENCODING 943
SWIDTH 411 0
DWIDTH 6 0
BBX 3 11 2 0
BITMAP
40
40
80
00
80
80
80
80
80
80
60
ENDCHAR
STARTCHAR GREEK SMALL LETTER UPSILON WITH DIALYTIKA AND TONOS
ENCODING 944
SWIDTH 617 0
DWIDTH 9 0
BBX 7 13 1 0
BITMAP
08
08
10
54
44
00
82
82
82
82
82
44
38
ENDCHAR
STARTCHAR GREEK SMALL LETTER ALPHA
ENCODING 945
SWIDTH 617 0
DWIDTH 9 0
BBX 7 7 1 0
BITMAP
32
4A
84
84
84
8A
72
ENDCHAR
STARTCHAR GREEK SMALL LETTER BETA
ENCODING 946
SWIDTH 548 0
DWIDTH 8 0
BBX 6 12 1 -2
BITMAP
70
88
88
88
B0
88
84
84
C4
B8
80
80
ENDCHAR
STARTCHAR GREEK SMALL LETTER GAMMA
ENCODING 947
SWIDTH 617 0
DWIDTH 9 0
BBX 7 9 1 -2
BITMAP
C2
22
14
14
08
08
08
10
10
ENDCHAR
STARTCHAR GREEK SMALL LETTER DELTA
ENCODING 948
SWIDTH 548 0
DWIDTH 8 0
BBX 6 10 1 0
BITMAP
78
84
40
20
30
48
84
84
84
78
ENDCHAR
STARTCHAR GREEK SMALL LETTER EPSILON
ENCODING 949
SWIDTH 548 0
DWIDTH 8 0
BBX 6 7 1 0
BITMAP
78
84
80
78
80
84
78
ENDCHAR
STARTCHAR GREEK SMALL LETTER ZETA
ENCODING 950
SWIDTH 480 0
DWIDTH 7 0
BBX 5 13 1 -3
BITMAP
10
F0
20
40
40
80
80
80
80
70
08
08
70
ENDCHAR
STARTCHAR GREEK SMALL LETTER ETA
ENCODING 951
SWIDTH 617 0
DWIDTH 9 0
BBX 7 10 1 -3
BITMAP
DC
62
42
42
42
42
42
02
02
02
ENDCHAR
STARTCHAR GREEK SMALL LETTER THETA
ENCODING 952
SWIDTH 548 0
DWIDTH 8 0
BBX 6 10 1 0
BITMAP
30
48
48
84
FC
84
84
48
48
30
ENDCHAR
STARTCHAR GREEK SMALL LETTER IOTA
ENCODING 953
SWIDTH 411 0
DWIDTH 6 0
BBX 3 7 2 0
BITMAP
80
80
80
80
80
80
60
ENDCHAR
STARTCHAR GREEK SMALL LETTER KAPPA
ENCODING 954
SWIDTH 480 0
DWIDTH 7 0
BBX 5 7 1 0
BITMAP
88
90
A0
C0
A0
90
88
ENDCHAR
STARTCHAR GREEK SMALL LETTER LAMDA
ENCODING 955
SWIDTH 617 0
DWIDTH 9 0
BBX 7 10 1 0
BITMAP
60
20
10
10
18
28
24
44
42
82
ENDCHAR
STARTCHAR GREEK SMALL LETTER MU
ENCODING 956
SWIDTH 548 0
DWIDTH 8 0
BBX 6 10 1 -3
BITMAP
88
88
88
88
88
C8
B4
80
80
80
ENDCHAR
STARTCHAR GREEK SMALL LETTER NU
ENCODING 957
SWIDTH 548 0
DWIDTH 8 0
BBX 6 7 1 0
BITMAP
84
84
44
48
48
30
20
ENDCHAR
STARTCHAR GREEK SMALL LETTER KSI
ENCODING 958
SWIDTH 480 0
DWIDTH 7 0
BBX 5 13 1 -3
BITMAP
70
80
80
80
70
40
80
80
80
70
08
08
70
ENDCHAR
STARTCHAR GREEK SMALL LETTER OMICRON
ENCODING 959
SWIDTH 617 0
DWIDTH 9 0
BBX 7 7 1 0
BITMAP
38
44
82
82
82
44
38
ENDCHAR
STARTCHAR GREEK SMALL LETTER PI
ENCODING 960
SWIDTH 754 0
DWIDTH 11 0
BBX 9 7 1 0
BITMAP
FF80
2200
2200
2200
2200
2200
2200
ENDCHAR
STARTCHAR GREEK SMALL LETTER RHO
ENCODING 961
SWIDTH 617 0
DWIDTH 9 0
BBX 7 10 1 -3
BITMAP
38
44
82
82
82
C4
B8
80
80
80
ENDCHAR
STARTCHAR GREEK SMALL LETTER FINAL SIGMA
ENCODING 962
SWIDTH 480 0
DWIDTH 7 0
BBX 5 10 1 -3
BITMAP
38
40
80
80
80
40
30
08
08
30
ENDCHAR
STARTCHAR GREEK SMALL LETTER SIGMA
ENCODING 963
SWIDTH 617 0
DWIDTH 9 0
BBX 7 7 1 0
BITMAP
3E
48
84
84
84
88
70
ENDCHAR
STARTCHAR GREEK SMALL LETTER TAU
ENCODING 964
SWIDTH 617 0
DWIDTH 9 0
BBX 7 7 1 0
BITMAP
FE
10
10
10
10
10
0C
ENDCHAR
STARTCHAR GREEK SMALL LETTER UPSILON
ENCODING 965
SWIDTH 617 0
DWIDTH 9 0
BBX 7 7 1 0
BITMAP
82
82
82
82
82
44
38
ENDCHAR
STARTCHAR GREEK SMALL LETTER PHI
ENCODING 966
SWIDTH 617 0
DWIDTH 9 0
BBX 7 10 1 -3
BITMAP
38
54
92
92
92
54
38
10
10
10
ENDCHAR
STARTCHAR GREEK SMALL LETTER KHI
ENCODING 967
SWIDTH 548 0
DWIDTH 8 0
BBX 6 10 1 -3
BITMAP
84
84
48
48
30
30
48
48
84
84
ENDCHAR
STARTCHAR GREEK SMALL LETTER PSI
ENCODING 968
SWIDTH 617 0
DWIDTH 9 0
BBX 7 10 1 -3
BITMAP
92
92
92
92
92
54
38
10
10
10
ENDCHAR
STARTCHAR GREEK SMALL LETTER OMEGA
ENCODING 969
SWIDTH 754 0
DWIDTH 11 0
BBX 9 7 1 0
BITMAP
2200
4100
8080
8880
8880
4900
3600
ENDCHAR
STARTCHAR GREEK SMALL LETTER IOTA WITH DIALYTIKA
ENCODING 970
SWIDTH 480 0
DWIDTH 7 0
BBX 5 11 1 0
BITMAP
88
88
00
00
20
20
20
20
20
20
18
ENDCHAR
STARTCHAR GREEK SMALL LETTER UPSILON WITH DIALYTIKA
ENCODING 971
SWIDTH 617 0
DWIDTH 9 0
BBX 7 11 1 0
BITMAP
44
44
00
00
82
82
82
82
82
44
38
ENDCHAR
STARTCHAR GREEK SMALL LETTER OMICRON WITH TONOS
ENCODING 972
SWIDTH 617 0
DWIDTH 9 0
BBX 7 11 1 0
BITMAP
08
08
10
00
38
44
82
82
82
44
38
ENDCHAR
STARTCHAR GREEK SMALL LETTER UPSILON WITH TONOS
ENCODING 973
SWIDTH 617 0
DWIDTH 9 0
BBX 7 11 1 0
BITMAP
08
08
10
00
82
82
82
82
82
44
38
ENDCHAR
STARTCHAR GREEK SMALL LETTER OMEGA WITH TONOS
ENCODING 974
SWIDTH 754 0
DWIDTH 11 0
BBX 9 12 1 0
BITMAP
0800
0800
1000
0000
0000
2200
4100
8880
8880
8880
4900
3600
ENDCHAR
STARTCHAR GREEK LETTER STIGMA
ENCODING 986
SWIDTH 617 0
DWIDTH 9 0
BBX 7 13 1 -3
BITMAP
3C
42
80
80
80
80
80
60
18
04
04
04
38
ENDCHAR
STARTCHAR GREEK SMALL LETTER STIGMA
ENCODING 987
SWIDTH 548 0
DWIDTH 8 0
BBX 6 10 1 -2
BITMAP
04
78
80
80
80
60
18
04
04
38
ENDCHAR
STARTCHAR GREEK LETTER DIGAMMA
ENCODING 988
SWIDTH 548 0
DWIDTH 8 0
BBX 6 10 1 0
BITMAP
FC
80
80
80
F8
80
80
80
80
80
ENDCHAR
STARTCHAR GREEK SMALL LETTER DIGAMMA
ENCODING 989
SWIDTH 548 0
DWIDTH 8 0
BBX 6 10 1 -3
BITMAP
FC
80
80
F8
80
80
80
80
80
80
ENDCHAR
STARTCHAR GREEK LETTER KOPPA
ENCODING 990
SWIDTH 548 0
DWIDTH 8 0
BBX 6 10 1 0
BITMAP
40
40
80
80
FC
04
04
08
08
08
ENDCHAR
STARTCHAR GREEK SMALL LETTER KOPPA
ENCODING 991
SWIDTH 480 0
DWIDTH 7 0
BBX 5 13 1 -3
BITMAP
40
40
40
80
80
80
F8
08
08
08
10
10
10
ENDCHAR
STARTCHAR GREEK LETTER SAMPI
ENCODING 992
SWIDTH 754 0
DWIDTH 11 0
BBX 9 10 1 0
BITMAP
0800
0800
1400
1400
2200
2600
4500
4900
8880
9080
ENDCHAR
STARTCHAR GREEK SMALL LETTER SAMPI
ENCODING 993
SWIDTH 754 0
DWIDTH 11 0
BBX 8 12 2 -2
BITMAP
C0
30
08
14
24
46
8A
12
21
01
01
01
ENDCHAR
STARTCHAR GREEK KAPPA SYMBOL
ENCODING 1008
SWIDTH 617 0
DWIDTH 9 0
BBX 7 7 1 0
BITMAP
C2
24
28
38
28
48
86
ENDCHAR
STARTCHAR GREEK RHO SYMBOL
ENCODING 1009
SWIDTH 617 0
DWIDTH 9 0
BBX 7 10 1 -3
BITMAP
38
44
82
82
82
C4
B8
80
60
18
ENDCHAR
STARTCHAR GREEK LUNATE SIGMA SYMBOL
ENCODING 1010
SWIDTH 617 0
DWIDTH 9 0
BBX 8 8 0 0
BITMAP
1E
21
40
40
40
40
21
1E
ENDCHAR
STARTCHAR GREEK YOT SYMBOL
ENCODING 1011
SWIDTH 480 0
DWIDTH 7 0
BBX 5 13 1 -2
BITMAP
08
08
00
18
08
08
08
08
08
08
08
90
60
ENDCHAR
STARTCHAR CYRILLIC CAPITAL LETTER IE WITH GRAVE
ENCODING 1024
SWIDTH 548 0
DWIDTH 8 0
BBX 0 0 0 0
BITMAP
ENDCHAR
STARTCHAR CYRILLIC CAPITAL LETTER IO
ENCODING 1025
SWIDTH 548 0
DWIDTH 8 0
BBX 6 14 1 0
BITMAP
44
44
00
00
FC
80
80
80
F8
80
80
80
80
FC
ENDCHAR
STARTCHAR CYRILLIC CAPITAL LETTER DJE
ENCODING 1026
SWIDTH 685 0
DWIDTH 10 0
BBX 8 10 1 0
BITMAP
F8
20
20
20
3E
21
21
21
21
3E
ENDCHAR
STARTCHAR CYRILLIC CAPITAL LETTER GJE
ENCODING 1027
SWIDTH 617 0
DWIDTH 9 0
BBX 7 14 1 0
BITMAP
0C
30
00
00
FE
80
80
80
80
80
80
80
80
80
ENDCHAR
STARTCHAR CYRILLIC CAPITAL LETTER UKRAINIAN IE
ENCODING 1028
SWIDTH 548 0
DWIDTH 8 0
BBX 6 10 1 0
BITMAP
38
44
80
80
F8
80
80
80
44
38
ENDCHAR
STARTCHAR CYRILLIC CAPITAL LETTER DZE
ENCODING 1029
SWIDTH 548 0
DWIDTH 8 0
BBX 6 10 1 0
BITMAP
78
84
84
80
60
18
04
84
84
78
ENDCHAR
STARTCHAR CYRILLIC CAPITAL LETTER BYELORUSSIAN-UKRAINIAN I
ENCODING 1030
SWIDTH 480 0
DWIDTH 7 0
BBX 5 10 1 0
BITMAP
F8
20
20
20
20
20
20
20
20
F8
ENDCHAR
STARTCHAR CYRILLIC CAPITAL LETTER YI
ENCODING 1031
SWIDTH 480 0
DWIDTH 7 0
BBX 5 14 1 0
BITMAP
88
88
00
00
F8
20
20
20
20
20
20
20
20
F8
ENDCHAR
STARTCHAR CYRILLIC CAPITAL LETTER JE
ENCODING 1032
SWIDTH 548 0
DWIDTH 8 0
BBX 6 10 1 0
BITMAP
1C
08
08
08
08
08
08
88
88
70
ENDCHAR
STARTCHAR CYRILLIC CAPITAL LETTER LJE
ENCODING 1033
SWIDTH 960 0
DWIDTH 14 0
BBX 12 10 1 0
BITMAP
3E00
2200
2200
2200
23C0
2220
2210
2210
A220
C3C0
ENDCHAR
STARTCHAR CYRILLIC CAPITAL LETTER NJE
ENCODING 1034
SWIDTH 891 0
DWIDTH 13 0
BBX 11 10 1 0
BITMAP
8400
8400
8400
8400
FF80
8440
8420
8420
8440
8780
ENDCHAR
STARTCHAR CYRILLIC CAPITAL LETTER TSHE
ENCODING 1035
SWIDTH 685 0
DWIDTH 10 0
BBX 8 11 1 0
BITMAP
F8
20
20
2E
31
21
21
21
21
21
21
ENDCHAR
STARTCHAR CYRILLIC CAPITAL LETTER KJE
ENCODING 1036
SWIDTH 617 0
DWIDTH 9 0
BBX 7 14 1 0
BITMAP
0C
30
00
00
86
88
90
A0
C0
E0
90
88
84
82
ENDCHAR
STARTCHAR CYRILLIC CAPITAL LETTER I WITH GRAVE
ENCODING 1037
SWIDTH 548 0
DWIDTH 8 0
BBX 0 0 0 0
BITMAP
ENDCHAR
STARTCHAR CYRILLIC CAPITAL LETTER SHORT U
ENCODING 1038
SWIDTH 617 0
DWIDTH 9 0
BBX 7 14 1 0
BITMAP
84
84
78
00
82
82
44
44
28
28
10
10
20
C0
ENDCHAR
STARTCHAR CYRILLIC CAPITAL LETTER DZHE
ENCODING 1039
SWIDTH 548 0
DWIDTH 8 0
BBX 7 10 1 0
BITMAP
82
82
82
82
82
82
FE
10
10
10
ENDCHAR
STARTCHAR CYRILLIC CAPITAL LETTER A
ENCODING 1040
SWIDTH 617 0
DWIDTH 9 0
BBX 7 10 1 0
BITMAP
10
10
28
28
44
44
7C
82
82
82
ENDCHAR
STARTCHAR CYRILLIC CAPITAL LETTER BE
ENCODING 1041
SWIDTH 548 0
DWIDTH 8 0
BBX 6 10 1 0
BITMAP
F8
80
80
80
F8
84
84
84
84
F8
ENDCHAR
STARTCHAR CYRILLIC CAPITAL LETTER VE
ENCODING 1042
SWIDTH 548 0
DWIDTH 8 0
BBX 6 10 1 0
BITMAP
F8
84
84
84
F8
84
84
84
84
F8
ENDCHAR
STARTCHAR CYRILLIC CAPITAL LETTER GHE
ENCODING 1043
SWIDTH 617 0
DWIDTH 9 0
BBX 7 10 1 0
BITMAP
FE
80
80
80
80
80
80
80
80
80
ENDCHAR
STARTCHAR CYRILLIC CAPITAL LETTER DE
ENCODING 1044
SWIDTH 617 0
DWIDTH 9 0
BBX 8 12 1 -2
BITMAP
0E
0A
12
12
22
22
42
42
82
FE
81
01
ENDCHAR
STARTCHAR CYRILLIC CAPITAL LETTER IE
ENCODING 1045
SWIDTH 548 0
DWIDTH 8 0
BBX 6 10 1 0
BITMAP
FC
80
80
80
F8
80
80
80
80
FC
ENDCHAR
STARTCHAR CYRILLIC CAPITAL LETTER ZHE
ENCODING 1046
SWIDTH 754 0
DWIDTH 11 0
BBX 9 10 1 0
BITMAP
8880
8880
4900
4900
3E00
2A00
4900
4900
8880
8880
ENDCHAR
STARTCHAR CYRILLIC CAPITAL LETTER ZE
ENCODING 1047
SWIDTH 548 0
DWIDTH 8 0
BBX 6 10 1 0
BITMAP
78
84
04
04
78
04
04
04
84
78
ENDCHAR
STARTCHAR CYRILLIC CAPITAL LETTER I
ENCODING 1048
SWIDTH 548 0
DWIDTH 8 0
BBX 6 10 1 0
BITMAP
84
8C
8C
94
94
A4
A4
C4
C4
84
ENDCHAR
STARTCHAR CYRILLIC CAPITAL LETTER SHORT I
ENCODING 1049
SWIDTH 548 0
DWIDTH 8 0
BBX 6 14 1 0
BITMAP
88
88
70
00
84
8C
8C
94
94
A4
A4
C4
C4
84
ENDCHAR
STARTCHAR CYRILLIC CAPITAL LETTER KA
ENCODING 1050
SWIDTH 617 0
DWIDTH 9 0
BBX 7 10 1 0
BITMAP
86
88
90
A0
C0
E0
90
88
84
82
ENDCHAR
STARTCHAR CYRILLIC CAPITAL LETTER EL
ENCODING 1051
SWIDTH 617 0
DWIDTH 9 0
BBX 7 10 1 0
BITMAP
3E
22
22
22
22
22
22
22
A2
C2
ENDCHAR
STARTCHAR CYRILLIC CAPITAL LETTER EM
ENCODING 1052
SWIDTH 754 0
DWIDTH 11 0
BBX 9 10 1 0
BITMAP
8080
C180
C180
A280
A280
9480
9480
8880
8880
8080
ENDCHAR
STARTCHAR CYRILLIC CAPITAL LETTER EN
ENCODING 1053
SWIDTH 548 0
DWIDTH 8 0
BBX 6 10 1 0
BITMAP
84
84
84
84
FC
84
84
84
84
84
ENDCHAR
STARTCHAR CYRILLIC CAPITAL LETTER O
ENCODING 1054
SWIDTH 617 0
DWIDTH 9 0
BBX 7 10 1 0
BITMAP
38
44
82
82
82
82
82
82
44
38
ENDCHAR
STARTCHAR CYRILLIC CAPITAL LETTER PE
ENCODING 1055
SWIDTH 617 0
DWIDTH 9 0
BBX 7 10 1 0
BITMAP
FE
82
82
82
82
82
82
82
82
82
ENDCHAR
STARTCHAR CYRILLIC CAPITAL LETTER ER
ENCODING 1056
SWIDTH 548 0
DWIDTH 8 0
BBX 6 10 1 0
BITMAP
F8
84
84
84
84
F8
80
80
80
80
ENDCHAR
STARTCHAR CYRILLIC CAPITAL LETTER ES
ENCODING 1057
SWIDTH 548 0
DWIDTH 8 0
BBX 6 10 1 0
BITMAP
78
84
84
80
80
80
80
84
84
78
ENDCHAR
STARTCHAR CYRILLIC CAPITAL LETTER TE
ENCODING 1058
SWIDTH 617 0
DWIDTH 9 0
BBX 7 10 1 0
BITMAP
FE
10
10
10
10
10
10
10
10
10
ENDCHAR
STARTCHAR CYRILLIC CAPITAL LETTER U
ENCODING 1059
SWIDTH 617 0
DWIDTH 9 0
BBX 7 10 1 0
BITMAP
82
82
44
44
28
28
10
10
20
C0
ENDCHAR
STARTCHAR CYRILLIC CAPITAL LETTER EF
ENCODING 1060
SWIDTH 754 0
DWIDTH 11 0
BBX 9 11 1 0
BITMAP
0800
0800
3E00
4900
8880
8880
8880
4900
3E00
0800
0800
ENDCHAR
STARTCHAR CYRILLIC CAPITAL LETTER HA
ENCODING 1061
SWIDTH 617 0
DWIDTH 9 0
BBX 7 10 1 0
BITMAP
82
82
44
28
10
10
28
44
82
82
ENDCHAR
STARTCHAR CYRILLIC CAPITAL LETTER TSE
ENCODING 1062
SWIDTH 617 0
DWIDTH 9 0
BBX 7 11 1 -2
BITMAP
84
84
84
84
84
84
84
84
FC
02
02
ENDCHAR
STARTCHAR CYRILLIC CAPITAL LETTER CHE
ENCODING 1063
SWIDTH 548 0
DWIDTH 8 0
BBX 6 10 1 0
BITMAP
84
84
84
84
84
8C
74
04
04
04
ENDCHAR
STARTCHAR CYRILLIC CAPITAL LETTER SHA
ENCODING 1064
SWIDTH 754 0
DWIDTH 11 0
BBX 9 9 1 0
BITMAP
8880
8880
8880
8880
8880
8880
8880
8880
FF80
ENDCHAR
STARTCHAR CYRILLIC CAPITAL LETTER SHCHA
ENCODING 1065
SWIDTH 822 0
DWIDTH 12 0
BBX 10 11 1 -2
BITMAP
8880
8880
8880
8880
8880
8880
8880
8880
FF80
0040
0040
ENDCHAR
STARTCHAR CYRILLIC CAPITAL LETTER HARD SIGN
ENCODING 1066
SWIDTH 754 0
DWIDTH 11 0
BBX 9 10 1 0
BITMAP
F000
1000
1000
1E00
1100
1080
1080
1080
1100
1E00
ENDCHAR
STARTCHAR CYRILLIC CAPITAL LETTER YERU
ENCODING 1067
SWIDTH 685 0
DWIDTH 10 0
BBX 8 10 1 0
BITMAP
81
81
81
F1
89
85
85
85
89
F1
ENDCHAR
STARTCHAR CYRILLIC CAPITAL LETTER SOFT SIGN
ENCODING 1068
SWIDTH 617 0
DWIDTH 9 0
BBX 6 10 1 0
BITMAP
80
80
80
F0
88
84
84
84
88
F0
ENDCHAR
STARTCHAR CYRILLIC CAPITAL LETTER E
ENCODING 1069
SWIDTH 617 0
DWIDTH 9 0
BBX 7 10 1 0
BITMAP
78
84
02
02
7E
02
02
02
84
78
ENDCHAR
STARTCHAR CYRILLIC CAPITAL LETTER YU
ENCODING 1070
SWIDTH 754 0
DWIDTH 11 0
BBX 9 10 1 0
BITMAP
8600
8900
9080
9080
F080
9080
9080
9080
8900
8600
ENDCHAR
STARTCHAR CYRILLIC CAPITAL LETTER YA
ENCODING 1071
SWIDTH 617 0
DWIDTH 9 0
BBX 7 10 1 0
BITMAP
3E
42
42
42
3E
12
22
22
42
82
ENDCHAR
STARTCHAR CYRILLIC SMALL LETTER A
ENCODING 1072
SWIDTH 548 0
DWIDTH 8 0
BBX 6 8 1 0
BITMAP
78
84
04
7C
84
84
8C
74
ENDCHAR
STARTCHAR CYRILLIC SMALL LETTER BE
ENCODING 1073
SWIDTH 617 0
DWIDTH 9 0
BBX 7 11 1 0
BITMAP
02
3C
40
80
B8
C4
82
82
82
44
38
ENDCHAR
STARTCHAR CYRILLIC SMALL LETTER VE
ENCODING 1074
SWIDTH 548 0
DWIDTH 8 0
BBX 6 8 1 0
BITMAP
F8
84
84
F8
84
84
84
F8
ENDCHAR
STARTCHAR CYRILLIC SMALL LETTER GHE
ENCODING 1075
SWIDTH 480 0
DWIDTH 7 0
BBX 5 8 1 0
BITMAP
F8
80
80
80
80
80
80
80
ENDCHAR
STARTCHAR CYRILLIC SMALL LETTER DE
ENCODING 1076
SWIDTH 617 0
DWIDTH 9 0
BBX 7 9 1 -1
BITMAP
1C
14
24
24
44
44
84
FC
82
ENDCHAR
STARTCHAR CYRILLIC SMALL LETTER IE
ENCODING 1077
SWIDTH 548 0
DWIDTH 8 0
BBX 6 8 1 0
BITMAP
78
84
84
FC
80
80
84
78
ENDCHAR
STARTCHAR CYRILLIC SMALL LETTER ZHE
ENCODING 1078
SWIDTH 754 0
DWIDTH 11 0
BBX 9 8 1 0
BITMAP
8880
8880
4900
3E00
2A00
4900
8880
8880
ENDCHAR
STARTCHAR CYRILLIC SMALL LETTER ZE
ENCODING 1079
SWIDTH 548 0
DWIDTH 8 0
BBX 6 8 1 0
BITMAP
78
84
04
78
04
04
84
78
ENDCHAR
STARTCHAR CYRILLIC SMALL LETTER I
ENCODING 1080
SWIDTH 548 0
DWIDTH 8 0
BBX 6 8 1 0
BITMAP
8C
8C
94
94
A4
A4
C4
C4
ENDCHAR
STARTCHAR CYRILLIC SMALL LETTER SHORT I
ENCODING 1081
SWIDTH 548 0
DWIDTH 8 0
BBX 6 12 1 0
BITMAP
84
84
78
00
8C
8C
94
94
A4
A4
C4
C4
ENDCHAR
STARTCHAR CYRILLIC SMALL LETTER KA
ENCODING 1082
SWIDTH 548 0
DWIDTH 8 0
BBX 6 8 1 0
BITMAP
8C
90
A0
C0
A0
90
88
84
ENDCHAR
STARTCHAR CYRILLIC SMALL LETTER EL
ENCODING 1083
SWIDTH 548 0
DWIDTH 8 0
BBX 6 8 1 0
BITMAP
3C
24
24
24
24
24
A4
C4
ENDCHAR
STARTCHAR CYRILLIC SMALL LETTER EM
ENCODING 1084
SWIDTH 617 0
DWIDTH 9 0
BBX 7 8 1 0
BITMAP
82
C6
C6
AA
AA
92
92
82
ENDCHAR
STARTCHAR CYRILLIC SMALL LETTER EN
ENCODING 1085
SWIDTH 548 0
DWIDTH 8 0
BBX 6 8 1 0
BITMAP
84
84
84
FC
84
84
84
84
ENDCHAR
STARTCHAR CYRILLIC SMALL LETTER O
ENCODING 1086
SWIDTH 617 0
DWIDTH 9 0
BBX 7 8 1 0
BITMAP
38
44
82
82
82
82
44
38
ENDCHAR
STARTCHAR CYRILLIC SMALL LETTER PE
ENCODING 1087
SWIDTH 548 0
DWIDTH 8 0
BBX 6 8 1 0
BITMAP
FC
84
84
84
84
84
84
84
ENDCHAR
STARTCHAR CYRILLIC SMALL LETTER ER
ENCODING 1088
SWIDTH 548 0
DWIDTH 8 0
BBX 6 10 1 -2
BITMAP
B0
C8
84
84
84
84
C8
B0
80
80
ENDCHAR
STARTCHAR CYRILLIC SMALL LETTER ES
ENCODING 1089
SWIDTH 548 0
DWIDTH 8 0
BBX 6 8 1 0
BITMAP
78
84
80
80
80
80
84
78
ENDCHAR
STARTCHAR CYRILLIC SMALL LETTER TE
ENCODING 1090
SWIDTH 548 0
DWIDTH 8 0
BBX 7 8 1 0
BITMAP
FE
10
10
10
10
10
10
10
ENDCHAR
STARTCHAR CYRILLIC SMALL LETTER U
ENCODING 1091
SWIDTH 548 0
DWIDTH 8 0
BBX 6 10 1 -2
BITMAP
84
84
48
48
30
30
20
20
40
C0
ENDCHAR
STARTCHAR CYRILLIC SMALL LETTER EF
ENCODING 1092
SWIDTH 617 0
DWIDTH 9 0
BBX 7 13 1 -3
BITMAP
10
10
10
7C
92
92
92
92
92
7C
10
10
10
ENDCHAR
STARTCHAR CYRILLIC SMALL LETTER HA
ENCODING 1093
SWIDTH 548 0
DWIDTH 8 0
BBX 6 8 1 0
BITMAP
84
84
48
30
30
48
84
84
ENDCHAR
STARTCHAR CYRILLIC SMALL LETTER TSE
ENCODING 1094
SWIDTH 480 0
DWIDTH 7 0
BBX 6 10 1 -2
BITMAP
88
88
88
88
88
88
88
F8
04
04
ENDCHAR
STARTCHAR CYRILLIC SMALL LETTER CHE
ENCODING 1095
SWIDTH 548 0
DWIDTH 8 0
BBX 6 8 1 0
BITMAP
84
84
84
84
8C
74
04
04
ENDCHAR
STARTCHAR CYRILLIC SMALL LETTER SHA
ENCODING 1096
SWIDTH 617 0
DWIDTH 9 0
BBX 7 8 1 0
BITMAP
92
92
92
92
92
92
92
FE
ENDCHAR
STARTCHAR CYRILLIC SMALL LETTER SHCHA
ENCODING 1097
SWIDTH 685 0
DWIDTH 10 0
BBX 8 10 1 -2
BITMAP
92
92
92
92
92
92
92
FE
01
01
ENDCHAR
STARTCHAR CYRILLIC SMALL LETTER HARD SIGN
ENCODING 1098
SWIDTH 685 0
DWIDTH 10 0
BBX 8 8 1 0
BITMAP
E0
20
20
3E
21
21
21
3E
ENDCHAR
STARTCHAR CYRILLIC SMALL LETTER YERU
ENCODING 1099
SWIDTH 685 0
DWIDTH 10 0
BBX 8 8 1 0
BITMAP
81
81
81
F9
85
85
85
F9
ENDCHAR
STARTCHAR CYRILLIC SMALL LETTER SOFT SIGN
ENCODING 1100
SWIDTH 548 0
DWIDTH 8 0
BBX 6 8 1 0
BITMAP
80
80
80
F8
84
84
84
F8
ENDCHAR
STARTCHAR CYRILLIC SMALL LETTER E
ENCODING 1101
SWIDTH 548 0
DWIDTH 8 0
BBX 6 8 1 0
BITMAP
70
88
04
7C
04
04
88
70
ENDCHAR
STARTCHAR CYRILLIC SMALL LETTER YU
ENCODING 1102
SWIDTH 617 0
DWIDTH 9 0
BBX 7 8 1 0
BITMAP
9C
A2
A2
E2
A2
A2
A2
9C
ENDCHAR
STARTCHAR CYRILLIC SMALL LETTER YA
ENCODING 1103
SWIDTH 548 0
DWIDTH 8 0
BBX 6 8 1 0
BITMAP
7C
84
84
84
7C
24
44
84
ENDCHAR
STARTCHAR CYRILLIC SMALL LETTER IE WITH GRAVE
ENCODING 1104
SWIDTH 548 0
DWIDTH 8 0
BBX 0 0 0 0
BITMAP
ENDCHAR
STARTCHAR CYRILLIC SMALL LETTER IO
ENCODING 1105
SWIDTH 548 0
DWIDTH 8 0
BBX 6 12 1 0
BITMAP
48
48
00
00
78
84
84
FC
80
80
84
78
ENDCHAR
STARTCHAR CYRILLIC SMALL LETTER DJE
ENCODING 1106
SWIDTH 685 0
DWIDTH 10 0
BBX 8 10 1 0
BITMAP
20
20
F8
20
20
3E
21
21
21
3E
ENDCHAR
STARTCHAR CYRILLIC SMALL LETTER GJE
ENCODING 1107
SWIDTH 480 0
DWIDTH 7 0
BBX 5 12 1 0
BITMAP
18
60
00
00
F8
80
80
80
80
80
80
80
ENDCHAR
STARTCHAR CYRILLIC SMALL LETTER UKRAINIAN IE
ENCODING 1108
SWIDTH 548 0
DWIDTH 8 0
BBX 6 8 1 0
BITMAP
38
44
80
F8
80
80
44
38
ENDCHAR
STARTCHAR CYRILLIC SMALL LETTER DZE
ENCODING 1109
SWIDTH 548 0
DWIDTH 8 0
BBX 6 8 1 0
BITMAP
78
84
80
60
18
04
84
78
ENDCHAR
STARTCHAR CYRILLIC SMALL LETTER BYELORUSSIAN-UKRAINIAN I
ENCODING 1110
SWIDTH 480 0
DWIDTH 7 0
BBX 5 11 1 0
BITMAP
20
20
00
60
20
20
20
20
20
20
F8
ENDCHAR
STARTCHAR CYRILLIC SMALL LETTER YI
ENCODING 1111
SWIDTH 480 0
DWIDTH 7 0
BBX 5 11 1 0
BITMAP
88
88
00
60
20
20
20
20
20
20
F8
ENDCHAR
STARTCHAR CYRILLIC SMALL LETTER JE
ENCODING 1112
SWIDTH 480 0
DWIDTH 7 0
BBX 5 13 1 -2
BITMAP
08
08
00
18
08
08
08
08
08
08
08
90
60
ENDCHAR
STARTCHAR CYRILLIC SMALL LETTER LJE
ENCODING 1113
SWIDTH 822 0
DWIDTH 12 0
BBX 10 8 1 0
BITMAP
3C00
2400
2400
2780
2440
2440
A440
C780
ENDCHAR
STARTCHAR CYRILLIC SMALL LETTER NJE
ENCODING 1114
SWIDTH 754 0
DWIDTH 11 0
BBX 9 8 1 0
BITMAP
8800
8800
8800
FF00
8880
8880
8880
8F00
ENDCHAR
STARTCHAR CYRILLIC SMALL LETTER TSHE
ENCODING 1115
SWIDTH 685 0
DWIDTH 10 0
BBX 8 12 1 0
BITMAP
20
20
F8
20
2E
31
21
21
21
21
21
21
ENDCHAR
STARTCHAR CYRILLIC SMALL LETTER KJE
ENCODING 1116
SWIDTH 548 0
DWIDTH 8 0
BBX 6 12 1 0
BITMAP
18
60
00
00
8C
90
A0
C0
A0
90
88
84
ENDCHAR
STARTCHAR CYRILLIC SMALL LETTER I WITH GRAVE
ENCODING 1117
SWIDTH 548 0
DWIDTH 8 0
BBX 0 0 0 0
BITMAP
ENDCHAR
STARTCHAR CYRILLIC SMALL LETTER SHORT U
ENCODING 1118
SWIDTH 548 0
DWIDTH 8 0
BBX 6 14 1 -2
BITMAP
84
84
78
00
84
84
48
48
30
30
20
20
40
C0
ENDCHAR
STARTCHAR CYRILLIC SMALL LETTER DZHE
ENCODING 1119
SWIDTH 480 0
DWIDTH 7 0
BBX 5 11 1 -3
BITMAP
88
88
88
88
88
88
88
F8
20
20
20
ENDCHAR
STARTCHAR HEBREW LETTER ALEF
ENCODING 1488
SWIDTH 548 0
DWIDTH 8 0
BBX 6 9 1 0
BITMAP
8C
84
44
24
58
90
88
84
84
ENDCHAR
STARTCHAR HEBREW LETTER BET
ENCODING 1489
SWIDTH 548 0
DWIDTH 8 0
BBX 7 9 1 0
BITMAP
F8
08
08
08
08
08
08
08
FE
ENDCHAR
STARTCHAR HEBREW LETTER GIMEL
ENCODING 1490
SWIDTH 548 0
DWIDTH 8 0
BBX 6 9 1 0
BITMAP
60
10
10
10
08
18
28
44
84
ENDCHAR
STARTCHAR HEBREW LETTER DALET
ENCODING 1491
SWIDTH 548 0
DWIDTH 8 0
BBX 6 9 1 0
BITMAP
FC
08
08
08
08
08
08
08
08
ENDCHAR
STARTCHAR HEBREW LETTER HE
ENCODING 1492
SWIDTH 548 0
DWIDTH 8 0
BBX 6 9 1 0
BITMAP
FC
04
04
44
44
44
44
44
44
ENDCHAR
STARTCHAR HEBREW LETTER VAV
ENCODING 1493
SWIDTH 548 0
DWIDTH 8 0
BBX 3 9 2 0
BITMAP
E0
20
20
20
20
20
20
20
20
ENDCHAR
STARTCHAR HEBREW LETTER ZAYIN
ENCODING 1494
SWIDTH 548 0
DWIDTH 8 0
BBX 5 9 2 0
BITMAP
C0
30
28
20
20
20
20
20
20
ENDCHAR
STARTCHAR HEBREW LETTER HET
ENCODING 1495
SWIDTH 548 0
DWIDTH 8 0
BBX 6 9 1 0
BITMAP
FC
44
44
44
44
44
44
44
44
ENDCHAR
STARTCHAR HEBREW LETTER TET
ENCODING 1496
SWIDTH 548 0
DWIDTH 8 0
BBX 6 9 1 0
BITMAP
8C
94
84
84
84
84
84
84
FC
ENDCHAR
STARTCHAR HEBREW LETTER YOD
ENCODING 1497
SWIDTH 548 0
DWIDTH 8 0
BBX 3 4 2 5
BITMAP
E0
20
20
20
ENDCHAR
STARTCHAR HEBREW LETTER FINAL KAF
ENCODING 1498
SWIDTH 548 0
DWIDTH 8 0
BBX 6 11 1 -2
BITMAP
FC
04
04
04
04
04
04
04
04
04
04
ENDCHAR
STARTCHAR HEBREW LETTER KAF
ENCODING 1499
SWIDTH 548 0
DWIDTH 8 0
BBX 6 9 1 0
BITMAP
FC
04
04
04
04
04
04
04
F8
ENDCHAR
STARTCHAR HEBREW LETTER LAMED
ENCODING 1500
SWIDTH 548 0
DWIDTH 8 0
BBX 5 11 2 0
BITMAP
80
80
F8
08
08
08
08
10
10
20
C0
ENDCHAR
STARTCHAR HEBREW LETTER FINAL MEM
ENCODING 1501
SWIDTH 548 0
DWIDTH 8 0
BBX 7 9 0 0
BITMAP
FE
22
22
22
22
22
22
22
3E
ENDCHAR
STARTCHAR HEBREW LETTER MEM
ENCODING 1502
SWIDTH 548 0
DWIDTH 8 0
BBX 7 9 1 0
BITMAP
90
90
68
28
44
44
82
82
9E
ENDCHAR
STARTCHAR HEBREW LETTER FINAL NUN
ENCODING 1503
SWIDTH 548 0
DWIDTH 8 0
BBX 3 11 2 -2
BITMAP
E0
20
20
20
20
20
20
20
20
20
20
ENDCHAR
STARTCHAR HEBREW LETTER NUN
ENCODING 1504
SWIDTH 548 0
DWIDTH 8 0
BBX 4 9 2 0
BITMAP
70
10
10
10
10
10
10
10
F0
ENDCHAR
STARTCHAR HEBREW LETTER SAMEKH
ENCODING 1505
SWIDTH 548 0
DWIDTH 8 0
BBX 6 9 1 0
BITMAP
FC
84
84
84
84
84
84
88
F0
ENDCHAR
STARTCHAR HEBREW LETTER AYIN
ENCODING 1506
SWIDTH 548 0
DWIDTH 8 0
BBX 7 9 0 0
BITMAP
12
12
12
12
12
12
12
12
FE
ENDCHAR
STARTCHAR HEBREW LETTER FINAL PE
ENCODING 1507
SWIDTH 548 0
DWIDTH 8 0
BBX 6 11 1 -2
BITMAP
FC
84
84
84
E4
04
04
04
04
04
04
ENDCHAR
STARTCHAR HEBREW LETTER PE
ENCODING 1508
SWIDTH 548 0
DWIDTH 8 0
BBX 6 9 1 0
BITMAP
FC
84
84
84
E4
04
04
04
FC
ENDCHAR
STARTCHAR HEBREW LETTER FINAL TSADI
ENCODING 1509
SWIDTH 548 0
DWIDTH 8 0
BBX 5 11 2 -2
BITMAP
88
88
90
A0
C0
80
80
80
80
80
80
ENDCHAR
STARTCHAR HEBREW LETTER TSADI
ENCODING 1510
SWIDTH 548 0
DWIDTH 8 0
BBX 6 9 1 0
BITMAP
84
84
48
30
10
08
04
04
FC
ENDCHAR
STARTCHAR HEBREW LETTER QOF
ENCODING 1511
SWIDTH 548 0
DWIDTH 8 0
BBX 6 11 1 -2
BITMAP
FC
44
44
48
48
50
40
40
40
40
40
ENDCHAR
STARTCHAR HEBREW LETTER RESH
ENCODING 1512
SWIDTH 548 0
DWIDTH 8 0
BBX 6 9 1 0
BITMAP
FC
04
04
04
04
04
04
04
04
ENDCHAR
STARTCHAR HEBREW LETTER SHIN
ENCODING 1513
SWIDTH 548 0
DWIDTH 8 0
BBX 7 9 1 0
BITMAP
92
92
92
92
92
92
92
92
FE
ENDCHAR
STARTCHAR HEBREW LETTER TAV
ENCODING 1514
SWIDTH 548 0
DWIDTH 8 0
BBX 6 9 1 0
BITMAP
7C
44
44
44
44
44
44
44
C4
ENDCHAR
STARTCHAR LATIN CAPITAL LETTER A WITH RING BELOW
ENCODING 7680
SWIDTH 617 0
DWIDTH 9 0
BBX 7 13 1 -3
BITMAP
10
10
28
28
44
44
7C
82
82
82
10
28
10
ENDCHAR
STARTCHAR LATIN SMALL LETTER A WITH RING BELOW
ENCODING 7681
SWIDTH 548 0
DWIDTH 8 0
BBX 6 11 1 -3
BITMAP
78
84
04
7C
84
84
8C
74
20
50
20
ENDCHAR
STARTCHAR LATIN CAPITAL LETTER B WITH DOT ABOVE
ENCODING 7682
SWIDTH 548 0
DWIDTH 8 0
BBX 6 14 1 0
BITMAP
20
20
00
00
F8
84
84
84
F8
84
84
84
84
F8
ENDCHAR
STARTCHAR LATIN SMALL LETTER B WITH DOT ABOVE
ENCODING 7683
SWIDTH 548 0
DWIDTH 8 0
BBX 6 12 1 0
BITMAP
10
90
80
80
B8
C4
84
84
84
84
C4
B8
ENDCHAR
STARTCHAR LATIN CAPITAL LETTER B WITH DOT BELOW
ENCODING 7684
SWIDTH 548 0
DWIDTH 8 0
BBX 6 13 1 -3
BITMAP
F8
84
84
84
F8
84
84
84
84
F8
00
20
20
ENDCHAR
STARTCHAR LATIN SMALL LETTER B WITH DOT BELOW
ENCODING 7685
SWIDTH 548 0
DWIDTH 8 0
BBX 6 14 1 -3
BITMAP
80
80
80
B8
C4
84
84
84
84
C4
B8
00
20
20
ENDCHAR
STARTCHAR LATIN CAPITAL LETTER B WITH LINE BELOW
ENCODING 7686
SWIDTH 548 0
DWIDTH 8 0
BBX 6 13 1 -3
BITMAP
F8
84
84
84
F8
84
84
84
84
F8
00
00
F8
ENDCHAR
STARTCHAR LATIN SMALL LETTER B WITH LINE BELOW
ENCODING 7687
SWIDTH 548 0
DWIDTH 8 0
BBX 6 14 1 -3
BITMAP
80
80
80
B8
C4
84
84
84
84
C4
B8
00
00
F8
ENDCHAR
STARTCHAR LATIN CAPITAL LETTER C WITH CEDILLA AND ACUTE
ENCODING 7688
SWIDTH 548 0
DWIDTH 8 0
BBX 6 17 1 -3
BITMAP
18
60
00
00
78
84
84
80
80
80
80
84
84
78
20
10
70
ENDCHAR
STARTCHAR LATIN SMALL LETTER C WITH CEDILLA AND ACUTE
ENCODING 7689
SWIDTH 548 0
DWIDTH 8 0
BBX 6 15 1 -3
BITMAP
18
60
00
00
78
84
80
80
80
80
84
78
20
10
70
ENDCHAR
STARTCHAR LATIN CAPITAL LETTER D WITH DOT ABOVE
ENCODING 7690
SWIDTH 548 0
DWIDTH 8 0
BBX 6 14 1 0
BITMAP
20
20
00
00
F0
88
84
84
84
84
84
84
88
F0
ENDCHAR
STARTCHAR LATIN SMALL LETTER D WITH DOT ABOVE
ENCODING 7691
SWIDTH 548 0
DWIDTH 8 0
BBX 6 12 1 0
BITMAP
20
24
04
04
74
8C
84
84
84
84
8C
74
ENDCHAR
STARTCHAR LATIN CAPITAL LETTER D WITH DOT BELOW
ENCODING 7692
SWIDTH 548 0
DWIDTH 8 0
BBX 6 13 1 -3
BITMAP
F0
88
84
84
84
84
84
84
88
F0
00
20
20
ENDCHAR
STARTCHAR LATIN SMALL LETTER D WITH DOT BELOW
ENCODING 7693
SWIDTH 548 0
DWIDTH 8 0
BBX 6 14 1 -3
BITMAP
04
04
04
74
8C
84
84
84
84
8C
74
00
20
20
ENDCHAR
STARTCHAR LATIN CAPITAL LETTER D WITH LINE BELOW
ENCODING 7694
SWIDTH 548 0
DWIDTH 8 0
BBX 6 13 1 -3
BITMAP
F0
88
84
84
84
84
84
84
88
F0
00
00
F8
ENDCHAR
STARTCHAR LATIN SMALL LETTER D WITH LINE BELOW
ENCODING 7695
SWIDTH 548 0
DWIDTH 8 0
BBX 6 14 1 -3
BITMAP
04
04
04
74
8C
84
84
84
84
8C
74
00
00
F8
ENDCHAR
STARTCHAR LATIN CAPITAL LETTER D WITH CEDILLA
ENCODING 7696
SWIDTH 548 0
DWIDTH 8 0
BBX 6 13 1 -3
BITMAP
F0
88
84
84
84
84
84
84
88
F0
20
10
30
ENDCHAR
STARTCHAR LATIN SMALL LETTER D WITH CEDILLA
ENCODING 7697
SWIDTH 548 0
DWIDTH 8 0
BBX 6 14 1 -3
BITMAP
04
04
04
74
8C
84
84
84
84
8C
74
20
10
30
ENDCHAR
STARTCHAR LATIN CAPITAL LETTER D WITH CIRCUMFLEX BELOW
ENCODING 7698
SWIDTH 548 0
DWIDTH 8 0
BBX 6 13 1 -3
BITMAP
F0
88
84
84
84
84
84
84
88
F0
20
50
88
ENDCHAR
STARTCHAR LATIN SMALL LETTER D WITH CIRCUMFLEX BELOW
ENCODING 7699
SWIDTH 548 0
DWIDTH 8 0
BBX 6 14 1 -3
BITMAP
04
04
04
74
8C
84
84
84
84
8C
74
20
50
88
ENDCHAR
STARTCHAR LATIN CAPITAL LETTER E WITH MACRON AND GRAVE
ENCODING 7700
SWIDTH 548 0
DWIDTH 8 0
BBX 6 15 1 0
BITMAP
C0
30
00
F8
00
FC
80
80
80
F8
80
80
80
80
FC
ENDCHAR
STARTCHAR LATIN SMALL LETTER E WITH MACRON AND GRAVE
ENCODING 7701
SWIDTH 548 0
DWIDTH 8 0
BBX 6 13 1 0
BITMAP
C0
30
00
F8
00
78
84
84
FC
80
80
84
78
ENDCHAR
STARTCHAR LATIN CAPITAL LETTER E WITH MACRON AND ACUTE
ENCODING 7702
SWIDTH 548 0
DWIDTH 8 0
BBX 6 15 1 0
BITMAP
18
60
00
F8
00
FC
80
80
80
F8
80
80
80
80
FC
ENDCHAR
STARTCHAR LATIN SMALL LETTER E WITH MACRON AND ACUTE
ENCODING 7703
SWIDTH 548 0
DWIDTH 8 0
BBX 6 13 1 0
BITMAP
18
60
00
F8
00
78
84
84
FC
80
80
84
78
ENDCHAR
STARTCHAR LATIN CAPITAL LETTER E WITH CIRCUMFLEX BELOW
ENCODING 7704
SWIDTH 548 0
DWIDTH 8 0
BBX 6 13 1 -3
BITMAP
FC
80
80
80
F8
80
80
80
80
FC
20
50
88
ENDCHAR
STARTCHAR LATIN SMALL LETTER E WITH CIRCUMFLEX BELOW
ENCODING 7705
SWIDTH 548 0
DWIDTH 8 0
BBX 6 11 1 -3
BITMAP
78
84
84
FC
80
80
84
78
20
50
88
ENDCHAR
STARTCHAR LATIN CAPITAL LETTER E WITH TILDE BELOW
ENCODING 7706
SWIDTH 548 0
DWIDTH 8 0
BBX 6 13 1 -3
BITMAP
FC
80
80
80
F8
80
80
80
80
FC
00
64
98
ENDCHAR
STARTCHAR LATIN SMALL LETTER E WITH TILDE BELOW
ENCODING 7707
SWIDTH 548 0
DWIDTH 8 0
BBX 6 11 1 -3
BITMAP
78
84
84
FC
80
80
84
78
00
64
98
ENDCHAR
STARTCHAR LATIN CAPITAL LETTER E WITH CEDILLA AND BREVE
ENCODING 7708
SWIDTH 548 0
DWIDTH 8 0
BBX 6 17 1 -3
BITMAP
88
88
70
00
FC
80
80
80
F8
80
80
80
80
FC
20
10
70
ENDCHAR
STARTCHAR LATIN SMALL LETTER E WITH CEDILLA AND BREVE
ENCODING 7709
SWIDTH 548 0
DWIDTH 8 0
BBX 6 15 1 -3
BITMAP
88
88
70
00
78
84
84
FC
80
80
84
78
20
10
70
ENDCHAR
STARTCHAR LATIN CAPITAL LETTER F WITH DOT ABOVE
ENCODING 7710
SWIDTH 548 0
DWIDTH 8 0
BBX 6 14 1 0
BITMAP
20
20
00
00
FC
80
80
80
F8
80
80
80
80
80
ENDCHAR
STARTCHAR LATIN SMALL LETTER F WITH DOT ABOVE
ENCODING 7711
SWIDTH 480 0
DWIDTH 7 0
BBX 5 15 1 0
BITMAP
10
10
00
00
18
20
20
20
F8
20
20
20
20
20
20
ENDCHAR
STARTCHAR LATIN CAPITAL LETTER G WITH MACRON
ENCODING 7712
SWIDTH 548 0
DWIDTH 8 0
BBX 6 13 1 0
BITMAP
F8
00
00
78
84
84
80
80
9C
84
84
8C
74
ENDCHAR
STARTCHAR LATIN SMALL LETTER G WITH MACRON
ENCODING 7713
SWIDTH 617 0
DWIDTH 9 0
BBX 7 13 1 -2
BITMAP
7C
00
02
3A
44
44
44
38
20
7C
82
82
7C
ENDCHAR
STARTCHAR LATIN CAPITAL LETTER H WITH DOT ABOVE
ENCODING 7714
SWIDTH 548 0
DWIDTH 8 0
BBX 6 14 1 0
BITMAP
20
20
00
00
84
84
84
84
FC
84
84
84
84
84
ENDCHAR
STARTCHAR LATIN SMALL LETTER H WITH DOT ABOVE
ENCODING 7715
SWIDTH 548 0
DWIDTH 8 0
BBX 6 14 1 0
BITMAP
20
20
00
80
80
80
B8
C4
84
84
84
84
84
84
ENDCHAR
STARTCHAR LATIN CAPITAL LETTER H WITH DOT BELOW
ENCODING 7716
SWIDTH 548 0
DWIDTH 8 0
BBX 6 13 1 -3
BITMAP
84
84
84
84
FC
84
84
84
84
84
00
20
20
ENDCHAR
STARTCHAR LATIN SMALL LETTER H WITH DOT BELOW
ENCODING 7717
SWIDTH 548 0
DWIDTH 8 0
BBX 6 14 1 -3
BITMAP
80
80
80
B8
C4
84
84
84
84
84
84
00
10
10
ENDCHAR
STARTCHAR LATIN CAPITAL LETTER H WITH DIAERESIS
ENCODING 7718
SWIDTH 548 0
DWIDTH 8 0
BBX 6 13 1 0
BITMAP
48
48
00
84
84
84
84
FC
84
84
84
84
84
ENDCHAR
STARTCHAR LATIN SMALL LETTER H WITH DIAERESIS
ENCODING 7719
SWIDTH 548 0
DWIDTH 8 0
BBX 6 14 1 0
BITMAP
48
48
00
80
80
80
B8
C4
84
84
84
84
84
84
ENDCHAR
STARTCHAR LATIN CAPITAL LETTER H WITH CEDILLA
ENCODING 7720
SWIDTH 548 0
DWIDTH 8 0
BBX 6 13 1 -3
BITMAP
84
84
84
84
FC
84
84
84
84
84
40
20
E0
ENDCHAR
STARTCHAR LATIN SMALL LETTER H WITH CEDILLA
ENCODING 7721
SWIDTH 548 0
DWIDTH 8 0
BBX 6 14 1 -3
BITMAP
80
80
80
B0
C8
84
84
84
84
84
84
40
20
E0
ENDCHAR
STARTCHAR LATIN CAPITAL LETTER H WITH BREVE BELOW
ENCODING 7722
SWIDTH 548 0
DWIDTH 8 0
BBX 6 13 1 -3
BITMAP
84
84
84
84
FC
84
84
84
84
84
00
88
70
ENDCHAR
STARTCHAR LATIN SMALL LETTER H WITH BREVE BELOW
ENCODING 7723
SWIDTH 548 0
DWIDTH 8 0
BBX 6 14 1 -3
BITMAP
80
80
80
B8
C4
84
84
84
84
84
84
00
44
38
ENDCHAR
STARTCHAR LATIN CAPITAL LETTER I WITH TILDE BELOW
ENCODING 7724
SWIDTH 617 0
DWIDTH 9 0
BBX 7 13 1 -3
BITMAP
7C
10
10
10
10
10
10
10
10
7C
00
72
8C
ENDCHAR
STARTCHAR LATIN SMALL LETTER I WITH TILDE BELOW
ENCODING 7725
SWIDTH 617 0
DWIDTH 9 0
BBX 7 14 1 -3
BITMAP
10
10
00
30
10
10
10
10
10
10
7C
00
72
8C
ENDCHAR
STARTCHAR LATIN CAPITAL LETTER I WITH DIAERESIS AND ACUTE
ENCODING 7726
SWIDTH 480 0
DWIDTH 7 0
BBX 5 16 1 0
BITMAP
18
60
00
88
88
00
F8
20
20
20
20
20
20
20
20
F8
ENDCHAR
STARTCHAR LATIN SMALL LETTER I WITH DIAERESIS AND ACUTE
ENCODING 7727
SWIDTH 480 0
DWIDTH 7 0
BBX 5 14 1 0
BITMAP
18
60
00
88
88
00
60
20
20
20
20
20
20
F8
ENDCHAR
STARTCHAR LATIN CAPITAL LETTER K WITH ACUTE
ENCODING 7728
SWIDTH 548 0
DWIDTH 8 0
BBX 6 14 1 0
BITMAP
18
60
00
00
84
88
90
A0
C0
C0
A0
90
88
84
ENDCHAR
STARTCHAR LATIN SMALL LETTER K WITH ACUTE
ENCODING 7729
SWIDTH 548 0
DWIDTH 8 0
BBX 6 14 1 0
BITMAP
18
60
00
00
80
80
80
88
90
A0
E0
90
88
84
ENDCHAR
STARTCHAR LATIN CAPITAL LETTER K WITH DOT BELOW
ENCODING 7730
SWIDTH 548 0
DWIDTH 8 0
BBX 6 13 1 -3
BITMAP
84
88
90
A0
C0
C0
A0
90
88
84
00
20
20
ENDCHAR
STARTCHAR LATIN SMALL LETTER K WITH DOT BELOW
ENCODING 7731
SWIDTH 548 0
DWIDTH 8 0
BBX 6 13 1 -3
BITMAP
80
80
80
88
90
A0
E0
90
88
84
00
20
20
ENDCHAR
STARTCHAR LATIN CAPITAL LETTER K WITH LINE BELOW
ENCODING 7732
SWIDTH 548 0
DWIDTH 8 0
BBX 6 13 1 -3
BITMAP
84
88
90
A0
C0
C0
A0
90
88
84
00
00
F8
ENDCHAR
STARTCHAR LATIN SMALL LETTER K WITH LINE BELOW
ENCODING 7733
SWIDTH 548 0
DWIDTH 8 0
BBX 6 13 1 -3
BITMAP
80
80
80
88
90
A0
E0
90
88
84
00
00
F8
ENDCHAR
STARTCHAR LATIN CAPITAL LETTER L WITH DOT BELOW
ENCODING 7734
SWIDTH 548 0
DWIDTH 8 0
BBX 6 13 1 -3
BITMAP
80
80
80
80
80
80
80
80
80
FC
00
20
20
ENDCHAR
STARTCHAR LATIN SMALL LETTER L WITH DOT BELOW
ENCODING 7735
SWIDTH 480 0
DWIDTH 7 0
BBX 5 13 1 -3
BITMAP
60
20
20
20
20
20
20
20
20
F8
00
20
20
ENDCHAR
STARTCHAR LATIN CAPITAL LETTER L WITH DOT BELOW AND MACRON
ENCODING 7736
SWIDTH 548 0
DWIDTH 8 0
BBX 6 16 1 -3
BITMAP
F8
00
00
80
80
80
80
80
80
80
80
80
FC
00
20
20
ENDCHAR
STARTCHAR LATIN SMALL LETTER L WITH DOT BELOW AND MACRON
ENCODING 7737
SWIDTH 480 0
DWIDTH 7 0
BBX 5 16 1 -3
BITMAP
F8
00
00
60
20
20
20
20
20
20
20
20
F8
00
20
20
ENDCHAR
STARTCHAR LATIN CAPITAL LETTER L WITH LINE BELOW
ENCODING 7738
SWIDTH 548 0
DWIDTH 8 0
BBX 6 13 1 -3
BITMAP
80
80
80
80
80
80
80
80
80
FC
00
00
F8
ENDCHAR
STARTCHAR LATIN SMALL LETTER L WITH LINE BELOW
ENCODING 7739
SWIDTH 480 0
DWIDTH 7 0
BBX 5 13 1 -3
BITMAP
60
20
20
20
20
20
20
20
20
F8
00
00
F8
ENDCHAR
STARTCHAR LATIN CAPITAL LETTER L WITH CIRCUMFLEX BELOW
ENCODING 7740
SWIDTH 548 0
DWIDTH 8 0
BBX 6 13 1 -3
BITMAP
80
80
80
80
80
80
80
80
80
FC
20
50
88
ENDCHAR
STARTCHAR LATIN SMALL LETTER L WITH CIRCUMFLEX BELOW
ENCODING 7741
SWIDTH 480 0
DWIDTH 7 0
BBX 5 13 1 -3
BITMAP
60
20
20
20
20
20
20
20
20
F8
20
50
88
ENDCHAR
STARTCHAR LATIN CAPITAL LETTER M WITH ACUTE
ENCODING 7742
SWIDTH 754 0
DWIDTH 11 0
BBX 9 14 1 0
BITMAP
0600
1800
0000
0000
8080
C180
C180
A280
A280
9480
9480
8880
8880
8080
ENDCHAR
STARTCHAR LATIN SMALL LETTER M WITH ACUTE
ENCODING 7743
SWIDTH 754 0
DWIDTH 11 0
BBX 9 12 1 0
BITMAP
0600
1800
0000
0000
B300
CC80
8880
8880
8880
8880
8880
8880
ENDCHAR
STARTCHAR LATIN CAPITAL LETTER M WITH DOT ABOVE
ENCODING 7744
SWIDTH 754 0
DWIDTH 11 0
BBX 9 13 1 0
BITMAP
0800
0800
0000
8080
C180
C180
A280
A280
9480
9480
8880
8880
8080
ENDCHAR
STARTCHAR LATIN SMALL LETTER M WITH DOT ABOVE
ENCODING 7745
SWIDTH 754 0
DWIDTH 11 0
BBX 9 12 1 0
BITMAP
0800
0800
0000
0000
B300
CC80
8880
8880
8880
8880
8880
8880
ENDCHAR
STARTCHAR LATIN CAPITAL LETTER M WITH DOT BELOW
ENCODING 7746
SWIDTH 754 0
DWIDTH 11 0
BBX 9 13 1 -3
BITMAP
8080
C180
C180
A280
A280
9480
9480
8880
8880
8080
0000
0800
0800
ENDCHAR
STARTCHAR LATIN SMALL LETTER M WITH DOT BELOW
ENCODING 7747
SWIDTH 754 0
DWIDTH 11 0
BBX 9 11 1 -3
BITMAP
B300
CC80
8880
8880
8880
8880
8880
8880
0000
0800
0800
ENDCHAR
STARTCHAR LATIN CAPITAL LETTER N WITH DOT ABOVE
ENCODING 7748
SWIDTH 548 0
DWIDTH 8 0
BBX 6 13 1 0
BITMAP
20
20
00
84
C4
C4
A4
A4
94
94
8C
8C
84
ENDCHAR
STARTCHAR LATIN SMALL LETTER N WITH DOT ABOVE
ENCODING 7749
SWIDTH 548 0
DWIDTH 8 0
BBX 6 12 1 0
BITMAP
20
20
00
00
B8
C4
84
84
84
84
84
84
ENDCHAR
STARTCHAR LATIN CAPITAL LETTER N WITH DOT BELOW
ENCODING 7750
SWIDTH 548 0
DWIDTH 8 0
BBX 6 13 1 -3
BITMAP
84
C4
C4
A4
A4
94
94
8C
8C
84
00
20
20
ENDCHAR
STARTCHAR LATIN SMALL LETTER N WITH DOT BELOW
ENCODING 7751
SWIDTH 548 0
DWIDTH 8 0
BBX 6 11 1 -3
BITMAP
B8
C4
84
84
84
84
84
84
00
20
20
ENDCHAR
STARTCHAR LATIN CAPITAL LETTER N WITH LINE BELOW
ENCODING 7752
SWIDTH 548 0
DWIDTH 8 0
BBX 6 13 1 -3
BITMAP
84
C4
C4
A4
A4
94
94
8C
8C
84
00
00
F8
ENDCHAR
STARTCHAR LATIN SMALL LETTER N WITH LINE BELOW
ENCODING 7753
SWIDTH 548 0
DWIDTH 8 0
BBX 6 11 1 -3
BITMAP
B8
C4
84
84
84
84
84
84
00
00
F8
ENDCHAR
STARTCHAR LATIN CAPITAL LETTER N WITH CIRCUMFLEX BELOW
ENCODING 7754
SWIDTH 548 0
DWIDTH 8 0
BBX 6 13 1 -3
BITMAP
84
C4
C4
A4
A4
94
94
8C
8C
84
20
50
88
ENDCHAR
STARTCHAR LATIN SMALL LETTER N WITH CIRCUMFLEX BELOW
ENCODING 7755
SWIDTH 548 0
DWIDTH 8 0
BBX 6 11 1 -3
BITMAP
B8
C4
84
84
84
84
84
84
20
50
88
ENDCHAR
STARTCHAR LATIN CAPITAL LETTER O WITH TILDE AND ACUTE
ENCODING 7756
SWIDTH 617 0
DWIDTH 9 0
BBX 7 16 1 0
BITMAP
0C
30
00
72
8C
00
38
44
82
82
82
82
82
82
44
38
ENDCHAR
STARTCHAR LATIN SMALL LETTER O WITH TILDE AND ACUTE
ENCODING 7757
SWIDTH 617 0
DWIDTH 9 0
BBX 7 14 1 0
BITMAP
0C
30
00
72
8C
00
38
44
82
82
82
82
44
38
ENDCHAR
STARTCHAR LATIN CAPITAL LETTER O WITH TILDE AND DIAERESIS
ENCODING 7758
SWIDTH 617 0
DWIDTH 9 0
BBX 7 16 1 0
BITMAP
44
44
00
72
8C
00
38
44
82
82
82
82
82
82
44
38
ENDCHAR
STARTCHAR LATIN SMALL LETTER O WITH TILDE AND DIAERESIS
ENCODING 7759
SWIDTH 617 0
DWIDTH 9 0
BBX 7 14 1 0
BITMAP
44
44
00
72
8C
00
38
44
82
82
82
82
44
38
ENDCHAR
STARTCHAR LATIN CAPITAL LETTER O WITH MACRON AND GRAVE
ENCODING 7760
SWIDTH 617 0
DWIDTH 9 0
BBX 7 15 1 0
BITMAP
60
18
00
7C
00
38
44
82
82
82
82
82
82
44
38
ENDCHAR
STARTCHAR LATIN SMALL LETTER O WITH MACRON AND GRAVE
ENCODING 7761
SWIDTH 617 0
DWIDTH 9 0
BBX 7 13 1 0
BITMAP
60
18
00
7C
00
38
44
82
82
82
82
44
38
ENDCHAR
STARTCHAR LATIN CAPITAL LETTER O WITH MACRON AND ACUTE
ENCODING 7762
SWIDTH 617 0
DWIDTH 9 0
BBX 7 15 1 0
BITMAP
0C
30
00
7C
00
38
44
82
82
82
82
82
82
44
38
ENDCHAR
STARTCHAR LATIN SMALL LETTER O WITH MACRON AND ACUTE
ENCODING 7763
SWIDTH 617 0
DWIDTH 9 0
BBX 7 13 1 0
BITMAP
0C
30
00
7C
00
38
44
82
82
82
82
44
38
ENDCHAR
STARTCHAR LATIN CAPITAL LETTER P WITH ACUTE
ENCODING 7764
SWIDTH 548 0
DWIDTH 8 0
BBX 6 14 1 0
BITMAP
18
60
00
00
F8
84
84
84
F8
80
80
80
80
80
ENDCHAR
STARTCHAR LATIN SMALL LETTER P WITH ACUTE
ENCODING 7765
SWIDTH 548 0
DWIDTH 8 0
BBX 6 15 1 -3
BITMAP
18
60
00
00
B8
C4
84
84
84
84
C4
B8
80
80
80
ENDCHAR
STARTCHAR LATIN CAPITAL LETTER P WITH DOT ABOVE
ENCODING 7766
SWIDTH 548 0
DWIDTH 8 0
BBX 6 14 1 0
BITMAP
20
20
00
00
F8
84
84
84
F8
80
80
80
80
80
ENDCHAR
STARTCHAR LATIN SMALL LETTER P WITH DOT ABOVE
ENCODING 7767
SWIDTH 548 0
DWIDTH 8 0
BBX 6 15 1 -3
BITMAP
20
20
00
00
B8
C4
84
84
84
84
C4
B8
80
80
80
ENDCHAR
STARTCHAR LATIN CAPITAL LETTER R WITH DOT ABOVE
ENCODING 7768
SWIDTH 548 0
DWIDTH 8 0
BBX 6 14 1 0
BITMAP
20
20
00
00
F8
84
84
84
F8
90
88
88
84
84
ENDCHAR
STARTCHAR LATIN SMALL LETTER R WITH DOT ABOVE
ENCODING 7769
SWIDTH 548 0
DWIDTH 8 0
BBX 6 12 1 0
BITMAP
20
20
00
00
B8
C4
84
80
80
80
80
80
ENDCHAR
STARTCHAR LATIN CAPITAL LETTER R WITH DOT BELOW
ENCODING 7770
SWIDTH 548 0
DWIDTH 8 0
BBX 6 13 1 -3
BITMAP
F8
84
84
84
F8
90
88
88
84
84
00
20
20
ENDCHAR
STARTCHAR LATIN SMALL LETTER R WITH DOT BELOW
ENCODING 7771
SWIDTH 548 0
DWIDTH 8 0
BBX 6 11 1 -3
BITMAP
B8
C4
84
80
80
80
80
80
00
40
40
ENDCHAR
STARTCHAR LATIN CAPITAL LETTER R WITH DOT BELOW AND MACRON
ENCODING 7772
SWIDTH 548 0
DWIDTH 8 0
BBX 6 16 1 -3
BITMAP
F8
00
00
F8
84
84
84
F8
90
88
88
84
84
00
20
20
ENDCHAR
STARTCHAR LATIN SMALL LETTER R WITH DOT BELOW AND MACRON
ENCODING 7773
SWIDTH 548 0
DWIDTH 8 0
BBX 6 14 1 -3
BITMAP
F8
00
00
B8
C4
80
80
80
80
80
80
00
40
40
ENDCHAR
STARTCHAR LATIN CAPITAL LETTER R WITH LINE BELOW
ENCODING 7774
SWIDTH 548 0
DWIDTH 8 0
BBX 6 13 1 -3
BITMAP
F8
84
84
84
F8
90
88
88
84
84
00
00
F8
ENDCHAR
STARTCHAR LATIN SMALL LETTER R WITH LINE BELOW
ENCODING 7775
SWIDTH 548 0
DWIDTH 8 0
BBX 6 11 1 -3
BITMAP
B8
C4
84
80
80
80
80
80
00
00
F8
ENDCHAR
STARTCHAR LATIN CAPITAL LETTER S WITH DOT ABOVE
ENCODING 7776
SWIDTH 548 0
DWIDTH 8 0
BBX 6 14 1 0
BITMAP
20
20
00
00
78
84
80
80
60
18
04
84
84
78
ENDCHAR
STARTCHAR LATIN SMALL LETTER S WITH DOT ABOVE
ENCODING 7777
SWIDTH 548 0
DWIDTH 8 0
BBX 6 12 1 0
BITMAP
20
20
00
00
78
84
80
60
18
04
84
78
ENDCHAR
STARTCHAR LATIN CAPITAL LETTER S WITH DOT BELOW
ENCODING 7778
SWIDTH 548 0
DWIDTH 8 0
BBX 6 13 1 -3
BITMAP
78
84
80
80
60
18
04
84
84
78
00
20
20
ENDCHAR
STARTCHAR LATIN SMALL LETTER S WITH DOT BELOW
ENCODING 7779
SWIDTH 548 0
DWIDTH 8 0
BBX 6 11 1 -3
BITMAP
78
84
80
60
18
04
84
78
00
20
20
ENDCHAR
STARTCHAR LATIN CAPITAL LETTER S WITH ACUTE AND DOT ABOVE
ENCODING 7780
SWIDTH 548 0
DWIDTH 8 0
BBX 6 16 1 0
BITMAP
20
20
00
18
60
00
78
84
80
80
60
18
04
84
84
78
ENDCHAR
STARTCHAR LATIN SMALL LETTER S WITH ACUTE AND DOT ABOVE
ENCODING 7781
SWIDTH 548 0
DWIDTH 8 0
BBX 6 14 1 0
BITMAP
20
20
00
18
60
00
78
84
80
60
18
04
84
78
ENDCHAR
STARTCHAR LATIN CAPITAL LETTER S WITH CARON AND DOT ABOVE
ENCODING 7782
SWIDTH 548 0
DWIDTH 8 0
BBX 6 16 1 0
BITMAP
20
20
88
50
20
00
78
84
80
80
60
18
04
84
84
78
ENDCHAR
STARTCHAR LATIN SMALL LETTER S WITH CARON AND DOT ABOVE
ENCODING 7783
SWIDTH 548 0
DWIDTH 8 0
BBX 6 14 1 0
BITMAP
20
20
88
50
20
00
78
84
80
60
18
04
84
78
ENDCHAR
STARTCHAR LATIN CAPITAL LETTER S WITH DOT BELOW AND DOT ABOVE
ENCODING 7784
SWIDTH 548 0
DWIDTH 8 0
BBX 6 17 1 -3
BITMAP
20
20
00
00
78
84
80
80
60
18
04
84
84
78
00
20
20
ENDCHAR
STARTCHAR LATIN SMALL LETTER S WITH DOT BELOW AND DOT ABOVE
ENCODING 7785
SWIDTH 548 0
DWIDTH 8 0
BBX 6 15 1 -3
BITMAP
20
20
00
00
78
84
80
60
18
04
84
78
00
20
20
ENDCHAR
STARTCHAR LATIN CAPITAL LETTER T WITH DOT ABOVE
ENCODING 7786
SWIDTH 617 0
DWIDTH 9 0
BBX 7 14 1 0
BITMAP
10
10
00
00
FE
10
10
10
10
10
10
10
10
10
ENDCHAR
STARTCHAR LATIN SMALL LETTER T WITH DOT ABOVE
ENCODING 7787
SWIDTH 480 0
DWIDTH 7 0
BBX 5 14 1 0
BITMAP
20
20
00
00
20
20
F8
20
20
20
20
20
20
18
ENDCHAR
STARTCHAR LATIN CAPITAL LETTER T WITH DOT BELOW
ENCODING 7788
SWIDTH 617 0
DWIDTH 9 0
BBX 7 13 1 -3
BITMAP
FE
10
10
10
10
10
10
10
10
10
00
10
10
ENDCHAR
STARTCHAR LATIN SMALL LETTER T WITH DOT BELOW
ENCODING 7789
SWIDTH 480 0
DWIDTH 7 0
BBX 5 13 1 -3
BITMAP
20
20
F8
20
20
20
20
20
20
18
00
10
10
ENDCHAR
STARTCHAR LATIN CAPITAL LETTER T WITH LINE BELOW
ENCODING 7790
SWIDTH 617 0
DWIDTH 9 0
BBX 7 13 1 -3
BITMAP
FE
10
10
10
10
10
10
10
10
10
00
00
7C
ENDCHAR
STARTCHAR LATIN SMALL LETTER T WITH LINE BELOW
ENCODING 7791
SWIDTH 480 0
DWIDTH 7 0
BBX 6 13 1 -3
BITMAP
20
20
F8
20
20
20
20
20
20
18
00
00
7C
ENDCHAR
STARTCHAR LATIN CAPITAL LETTER T WITH CIRCUMFLEX BELOW
ENCODING 7792
SWIDTH 617 0
DWIDTH 9 0
BBX 7 13 1 -3
BITMAP
FE
10
10
10
10
10
10
10
10
10
10
28
44
ENDCHAR
STARTCHAR LATIN SMALL LETTER T WITH CIRCUMFLEX BELOW
ENCODING 7793
SWIDTH 480 0
DWIDTH 7 0
BBX 5 13 1 -3
BITMAP
20
20
F8
20
20
20
20
20
20
18
20
50
88
ENDCHAR
STARTCHAR LATIN CAPITAL LETTER U WITH DIAERESIS BELOW
ENCODING 7794
SWIDTH 548 0
DWIDTH 8 0
BBX 6 13 1 -3
BITMAP
84
84
84
84
84
84
84
84
84
78
00
48
48
ENDCHAR
STARTCHAR LATIN SMALL LETTER U WITH DIAERESIS BELOW
ENCODING 7795
SWIDTH 548 0
DWIDTH 8 0
BBX 6 11 1 -3
BITMAP
84
84
84
84
84
84
8C
74
00
44
44
ENDCHAR
STARTCHAR LATIN CAPITAL LETTER U WITH TILDE BELOW
ENCODING 7796
SWIDTH 548 0
DWIDTH 8 0
BBX 6 13 1 -3
BITMAP
84
84
84
84
84
84
84
84
84
78
00
64
98
ENDCHAR
STARTCHAR LATIN SMALL LETTER U WITH TILDE BELOW
ENCODING 7797
SWIDTH 548 0
DWIDTH 8 0
BBX 6 11 1 -3
BITMAP
84
84
84
84
84
84
8C
74
00
64
98
ENDCHAR
STARTCHAR LATIN CAPITAL LETTER U WITH CIRCUMFLEX BELOW
ENCODING 7798
SWIDTH 548 0
DWIDTH 8 0
BBX 6 13 1 -3
BITMAP
84
84
84
84
84
84
84
84
84
78
20
50
88
ENDCHAR
STARTCHAR LATIN SMALL LETTER U WITH CIRCUMFLEX BELOW
ENCODING 7799
SWIDTH 548 0
DWIDTH 8 0
BBX 6 11 1 -3
BITMAP
84
84
84
84
84
84
8C
74
20
50
88
ENDCHAR
STARTCHAR LATIN CAPITAL LETTER U WITH TILDE AND ACUTE
ENCODING 7800
SWIDTH 548 0
DWIDTH 8 0
BBX 6 16 1 0
BITMAP
18
60
00
64
98
00
84
84
84
84
84
84
84
84
84
78
ENDCHAR
STARTCHAR LATIN SMALL LETTER U WITH TILDE AND ACUTE
ENCODING 7801
SWIDTH 548 0
DWIDTH 8 0
BBX 6 14 1 0
BITMAP
18
60
00
64
98
00
84
84
84
84
84
84
8C
74
ENDCHAR
STARTCHAR LATIN CAPITAL LETTER U WITH MACRON AND DIAERESIS
ENCODING 7802
SWIDTH 548 0
DWIDTH 8 0
BBX 6 15 1 0
BITMAP
88
88
00
F8
00
84
84
84
84
84
84
84
84
84
78
ENDCHAR
STARTCHAR LATIN SMALL LETTER U WITH MACRON AND DIAERESIS
ENCODING 7803
SWIDTH 548 0
DWIDTH 8 0
BBX 6 13 1 0
BITMAP
88
88
00
F8
00
84
84
84
84
84
84
8C
74
ENDCHAR
STARTCHAR LATIN CAPITAL LETTER V WITH TILDE
ENCODING 7804
SWIDTH 617 0
DWIDTH 9 0
BBX 7 14 1 0
BITMAP
72
8C
00
00
82
82
82
44
44
44
28
28
10
10
ENDCHAR
STARTCHAR LATIN SMALL LETTER V WITH TILDE
ENCODING 7805
SWIDTH 548 0
DWIDTH 8 0
BBX 6 12 1 0
BITMAP
64
98
00
00
84
84
84
48
48
48
30
30
ENDCHAR
STARTCHAR LATIN CAPITAL LETTER V WITH DOT BELOW
ENCODING 7806
SWIDTH 617 0
DWIDTH 9 0
BBX 7 13 1 -3
BITMAP
82
82
82
44
44
44
28
28
10
10
00
10
10
ENDCHAR
STARTCHAR LATIN SMALL LETTER V WITH DOT BELOW
ENCODING 7807
SWIDTH 548 0
DWIDTH 8 0
BBX 6 11 1 -3
BITMAP
84
84
84
48
48
48
30
30
00
10
10
ENDCHAR
STARTCHAR LATIN CAPITAL LETTER W WITH GRAVE
ENCODING 7808
SWIDTH 754 0
DWIDTH 11 0
BBX 9 13 1 0
BITMAP
3000
0C00
0000
8080
8880
8880
8880
5500
5500
5500
2200
2200
2200
ENDCHAR
STARTCHAR LATIN SMALL LETTER W WITH GRAVE
ENCODING 7809
SWIDTH 754 0
DWIDTH 11 0
BBX 9 11 1 0
BITMAP
3000
0C00
0000
8080
8880
8880
4900
5500
5500
2200
2200
ENDCHAR
STARTCHAR LATIN CAPITAL LETTER W WITH ACUTE
ENCODING 7810
SWIDTH 754 0
DWIDTH 11 0
BBX 9 13 1 0
BITMAP
0600
1800
0000
8080
8880
8880
8880
5500
5500
5500
2200
2200
2200
ENDCHAR
STARTCHAR LATIN SMALL LETTER W WITH ACUTE
ENCODING 7811
SWIDTH 754 0
DWIDTH 11 0
BBX 9 11 1 0
BITMAP
0600
1800
0000
8080
8880
8880
4900
5500
5500
2200
2200
ENDCHAR
STARTCHAR LATIN CAPITAL LETTER W WITH DIAERESIS
ENCODING 7812
SWIDTH 754 0
DWIDTH 11 0
BBX 9 14 1 0
BITMAP
2200
2200
0000
0000
8080
8880
8880
8880
5500
5500
5500
2200
2200
2200
ENDCHAR
STARTCHAR LATIN SMALL LETTER W WITH DIAERESIS
ENCODING 7813
SWIDTH 754 0
DWIDTH 11 0
BBX 9 12 1 0
BITMAP
2200
2200
0000
0000
8080
8880
8880
4900
5500
5500
2200
2200
ENDCHAR
STARTCHAR LATIN CAPITAL LETTER W WITH DOT ABOVE
ENCODING 7814
SWIDTH 754 0
DWIDTH 11 0
BBX 9 13 1 0
BITMAP
0800
0800
0000
8080
8880
8880
8880
5500
5500
5500
2200
2200
2200
ENDCHAR
STARTCHAR LATIN SMALL LETTER W WITH DOT ABOVE
ENCODING 7815
SWIDTH 754 0
DWIDTH 11 0
BBX 9 11 1 0
BITMAP
0800
0800
0000
8080
8880
8880
4900
5500
5500
2200
2200
ENDCHAR
STARTCHAR LATIN CAPITAL LETTER W WITH DOT BELOW
ENCODING 7816
SWIDTH 754 0
DWIDTH 11 0
BBX 9 13 1 -3
BITMAP
8080
8880
8880
8880
5500
5500
5500
2200
2200
2200
0000
0800
0800
ENDCHAR
STARTCHAR LATIN SMALL LETTER W WITH DOT BELOW
ENCODING 7817
SWIDTH 754 0
DWIDTH 11 0
BBX 9 11 1 -3
BITMAP
8080
8880
8880
4900
5500
5500
2200
2200
0000
0800
0800
ENDCHAR
STARTCHAR LATIN CAPITAL LETTER X WITH DOT ABOVE
ENCODING 7818
SWIDTH 617 0
DWIDTH 9 0
BBX 7 13 1 0
BITMAP
10
10
00
82
82
44
28
10
10
28
44
82
82
ENDCHAR
STARTCHAR LATIN SMALL LETTER X WITH DOT ABOVE
ENCODING 7819
SWIDTH 548 0
DWIDTH 8 0
BBX 6 11 1 0
BITMAP
20
20
00
84
84
48
30
30
48
84
84
ENDCHAR
STARTCHAR LATIN CAPITAL LETTER X WITH DIAERESIS
ENCODING 7820
SWIDTH 617 0
DWIDTH 9 0
BBX 7 14 1 0
BITMAP
44
44
00
00
82
82
44
28
10
10
28
44
82
82
ENDCHAR
STARTCHAR LATIN SMALL LETTER X WITH DIAERESIS
ENCODING 7821
SWIDTH 548 0
DWIDTH 8 0
BBX 6 12 1 0
BITMAP
48
48
00
00
84
84
48
30
30
48
84
84
ENDCHAR
STARTCHAR LATIN CAPITAL LETTER Y WITH DOT ABOVE
ENCODING 7822
SWIDTH 617 0
DWIDTH 9 0
BBX 7 13 1 0
BITMAP
10
10
00
82
82
44
44
28
10
10
10
10
10
ENDCHAR
STARTCHAR LATIN SMALL LETTER Y WITH DOT ABOVE
ENCODING 7823
SWIDTH 617 0
DWIDTH 9 0
BBX 7 14 1 -3
BITMAP
10
10
00
82
82
44
44
28
28
10
10
20
20
40
ENDCHAR
STARTCHAR LATIN CAPITAL LETTER Z WITH CIRCUMFLEX
ENCODING 7824
SWIDTH 548 0
DWIDTH 8 0
BBX 6 14 1 0
BITMAP
20
50
88
00
FC
04
04
08
10
20
40
80
80
FC
ENDCHAR
STARTCHAR LATIN SMALL LETTER Z WITH CIRCUMFLEX
ENCODING 7825
SWIDTH 548 0
DWIDTH 8 0
BBX 6 12 1 0
BITMAP
20
50
88
00
FC
04
08
10
20
40
80
FC
ENDCHAR
STARTCHAR LATIN CAPITAL LETTER Z WITH DOT BELOW
ENCODING 7826
SWIDTH 548 0
DWIDTH 8 0
BBX 6 13 1 -3
BITMAP
FC
04
04
08
10
20
40
80
80
FC
00
20
20
ENDCHAR
STARTCHAR LATIN SMALL LETTER Z WITH DOT BELOW
ENCODING 7827
SWIDTH 548 0
DWIDTH 8 0
BBX 6 11 1 -3
BITMAP
FC
04
08
10
20
40
80
FC
00
20
20
ENDCHAR
STARTCHAR LATIN CAPITAL LETTER Z WITH LINE BELOW
ENCODING 7828
SWIDTH 548 0
DWIDTH 8 0
BBX 6 13 1 -3
BITMAP
FC
04
04
08
10
20
40
80
80
FC
00
00
F8
ENDCHAR
STARTCHAR LATIN SMALL LETTER Z WITH LINE BELOW
ENCODING 7829
SWIDTH 548 0
DWIDTH 8 0
BBX 6 11 1 -3
BITMAP
FC
04
08
10
20
40
80
FC
00
00
F8
ENDCHAR
STARTCHAR LATIN SMALL LETTER H WITH LINE BELOW
ENCODING 7830
SWIDTH 548 0
DWIDTH 8 0
BBX 6 14 1 -3
BITMAP
80
80
80
B8
C4
84
84
84
84
84
84
00
00
F8
ENDCHAR
STARTCHAR LATIN SMALL LETTER T WITH DIAERESIS
ENCODING 7831
SWIDTH 480 0
DWIDTH 7 0
BBX 5 14 1 0
BITMAP
88
88
00
00
20
20
F8
20
20
20
20
20
20
18
ENDCHAR
STARTCHAR LATIN SMALL LETTER W WITH RING ABOVE
ENCODING 7832
SWIDTH 754 0
DWIDTH 11 0
BBX 9 12 1 0
BITMAP
0800
1400
0800
0000
8080
8880
8880
4900
5500
5500
2200
2200
ENDCHAR
STARTCHAR LATIN SMALL LETTER Y WITH RING ABOVE
ENCODING 7833
SWIDTH 617 0
DWIDTH 9 0
BBX 7 15 1 -3
BITMAP
10
28
10
00
82
82
44
44
28
28
10
10
20
20
40
ENDCHAR
STARTCHAR LATIN SMALL LETTER A WITH RIGHT HALF RING
ENCODING 7834
SWIDTH 548 0
DWIDTH 8 0
BBX 6 12 1 0
BITMAP
30
08
30
00
78
84
04
7C
84
84
8C
74
ENDCHAR
STARTCHAR LATIN SMALL LETTER LONG S WITH DOT ABOVE
ENCODING 7835
SWIDTH 411 0
DWIDTH 6 0
BBX 4 15 1 0
BITMAP
20
20
00
00
30
40
40
40
C0
40
40
40
40
40
40
ENDCHAR
STARTCHAR LATIN CAPITAL LETTER A WITH DOT BELOW
ENCODING 7840
SWIDTH 617 0
DWIDTH 9 0
BBX 7 13 1 -3
BITMAP
10
10
28
28
44
44
7C
82
82
82
00
10
10
ENDCHAR
STARTCHAR LATIN SMALL LETTER A WITH DOT BELOW
ENCODING 7841
SWIDTH 548 0
DWIDTH 8 0
BBX 6 11 1 -3
BITMAP
78
84
04
7C
84
84
8C
74
00
20
20
ENDCHAR
STARTCHAR LATIN CAPITAL LETTER A WITH HOOK ABOVE
ENCODING 7842
SWIDTH 617 0
DWIDTH 9 0
BBX 7 14 1 0
BITMAP
18
08
10
00
10
10
28
28
44
44
7C
82
82
82
ENDCHAR
STARTCHAR LATIN SMALL LETTER A WITH HOOK ABOVE
ENCODING 7843
SWIDTH 548 0
DWIDTH 8 0
BBX 6 12 1 0
BITMAP
30
10
20
00
78
84
04
7C
84
84
8C
74
ENDCHAR
STARTCHAR LATIN CAPITAL LETTER A WITH CIRCUMFLEX AND ACUTE
ENCODING 7844
SWIDTH 617 0
DWIDTH 9 0
BBX 7 14 1 0
BITMAP
02
14
28
44
10
10
28
28
44
44
7C
82
82
82
ENDCHAR
STARTCHAR LATIN SMALL LETTER A WITH CIRCUMFLEX AND ACUTE
ENCODING 7845
SWIDTH 548 0
DWIDTH 8 0
BBX 6 13 1 0
BITMAP
04
28
50
88
00
78
84
04
7C
84
84
8C
74
ENDCHAR
STARTCHAR LATIN CAPITAL LETTER A WITH CIRCUMFLEX AND GRAVE
ENCODING 7846
SWIDTH 617 0
DWIDTH 9 0
BBX 7 14 1 0
BITMAP
80
50
28
44
10
10
28
28
44
44
7C
82
82
82
ENDCHAR
STARTCHAR LATIN SMALL LETTER A WITH CIRCUMFLEX AND GRAVE
ENCODING 7847
SWIDTH 548 0
DWIDTH 8 0
BBX 6 13 1 0
BITMAP
80
50
28
44
00
78
84
04
7C
84
84
8C
74
ENDCHAR
STARTCHAR LATIN CAPITAL LETTER A WITH CIRCUMFLEX AND HOOK ABOVE
ENCODING 7848
SWIDTH 617 0
DWIDTH 9 0
BBX 7 15 1 0
BITMAP
06
02
14
28
44
10
10
28
28
44
44
7C
82
82
82
ENDCHAR
STARTCHAR LATIN SMALL LETTER A WITH CIRCUMFLEX AND HOOK ABOVE
ENCODING 7849
SWIDTH 548 0
DWIDTH 8 0
BBX 6 14 1 0
BITMAP
0C
04
28
50
88
00
78
84
04
7C
84
84
8C
74
ENDCHAR
STARTCHAR LATIN CAPITAL LETTER A WITH CIRCUMFLEX AND TILDE
ENCODING 7850
SWIDTH 617 0
DWIDTH 9 0
BBX 7 15 1 0
BITMAP
72
8C
10
28
44
10
10
28
28
44
44
7C
82
82
82
ENDCHAR
STARTCHAR LATIN SMALL LETTER A WITH CIRCUMFLEX AND TILDE
ENCODING 7851
SWIDTH 548 0
DWIDTH 8 0
BBX 6 14 1 0
BITMAP
64
98
20
50
88
00
78
84
04
7C
84
84
8C
74
ENDCHAR
STARTCHAR LATIN CAPITAL LETTER A WITH CIRCUMFLEX AND DOT BELOW
ENCODING 7852
SWIDTH 617 0
DWIDTH 9 0
BBX 7 16 1 -3
BITMAP
10
28
44
10
10
28
28
44
44
7C
82
82
82
00
10
10
ENDCHAR
STARTCHAR LATIN SMALL LETTER A WITH CIRCUMFLEX AND DOT BELOW
ENCODING 7853
SWIDTH 548 0
DWIDTH 8 0
BBX 6 15 1 -3
BITMAP
20
50
88
00
78
84
04
7C
84
84
8C
74
00
20
20
ENDCHAR
STARTCHAR LATIN CAPITAL LETTER A WITH BREVE AND ACUTE
ENCODING 7854
SWIDTH 617 0
DWIDTH 9 0
BBX 7 16 1 0
BITMAP
08
10
44
44
38
00
10
10
28
28
44
44
7C
82
82
82
ENDCHAR
STARTCHAR LATIN SMALL LETTER A WITH BREVE AND ACUTE
ENCODING 7855
SWIDTH 548 0
DWIDTH 8 0
BBX 6 14 1 0
BITMAP
10
20
88
88
70
00
78
84
04
7C
84
84
8C
74
ENDCHAR
STARTCHAR LATIN CAPITAL LETTER A WITH BREVE AND GRAVE
ENCODING 7856
SWIDTH 617 0
DWIDTH 9 0
BBX 7 16 1 0
BITMAP
20
10
44
44
38
00
10
10
28
28
44
44
7C
82
82
82
ENDCHAR
STARTCHAR LATIN SMALL LETTER A WITH BREVE AND GRAVE
ENCODING 7857
SWIDTH 548 0
DWIDTH 8 0
BBX 6 14 1 0
BITMAP
40
20
88
88
70
00
78
84
04
7C
84
84
8C
74
ENDCHAR
STARTCHAR LATIN CAPITAL LETTER A WITH BREVE AND HOOK ABOVE
ENCODING 7858
SWIDTH 617 0
DWIDTH 9 0
BBX 7 16 1 0
BITMAP
18
08
10
44
44
38
10
10
28
28
44
44
7C
82
82
82
ENDCHAR
STARTCHAR LATIN SMALL LETTER A WITH BREVE AND HOOK ABOVE
ENCODING 7859
SWIDTH 548 0
DWIDTH 8 0
BBX 6 15 1 0
BITMAP
30
10
20
88
88
70
00
78
84
04
7C
84
84
8C
74
ENDCHAR
STARTCHAR LATIN CAPITAL LETTER A WITH BREVE AND TILDE
ENCODING 7860
SWIDTH 617 0
DWIDTH 9 0
BBX 7 16 1 0
BITMAP
72
8C
00
44
44
38
10
10
28
28
44
44
7C
82
82
82
ENDCHAR
STARTCHAR LATIN SMALL LETTER A WITH BREVE AND TILDE
ENCODING 7861
SWIDTH 548 0
DWIDTH 8 0
BBX 6 15 1 0
BITMAP
64
98
00
88
88
70
00
78
84
04
7C
84
84
8C
74
ENDCHAR
STARTCHAR LATIN CAPITAL LETTER A WITH BREVE AND DOT BELOW
ENCODING 7862
SWIDTH 617 0
DWIDTH 9 0
BBX 7 17 1 -3
BITMAP
44
44
38
00
10
10
28
28
44
44
7C
82
82
82
00
10
10
ENDCHAR
STARTCHAR LATIN SMALL LETTER A WITH BREVE AND DOT BELOW
ENCODING 7863
SWIDTH 548 0
DWIDTH 8 0
BBX 6 15 1 -3
BITMAP
88
88
70
00
78
84
04
7C
84
84
8C
74
00
20
20
ENDCHAR
STARTCHAR LATIN CAPITAL LETTER E WITH DOT BELOW
ENCODING 7864
SWIDTH 548 0
DWIDTH 8 0
BBX 6 13 1 -3
BITMAP
FC
80
80
80
F8
80
80
80
80
FC
00
20
20
ENDCHAR
STARTCHAR LATIN SMALL LETTER E WITH DOT BELOW
ENCODING 7865
SWIDTH 548 0
DWIDTH 8 0
BBX 6 11 1 -3
BITMAP
78
84
84
FC
80
80
84
78
00
20
20
ENDCHAR
STARTCHAR LATIN CAPITAL LETTER E WITH HOOK ABOVE
ENCODING 7866
SWIDTH 548 0
DWIDTH 8 0
BBX 6 14 1 0
BITMAP
30
10
20
00
FC
80
80
80
F8
80
80
80
80
FC
ENDCHAR
STARTCHAR LATIN SMALL LETTER E WITH HOOK ABOVE
ENCODING 7867
SWIDTH 548 0
DWIDTH 8 0
BBX 6 12 1 0
BITMAP
30
10
20
00
78
84
84
FC
80
80
84
78
ENDCHAR
STARTCHAR LATIN CAPITAL LETTER E WITH TILDE
ENCODING 7868
SWIDTH 548 0
DWIDTH 8 0
BBX 6 14 1 0
BITMAP
64
98
00
00
FC
80
80
80
F8
80
80
80
80
FC
ENDCHAR
STARTCHAR LATIN SMALL LETTER E WITH TILDE
ENCODING 7869
SWIDTH 548 0
DWIDTH 8 0
BBX 6 12 1 0
BITMAP
64
98
00
00
78
84
84
FC
80
80
84
78
ENDCHAR
STARTCHAR LATIN CAPITAL LETTER E WITH CIRCUMFLEX AND ACUTE
ENCODING 7870
SWIDTH 548 0
DWIDTH 8 0
BBX 6 15 1 0
BITMAP
04
28
50
88
00
FC
80
80
80
F8
80
80
80
80
FC
ENDCHAR
STARTCHAR LATIN SMALL LETTER E WITH CIRCUMFLEX AND ACUTE
ENCODING 7871
SWIDTH 548 0
DWIDTH 8 0
BBX 6 13 1 0
BITMAP
04
28
50
88
00
78
84
84
FC
80
80
84
78
ENDCHAR
STARTCHAR LATIN CAPITAL LETTER E WITH CIRCUMFLEX AND GRAVE
ENCODING 7872
SWIDTH 617 0
DWIDTH 9 0
BBX 7 15 1 0
BITMAP
80
50
28
44
00
7E
40
40
40
7C
40
40
40
40
7E
ENDCHAR
STARTCHAR LATIN SMALL LETTER E WITH CIRCUMFLEX AND GRAVE
ENCODING 7873
SWIDTH 617 0
DWIDTH 9 0
BBX 7 13 1 0
BITMAP
80
50
28
44
00
3C
42
42
7E
40
40
42
3C
ENDCHAR
STARTCHAR LATIN CAPITAL LETTER E WITH CIRCUMFLEX AND HOOK ABOVE
ENCODING 7874
SWIDTH 548 0
DWIDTH 8 0
BBX 6 16 1 0
BITMAP
0C
04
28
50
88
00
FC
80
80
80
F8
80
80
80
80
FC
ENDCHAR
STARTCHAR LATIN SMALL LETTER E WITH CIRCUMFLEX AND HOOK ABOVE
ENCODING 7875
SWIDTH 548 0
DWIDTH 8 0
BBX 6 14 1 0
BITMAP
0C
04
28
50
88
00
78
84
84
FC
80
80
84
78
ENDCHAR
STARTCHAR LATIN CAPITAL LETTER E WITH CIRCUMFLEX AND TILDE
ENCODING 7876
SWIDTH 548 0
DWIDTH 8 0
BBX 6 16 1 0
BITMAP
64
98
20
50
88
00
FC
80
80
80
F8
80
80
80
80
FC
ENDCHAR
STARTCHAR LATIN SMALL LETTER E WITH CIRCUMFLEX AND TILDE
ENCODING 7877
SWIDTH 548 0
DWIDTH 8 0
BBX 6 14 1 0
BITMAP
64
98
20
50
88
00
78
84
84
FC
80
80
84
78
ENDCHAR
STARTCHAR LATIN CAPITAL LETTER E WITH CIRCUMFLEX AND DOT BELOW
ENCODING 7878
SWIDTH 548 0
DWIDTH 8 0
BBX 6 17 1 -3
BITMAP
20
50
88
00
FC
80
80
80
F8
80
80
80
80
FC
00
20
20
ENDCHAR
STARTCHAR LATIN SMALL LETTER E WITH CIRCUMFLEX AND DOT BELOW
ENCODING 7879
SWIDTH 548 0
DWIDTH 8 0
BBX 6 15 1 -3
BITMAP
20
50
88
00
78
84
84
FC
80
80
84
78
00
20
20
ENDCHAR
STARTCHAR LATIN CAPITAL LETTER I WITH HOOK ABOVE
ENCODING 7880
SWIDTH 480 0
DWIDTH 7 0
BBX 5 14 1 0
BITMAP
30
10
20
00
F8
20
20
20
20
20
20
20
20
F8
ENDCHAR
STARTCHAR LATIN SMALL LETTER I WITH HOOK ABOVE
ENCODING 7881
SWIDTH 480 0
DWIDTH 7 0
BBX 5 13 1 0
BITMAP
60
20
40
00
00
60
20
20
20
20
20
20
F8
ENDCHAR
STARTCHAR LATIN CAPITAL LETTER I WITH DOT BELOW
ENCODING 7882
SWIDTH 480 0
DWIDTH 7 0
BBX 5 13 1 -3
BITMAP
F8
20
20
20
20
20
20
20
20
F8
00
20
20
ENDCHAR
STARTCHAR LATIN SMALL LETTER I WITH DOT BELOW
ENCODING 7883
SWIDTH 480 0
DWIDTH 7 0
BBX 5 14 1 -3
BITMAP
20
20
00
60
20
20
20
20
20
20
F8
00
20
20
ENDCHAR
STARTCHAR LATIN CAPITAL LETTER O WITH DOT BELOW
ENCODING 7884
SWIDTH 617 0
DWIDTH 9 0
BBX 7 13 1 -3
BITMAP
38
44
82
82
82
82
82
82
44
38
00
10
10
ENDCHAR
STARTCHAR LATIN SMALL LETTER O WITH DOT BELOW
ENCODING 7885
SWIDTH 617 0
DWIDTH 9 0
BBX 7 11 1 -3
BITMAP
38
44
82
82
82
82
44
38
00
10
10
ENDCHAR
STARTCHAR LATIN CAPITAL LETTER O WITH HOOK ABOVE
ENCODING 7886
SWIDTH 617 0
DWIDTH 9 0
BBX 7 14 1 0
BITMAP
18
08
10
00
38
44
82
82
82
82
82
82
44
38
ENDCHAR
STARTCHAR LATIN SMALL LETTER O WITH HOOK ABOVE
ENCODING 7887
SWIDTH 617 0
DWIDTH 9 0
BBX 7 12 1 0
BITMAP
18
08
10
00
38
44
82
82
82
82
44
38
ENDCHAR
STARTCHAR LATIN CAPITAL LETTER O WITH CIRCUMFLEX AND ACUTE
ENCODING 7888
SWIDTH 617 0
DWIDTH 9 0
BBX 7 15 1 0
BITMAP
02
14
28
44
00
38
44
82
82
82
82
82
82
44
38
ENDCHAR
STARTCHAR LATIN SMALL LETTER O WITH CIRCUMFLEX AND ACUTE
ENCODING 7889
SWIDTH 617 0
DWIDTH 9 0
BBX 7 13 1 0
BITMAP
02
14
28
44
00
38
44
82
82
82
82
44
38
ENDCHAR
STARTCHAR LATIN CAPITAL LETTER O WITH CIRCUMFLEX AND GRAVE
ENCODING 7890
SWIDTH 617 0
DWIDTH 9 0
BBX 7 15 1 0
BITMAP
80
50
28
44
00
38
44
82
82
82
82
82
82
44
38
ENDCHAR
STARTCHAR LATIN SMALL LETTER O WITH CIRCUMFLEX AND GRAVE
ENCODING 7891
SWIDTH 617 0
DWIDTH 9 0
BBX 7 13 1 0
BITMAP
80
50
28
44
00
38
44
82
82
82
82
44
38
ENDCHAR
STARTCHAR LATIN CAPITAL LETTER O WITH CIRCUMFLEX AND HOOK ABOVE
ENCODING 7892
SWIDTH 617 0
DWIDTH 9 0
BBX 7 16 1 0
BITMAP
06
02
14
28
44
00
38
44
82
82
82
82
82
82
44
38
ENDCHAR
STARTCHAR LATIN SMALL LETTER O WITH CIRCUMFLEX AND HOOK ABOVE
ENCODING 7893
SWIDTH 617 0
DWIDTH 9 0
BBX 7 14 1 0
BITMAP
06
02
14
28
44
00
38
44
82
82
82
82
44
38
ENDCHAR
STARTCHAR LATIN CAPITAL LETTER O WITH CIRCUMFLEX AND TILDE
ENCODING 7894
SWIDTH 617 0
DWIDTH 9 0
BBX 7 16 1 0
BITMAP
72
8C
10
28
44
00
38
44
82
82
82
82
82
82
44
38
ENDCHAR
STARTCHAR LATIN SMALL LETTER O WITH CIRCUMFLEX AND TILDE
ENCODING 7895
SWIDTH 617 0
DWIDTH 9 0
BBX 7 14 1 0
BITMAP
72
8C
10
28
44
00
38
44
82
82
82
82
44
38
ENDCHAR
STARTCHAR LATIN CAPITAL LETTER O WITH CIRCUMFLEX AND DOT BELOW
ENCODING 7896
SWIDTH 617 0
DWIDTH 9 0
BBX 7 17 1 -3
BITMAP
10
28
44
00
38
44
82
82
82
82
82
82
44
38
00
10
10
ENDCHAR
STARTCHAR LATIN SMALL LETTER O WITH CIRCUMFLEX AND DOT BELOW
ENCODING 7897
SWIDTH 617 0
DWIDTH 9 0
BBX 7 15 1 -3
BITMAP
10
28
44
00
38
44
82
82
82
82
44
38
00
10
10
ENDCHAR
STARTCHAR LATIN CAPITAL LETTER O WITH HORN AND ACUTE
ENCODING 7898
SWIDTH 685 0
DWIDTH 10 0
BBX 8 14 1 0
BITMAP
0C
30
03
01
3A
44
82
82
82
82
82
82
44
38
ENDCHAR
STARTCHAR LATIN SMALL LETTER O WITH HORN AND ACUTE
ENCODING 7899
SWIDTH 685 0
DWIDTH 10 0
BBX 8 12 1 0
BITMAP
0C
30
03
01
3A
44
82
82
82
82
44
38
ENDCHAR
STARTCHAR LATIN CAPITAL LETTER O WITH HORN AND GRAVE
ENCODING 7900
SWIDTH 685 0
DWIDTH 10 0
BBX 8 14 1 0
BITMAP
60
18
03
01
3A
44
82
82
82
82
82
82
44
38
ENDCHAR
STARTCHAR LATIN SMALL LETTER O WITH HORN AND GRAVE
ENCODING 7901
SWIDTH 685 0
DWIDTH 10 0
BBX 8 12 1 0
BITMAP
60
18
03
01
3A
44
82
82
82
82
44
38
ENDCHAR
STARTCHAR LATIN CAPITAL LETTER O WITH HORN AND HOOK ABOVE
ENCODING 7902
SWIDTH 685 0
DWIDTH 10 0
BBX 8 14 1 0
BITMAP
18
08
13
01
3A
44
82
82
82
82
82
82
44
38
ENDCHAR
STARTCHAR LATIN SMALL LETTER O WITH HORN AND HOOK ABOVE
ENCODING 7903
SWIDTH 685 0
DWIDTH 10 0
BBX 8 12 1 0
BITMAP
18
08
13
01
3A
44
82
82
82
82
44
38
ENDCHAR
STARTCHAR LATIN CAPITAL LETTER O WITH HORN AND TILDE
ENCODING 7904
SWIDTH 685 0
DWIDTH 10 0
BBX 8 14 1 0
BITMAP
64
98
03
01
3A
44
82
82
82
82
82
82
44
38
ENDCHAR
STARTCHAR LATIN SMALL LETTER O WITH HORN AND TILDE
ENCODING 7905
SWIDTH 685 0
DWIDTH 10 0
BBX 8 12 1 0
BITMAP
64
98
03
01
3A
44
82
82
82
82
44
38
ENDCHAR
STARTCHAR LATIN CAPITAL LETTER O WITH HORN AND DOT BELOW
ENCODING 7906
SWIDTH 685 0
DWIDTH 10 0
BBX 8 15 1 -3
BITMAP
03
01
3A
44
82
82
82
82
82
82
44
38
00
10
10
ENDCHAR
STARTCHAR LATIN SMALL LETTER O WITH HORN AND DOT BELOW
ENCODING 7907
SWIDTH 685 0
DWIDTH 10 0
BBX 8 13 1 -3
BITMAP
03
01
3A
44
82
82
82
82
44
38
00
10
10
ENDCHAR
STARTCHAR LATIN CAPITAL LETTER U WITH DOT BELOW
ENCODING 7908
SWIDTH 548 0
DWIDTH 8 0
BBX 6 13 1 -3
BITMAP
84
84
84
84
84
84
84
84
84
78
00
20
20
ENDCHAR
STARTCHAR LATIN SMALL LETTER U WITH DOT BELOW
ENCODING 7909
SWIDTH 548 0
DWIDTH 8 0
BBX 6 11 1 -3
BITMAP
84
84
84
84
84
84
8C
74
00
20
20
ENDCHAR
STARTCHAR LATIN CAPITAL LETTER U WITH HOOK ABOVE
ENCODING 7910
SWIDTH 548 0
DWIDTH 8 0
BBX 6 14 1 0
BITMAP
30
10
20
00
84
84
84
84
84
84
84
84
84
78
ENDCHAR
STARTCHAR LATIN SMALL LETTER U WITH HOOK ABOVE
ENCODING 7911
SWIDTH 548 0
DWIDTH 8 0
BBX 6 12 1 0
BITMAP
30
10
20
00
84
84
84
84
84
84
8C
74
ENDCHAR
STARTCHAR LATIN CAPITAL LETTER U WITH HORN AND ACUTE
ENCODING 7912
SWIDTH 685 0
DWIDTH 10 0
BBX 8 14 1 0
BITMAP
18
60
03
01
86
84
84
84
84
84
84
84
84
78
ENDCHAR
STARTCHAR LATIN SMALL LETTER U WITH HORN AND ACUTE
ENCODING 7913
SWIDTH 685 0
DWIDTH 10 0
BBX 8 12 1 0
BITMAP
18
60
03
01
86
84
84
84
84
84
8C
74
ENDCHAR
STARTCHAR LATIN CAPITAL LETTER U WITH HORN AND GRAVE
ENCODING 7914
SWIDTH 685 0
DWIDTH 10 0
BBX 8 14 1 0
BITMAP
60
18
03
01
86
84
84
84
84
84
84
84
84
78
ENDCHAR
STARTCHAR LATIN SMALL LETTER U WITH HORN AND GRAVE
ENCODING 7915
SWIDTH 685 0
DWIDTH 10 0
BBX 8 12 1 0
BITMAP
60
18
03
01
86
84
84
84
84
84
8C
74
ENDCHAR
STARTCHAR LATIN CAPITAL LETTER U WITH HORN AND HOOK ABOVE
ENCODING 7916
SWIDTH 685 0
DWIDTH 10 0
BBX 8 14 1 0
BITMAP
30
10
23
01
86
84
84
84
84
84
84
84
84
78
ENDCHAR
STARTCHAR LATIN SMALL LETTER U WITH HORN AND HOOK ABOVE
ENCODING 7917
SWIDTH 685 0
DWIDTH 10 0
BBX 8 12 1 0
BITMAP
30
10
23
01
86
84
84
84
84
84
8C
74
ENDCHAR
STARTCHAR LATIN CAPITAL LETTER U WITH HORN AND TILDE
ENCODING 7918
SWIDTH 685 0
DWIDTH 10 0
BBX 8 14 1 0
BITMAP
64
98
03
01
86
84
84
84
84
84
84
84
84
78
ENDCHAR
STARTCHAR LATIN SMALL LETTER U WITH HORN AND TILDE
ENCODING 7919
SWIDTH 685 0
DWIDTH 10 0
BBX 8 12 1 0
BITMAP
64
98
03
01
86
84
84
84
84
84
8C
74
ENDCHAR
STARTCHAR LATIN CAPITAL LETTER U WITH HORN AND DOT BELOW
ENCODING 7920
SWIDTH 685 0
DWIDTH 10 0
BBX 8 15 1 -3
BITMAP
03
01
86
84
84
84
84
84
84
84
84
78
00
20
20
ENDCHAR
STARTCHAR LATIN SMALL LETTER U WITH HORN AND DOT BELOW
ENCODING 7921
SWIDTH 685 0
DWIDTH 10 0
BBX 8 13 1 -3
BITMAP
03
01
86
84
84
84
84
84
8C
74
00
20
20
ENDCHAR
STARTCHAR LATIN CAPITAL LETTER Y WITH GRAVE
ENCODING 7922
SWIDTH 617 0
DWIDTH 9 0
BBX 7 14 1 0
BITMAP
60
18
00
00
82
82
44
44
28
10
10
10
10
10
ENDCHAR
STARTCHAR LATIN SMALL LETTER Y WITH GRAVE
ENCODING 7923
SWIDTH 617 0
DWIDTH 9 0
BBX 7 15 1 -3
BITMAP
60
18
00
00
82
82
44
44
28
28
10
10
20
20
40
ENDCHAR
STARTCHAR LATIN CAPITAL LETTER Y WITH DOT BELOW
ENCODING 7924
SWIDTH 617 0
DWIDTH 9 0
BBX 7 13 1 -3
BITMAP
82
82
44
44
28
10
10
10
10
10
00
10
10
ENDCHAR
STARTCHAR LATIN SMALL LETTER Y WITH DOT BELOW
ENCODING 7925
SWIDTH 617 0
DWIDTH 9 0
BBX 7 11 1 -3
BITMAP
82
82
44
44
28
28
10
10
20
24
44
ENDCHAR
STARTCHAR LATIN CAPITAL LETTER Y WITH HOOK ABOVE
ENCODING 7926
SWIDTH 617 0
DWIDTH 9 0
BBX 7 14 1 0
BITMAP
18
08
10
00
82
82
44
44
28
10
10
10
10
10
ENDCHAR
STARTCHAR LATIN SMALL LETTER Y WITH HOOK ABOVE
ENCODING 7927
SWIDTH 617 0
DWIDTH 9 0
BBX 7 15 1 -3
BITMAP
18
08
10
00
82
82
44
44
28
28
10
10
20
20
40
ENDCHAR
STARTCHAR LATIN CAPITAL LETTER Y WITH TILDE
ENCODING 7928
SWIDTH 617 0
DWIDTH 9 0
BBX 7 14 1 0
BITMAP
72
8C
00
00
82
82
44
44
28
10
10
10
10
10
ENDCHAR
STARTCHAR LATIN SMALL LETTER Y WITH TILDE
ENCODING 7929
SWIDTH 617 0
DWIDTH 9 0
BBX 7 15 1 -3
BITMAP
72
8C
00
00
82
82
44
44
28
28
10
10
20
20
40
ENDCHAR
STARTCHAR GREEK SMALL LETTER ALPHA WITH PSILI
ENCODING 7936
SWIDTH 617 0
DWIDTH 9 0
BBX 7 11 1 0
BITMAP
30
10
20
00
32
4A
84
84
84
8A
72
ENDCHAR
STARTCHAR GREEK SMALL LETTER ALPHA WITH DASIA
ENCODING 7937
SWIDTH 617 0
DWIDTH 9 0
BBX 7 11 1 0
BITMAP
30
20
10
00
32
4A
84
84
84
8A
72
ENDCHAR
STARTCHAR GREEK SMALL LETTER ALPHA WITH PSILI AND VARIA
ENCODING 7938
SWIDTH 617 0
DWIDTH 9 0
BBX 7 12 1 0
BITMAP
D0
50
88
08
00
32
4A
84
84
84
8A
72
ENDCHAR
STARTCHAR GREEK SMALL LETTER ALPHA WITH DASIA AND VARIA
ENCODING 7939
SWIDTH 617 0
DWIDTH 9 0
BBX 7 12 1 0
BITMAP
D0
90
48
08
00
32
4A
84
84
84
8A
72
ENDCHAR
STARTCHAR GREEK SMALL LETTER ALPHA WITH PSILI AND OXIA
ENCODING 7940
SWIDTH 617 0
DWIDTH 9 0
BBX 7 12 1 0
BITMAP
C8
48
90
10
00
32
4A
84
84
84
8A
72
ENDCHAR
STARTCHAR GREEK SMALL LETTER ALPHA WITH DASIA AND OXIA
ENCODING 7941
SWIDTH 617 0
DWIDTH 9 0
BBX 7 12 1 0
BITMAP
C8
88
50
10
02
32
4A
84
84
84
8A
72
ENDCHAR
STARTCHAR GREEK SMALL LETTER ALPHA WITH PSILI AND PERISPOMENI
ENCODING 7942
SWIDTH 617 0
DWIDTH 9 0
BBX 7 14 1 0
BITMAP
64
98
00
30
10
20
00
32
4A
84
84
84
8A
72
ENDCHAR
STARTCHAR GREEK SMALL LETTER ALPHA WITH DASIA AND PERISPOMENI
ENCODING 7943
SWIDTH 617 0
DWIDTH 9 0
BBX 7 14 1 0
BITMAP
64
98
00
30
20
10
00
32
4A
84
84
84
8A
72
ENDCHAR
STARTCHAR GREEK CAPITAL LETTER ALPHA WITH PSILI
ENCODING 7944
SWIDTH 754 0
DWIDTH 11 0
BBX 9 11 1 0
BITMAP
C000
4400
8400
0A00
0A00
1100
1100
1F00
2080
2080
2080
ENDCHAR
STARTCHAR GREEK CAPITAL LETTER ALPHA WITH DASIA
ENCODING 7945
SWIDTH 754 0
DWIDTH 11 0
BBX 9 11 1 0
BITMAP
C000
8400
4400
0A00
0A00
1100
1100
1F00
2080
2080
2080
ENDCHAR
STARTCHAR GREEK CAPITAL LETTER ALPHA WITH PSILI AND VARIA
ENCODING 7946
SWIDTH 960 0
DWIDTH 14 0
BBX 12 11 1 0
BITMAP
D000
5080
8880
0940
0140
0220
0220
03E0
0410
0410
0410
ENDCHAR
STARTCHAR GREEK CAPITAL LETTER ALPHA WITH DASIA AND VARIA
ENCODING 7947
SWIDTH 960 0
DWIDTH 14 0
BBX 12 11 1 0
BITMAP
D000
9080
4880
0940
0140
0220
0220
03E0
0410
0410
0410
ENDCHAR
STARTCHAR GREEK CAPITAL LETTER ALPHA WITH PSILI AND OXIA
ENCODING 7948
SWIDTH 960 0
DWIDTH 14 0
BBX 12 11 1 0
BITMAP
C800
4880
9080
1140
0140
0220
0220
03E0
0410
0410
0410
ENDCHAR
STARTCHAR GREEK CAPITAL LETTER ALPHA WITH DASIA AND OXIA
ENCODING 7949
SWIDTH 960 0
DWIDTH 14 0
BBX 12 11 1 0
BITMAP
C800
8880
5080
1140
0140
0220
0220
03E0
0410
0410
0410
ENDCHAR
STARTCHAR GREEK CAPITAL LETTER ALPHA WITH PSILI AND PERISPOMENI
ENCODING 7950
SWIDTH 960 0
DWIDTH 14 0
BBX 12 14 1 0
BITMAP
6400
9800
0000
3000
1080
2080
0140
0140
0220
0220
03E0
0410
0410
0410
ENDCHAR
STARTCHAR GREEK CAPITAL LETTER ALPHA WITH DASIA AND PERISPOMENI
ENCODING 7951
SWIDTH 960 0
DWIDTH 14 0
BBX 12 14 1 0
BITMAP
6400
9800
0000
3000
2080
1080
0140
0140
0220
0220
03E0
0410
0410
0410
ENDCHAR
STARTCHAR GREEK SMALL LETTER EPSILON WITH PSILI
ENCODING 7952
SWIDTH 548 0
DWIDTH 8 0
BBX 6 11 1 0
BITMAP
30
10
20
00
78
84
80
78
80
84
78
ENDCHAR
STARTCHAR GREEK SMALL LETTER EPSILON WITH DASIA
ENCODING 7953
SWIDTH 548 0
DWIDTH 8 0
BBX 6 11 1 0
BITMAP
30
20
10
00
78
84
80
78
80
84
78
ENDCHAR
STARTCHAR GREEK SMALL LETTER EPSILON WITH PSILI AND VARIA
ENCODING 7954
SWIDTH 548 0
DWIDTH 8 0
BBX 6 12 1 0
BITMAP
D0
50
88
08
00
78
84
80
78
80
84
78
ENDCHAR
STARTCHAR GREEK SMALL LETTER EPSILON WITH DASIA AND VARIA
ENCODING 7955
SWIDTH 548 0
DWIDTH 8 0
BBX 6 12 1 0
BITMAP
D0
90
48
08
00
78
84
80
78
80
84
78
ENDCHAR
STARTCHAR GREEK SMALL LETTER EPSILON WITH PSILI AND OXIA
ENCODING 7956
SWIDTH 548 0
DWIDTH 8 0
BBX 6 12 1 0
BITMAP
C8
48
90
10
00
78
84
80
78
80
84
78
ENDCHAR
STARTCHAR GREEK SMALL LETTER EPSILON WITH DASIA AND OXIA
ENCODING 7957
SWIDTH 548 0
DWIDTH 8 0
BBX 6 12 1 0
BITMAP
C8
88
50
10
00
78
84
80
78
80
84
78
ENDCHAR
STARTCHAR GREEK CAPITAL LETTER EPSILON WITH PSILI
ENCODING 7960
SWIDTH 754 0
DWIDTH 11 0
BBX 9 11 1 0
BITMAP
C000
5F80
9000
1000
1000
1F00
1000
1000
1000
1000
1F80
ENDCHAR
STARTCHAR GREEK CAPITAL LETTER EPSILON WITH DASIA
ENCODING 7961
SWIDTH 754 0
DWIDTH 11 0
BBX 9 11 1 0
BITMAP
C000
9F80
5000
1000
1000
1F00
1000
1000
1000
1000
1F80
ENDCHAR
STARTCHAR GREEK CAPITAL LETTER EPSILON WITH PSILI AND VARIA
ENCODING 7962
SWIDTH 960 0
DWIDTH 14 0
BBX 12 11 1 0
BITMAP
D000
53F0
8A00
0A00
0200
03E0
0200
0200
0200
0200
03F0
ENDCHAR
STARTCHAR GREEK CAPITAL LETTER EPSILON WITH DASIA AND VARIA
ENCODING 7963
SWIDTH 960 0
DWIDTH 14 0
BBX 12 11 1 0
BITMAP
D000
93F0
4A00
0A00
0200
03E0
0200
0200
0200
0200
03F0
ENDCHAR
STARTCHAR GREEK CAPITAL LETTER EPSILON WITH PSILI AND OXIA
ENCODING 7964
SWIDTH 960 0
DWIDTH 14 0
BBX 12 11 1 0
BITMAP
C800
4BF0
9200
1200
0200
03E0
0200
0200
0200
0200
03F0
ENDCHAR
STARTCHAR GREEK CAPITAL LETTER EPSILON WITH DASIA AND OXIA
ENCODING 7965
SWIDTH 960 0
DWIDTH 14 0
BBX 12 11 1 0
BITMAP
C800
8BF0
5200
1200
0200
03E0
0200
0200
0200
0200
03F0
ENDCHAR
STARTCHAR GREEK SMALL LETTER ETA WITH PSILI
ENCODING 7968
SWIDTH 617 0
DWIDTH 9 0
BBX 7 13 1 -2
BITMAP
18
08
10
00
DC
62
42
42
42
42
42
02
02
ENDCHAR
STARTCHAR GREEK SMALL LETTER ETA WITH DASIA
ENCODING 7969
SWIDTH 617 0
DWIDTH 9 0
BBX 7 13 1 -2
BITMAP
18
10
08
00
DC
62
42
42
42
42
42
02
02
ENDCHAR
STARTCHAR GREEK SMALL LETTER ETA WITH PSILI AND VARIA
ENCODING 7970
SWIDTH 617 0
DWIDTH 9 0
BBX 7 14 1 -2
BITMAP
68
28
44
04
00
DC
62
42
42
42
42
42
02
02
ENDCHAR
STARTCHAR GREEK SMALL LETTER ETA WITH DASIA AND VARIA
ENCODING 7971
SWIDTH 617 0
DWIDTH 9 0
BBX 7 14 1 -2
BITMAP
68
48
24
04
00
DC
62
42
42
42
42
42
02
02
ENDCHAR
STARTCHAR GREEK SMALL LETTER ETA WITH PSILI AND OXIA
ENCODING 7972
SWIDTH 617 0
DWIDTH 9 0
BBX 7 14 1 -2
BITMAP
64
24
48
08
00
DC
62
42
42
42
42
42
02
02
ENDCHAR
STARTCHAR GREEK SMALL LETTER ETA WITH DASIA AND OXIA
ENCODING 7973
SWIDTH 617 0
DWIDTH 9 0
BBX 7 14 1 -2
BITMAP
64
44
28
08
00
DC
62
42
42
42
42
42
02
02
ENDCHAR
STARTCHAR GREEK SMALL LETTER ETA WITH PSILI AND PERISPOMENI
ENCODING 7974
SWIDTH 617 0
DWIDTH 9 0
BBX 7 16 1 -2
BITMAP
32
4C
00
18
08
10
00
DC
62
42
42
42
42
42
02
02
ENDCHAR
STARTCHAR GREEK SMALL LETTER ETA WITH DASIA AND PERISPOMENI
ENCODING 7975
SWIDTH 617 0
DWIDTH 9 0
BBX 7 16 1 -2
BITMAP
32
4C
00
18
10
08
00
DC
62
42
42
42
42
42
02
02
ENDCHAR
STARTCHAR GREEK CAPITAL LETTER ETA WITH PSILI
ENCODING 7976
SWIDTH 754 0
DWIDTH 11 0
BBX 9 11 1 0
BITMAP
C000
5080
9080
1080
1080
1F80
1080
1080
1080
1080
1080
ENDCHAR
STARTCHAR GREEK CAPITAL LETTER ETA WITH DASIA
ENCODING 7977
SWIDTH 754 0
DWIDTH 11 0
BBX 9 11 1 0
BITMAP
C000
9080
5080
1080
1080
1F80
1080
1080
1080
1080
1080
ENDCHAR
STARTCHAR GREEK CAPITAL LETTER ETA WITH PSILI AND VARIA
ENCODING 7978
SWIDTH 960 0
DWIDTH 14 0
BBX 12 11 1 0
BITMAP
D000
5210
8A10
0A10
0210
03F0
0210
0210
0210
0210
0210
ENDCHAR
STARTCHAR GREEK CAPITAL LETTER ETA WITH DASIA AND VARIA
ENCODING 7979
SWIDTH 960 0
DWIDTH 14 0
BBX 12 11 1 0
BITMAP
D000
9210
4A10
0A10
0210
03F0
0210
0210
0210
0210
0210
ENDCHAR
STARTCHAR GREEK CAPITAL LETTER ETA WITH PSILI AND OXIA
ENCODING 7980
SWIDTH 960 0
DWIDTH 14 0
BBX 12 11 1 0
BITMAP
C800
4A10
9210
1210
0210
03F0
0210
0210
0210
0210
0210
ENDCHAR
STARTCHAR GREEK CAPITAL LETTER ETA WITH DASIA AND OXIA
ENCODING 7981
SWIDTH 960 0
DWIDTH 14 0
BBX 12 11 1 0
BITMAP
C800
8A10
5210
1210
0210
03F0
0210
0210
0210
0210
0210
ENDCHAR
STARTCHAR GREEK CAPITAL LETTER ETA WITH PSILI AND PERISPOMENI
ENCODING 7982
SWIDTH 891 0
DWIDTH 13 0
BBX 11 14 1 0
BITMAP
6400
9800
0000
3000
1420
2420
0420
0420
07E0
0420
0420
0420
0420
0420
ENDCHAR
STARTCHAR GREEK CAPITAL LETTER ETA WITH DASIA AND PERISPOMENI
ENCODING 7983
SWIDTH 891 0
DWIDTH 13 0
BBX 11 14 1 0
BITMAP
6400
9800
0000
3000
2420
1420
0420
0420
07E0
0420
0420
0420
0420
0420
ENDCHAR
STARTCHAR GREEK SMALL LETTER IOTA WITH PSILI
ENCODING 7984
SWIDTH 411 0
DWIDTH 6 0
BBX 3 11 2 0
BITMAP
C0
40
80
00
80
80
80
80
80
80
60
ENDCHAR
STARTCHAR GREEK SMALL LETTER IOTA WITH DASIA
ENCODING 7985
SWIDTH 411 0
DWIDTH 6 0
BBX 3 11 2 0
BITMAP
C0
80
40
00
80
80
80
80
80
80
60
ENDCHAR
STARTCHAR GREEK SMALL LETTER IOTA WITH PSILI AND VARIA
ENCODING 7986
SWIDTH 480 0
DWIDTH 7 0
BBX 5 12 1 0
BITMAP
D0
50
88
08
00
20
20
20
20
20
20
18
ENDCHAR
STARTCHAR GREEK SMALL LETTER IOTA WITH DASIA AND VARIA
ENCODING 7987
SWIDTH 480 0
DWIDTH 7 0
BBX 5 12 1 0
BITMAP
D0
90
48
08
00
20
20
20
20
20
20
18
ENDCHAR
STARTCHAR GREEK SMALL LETTER IOTA WITH PSILI AND OXIA
ENCODING 7988
SWIDTH 480 0
DWIDTH 7 0
BBX 5 12 1 0
BITMAP
C8
48
90
10
00
20
20
20
20
20
20
18
ENDCHAR
STARTCHAR GREEK SMALL LETTER IOTA WITH DASIA AND OXIA
ENCODING 7989
SWIDTH 480 0
DWIDTH 7 0
BBX 5 12 1 0
BITMAP
C8
88
50
10
00
20
20
20
20
20
20
18
ENDCHAR
STARTCHAR GREEK SMALL LETTER IOTA WITH PSILI AND PERISPOMENI
ENCODING 7990
SWIDTH 548 0
DWIDTH 8 0
BBX 6 14 1 0
BITMAP
64
98
00
30
10
20
00
20
20
20
20
20
20
18
ENDCHAR
STARTCHAR GREEK SMALL LETTER IOTA WITH DASIA AND PERISPOMENI
ENCODING 7991
SWIDTH 548 0
DWIDTH 8 0
BBX 6 14 1 0
BITMAP
64
98
00
30
20
10
00
20
20
20
20
20
20
18
ENDCHAR
STARTCHAR GREEK CAPITAL LETTER IOTA WITH PSILI
ENCODING 7992
SWIDTH 548 0
DWIDTH 8 0
BBX 6 11 1 0
BITMAP
C0
5C
88
08
08
08
08
08
08
08
1C
ENDCHAR
STARTCHAR GREEK CAPITAL LETTER IOTA WITH DASIA
ENCODING 7993
SWIDTH 548 0
DWIDTH 8 0
BBX 6 11 1 0
BITMAP
C0
9C
48
08
08
08
08
08
08
08
1C
ENDCHAR
STARTCHAR GREEK CAPITAL LETTER IOTA WITH PSILI AND VARIA
ENCODING 7994
SWIDTH 754 0
DWIDTH 11 0
BBX 9 11 1 0
BITMAP
D000
5380
8900
0900
0100
0100
0100
0100
0100
0100
0380
ENDCHAR
STARTCHAR GREEK CAPITAL LETTER IOTA WITH DASIA AND VARIA
ENCODING 7995
SWIDTH 754 0
DWIDTH 11 0
BBX 9 11 1 0
BITMAP
D000
9380
4900
0900
0100
0100
0100
0100
0100
0100
0380
ENDCHAR
STARTCHAR GREEK CAPITAL LETTER IOTA WITH PSILI AND OXIA
ENCODING 7996
SWIDTH 754 0
DWIDTH 11 0
BBX 9 11 1 0
BITMAP
C800
4B80
9100
1100
0100
0100
0100
0100
0100
0100
0380
ENDCHAR
STARTCHAR GREEK CAPITAL LETTER IOTA WITH DASIA AND OXIA
ENCODING 7997
SWIDTH 754 0
DWIDTH 11 0
BBX 9 11 1 0
BITMAP
C800
8B80
5100
1100
0100
0100
0100
0100
0100
0100
0380
ENDCHAR
STARTCHAR GREEK CAPITAL LETTER IOTA WITH PSILI AND PERISPOMENI
ENCODING 7998
SWIDTH 685 0
DWIDTH 10 0
BBX 8 14 1 0
BITMAP
64
98
00
30
17
22
02
02
02
02
02
02
02
07
ENDCHAR
STARTCHAR GREEK CAPITAL LETTER IOTA WITH DASIA AND PERISPOMENI
ENCODING 7999
SWIDTH 685 0
DWIDTH 10 0
BBX 8 14 1 0
BITMAP
64
98
00
30
27
12
02
02
02
02
02
02
02
07
ENDCHAR
STARTCHAR GREEK SMALL LETTER OMICRON WITH PSILI
ENCODING 8000
SWIDTH 617 0
DWIDTH 9 0
BBX 7 11 1 0
BITMAP
18
08
10
00
38
44
82
82
82
44
38
ENDCHAR
STARTCHAR GREEK SMALL LETTER OMICRON WITH DASIA
ENCODING 8001
SWIDTH 617 0
DWIDTH 9 0
BBX 7 11 1 0
BITMAP
18
10
08
00
38
44
82
82
82
44
38
ENDCHAR
STARTCHAR GREEK SMALL LETTER OMICRON WITH PSILI AND VARIA
ENCODING 8002
SWIDTH 617 0
DWIDTH 9 0
BBX 7 12 1 0
BITMAP
68
28
44
04
00
38
44
82
82
82
44
38
ENDCHAR
STARTCHAR GREEK SMALL LETTER OMICRON WITH DASIA AND VARIA
ENCODING 8003
SWIDTH 617 0
DWIDTH 9 0
BBX 7 12 1 0
BITMAP
68
48
24
04
00
38
44
82
82
82
44
38
ENDCHAR
STARTCHAR GREEK SMALL LETTER OMICRON WITH PSILI AND OXIA
ENCODING 8004
SWIDTH 617 0
DWIDTH 9 0
BBX 7 12 1 0
BITMAP
64
24
48
08
00
38
44
82
82
82
44
38
ENDCHAR
STARTCHAR GREEK SMALL LETTER OMICRON WITH DASIA AND OXIA
ENCODING 8005
SWIDTH 617 0
DWIDTH 9 0
BBX 7 12 1 0
BITMAP
64
44
28
08
00
38
44
82
82
82
44
38
ENDCHAR
STARTCHAR GREEK CAPITAL LETTER OMICRON WITH PSILI
ENCODING 8008
SWIDTH 754 0
DWIDTH 11 0
BBX 9 11 1 0
BITMAP
C000
4E00
9100
2080
2080
2080
2080
2080
2080
1100
0E00
ENDCHAR
STARTCHAR GREEK CAPITAL LETTER OMICRON WITH DASIA
ENCODING 8009
SWIDTH 822 0
DWIDTH 12 0
BBX 10 11 1 0
BITMAP
C000
8700
4880
1040
1040
1040
1040
1040
1040
0880
0700
ENDCHAR
STARTCHAR GREEK CAPITAL LETTER OMICRON WITH PSILI AND VARIA
ENCODING 8010
SWIDTH 1028 0
DWIDTH 15 0
BBX 13 11 1 0
BITMAP
D000
50E0
8910
0A08
0208
0208
0208
0208
0208
0110
00E0
ENDCHAR
STARTCHAR GREEK CAPITAL LETTER OMICRON WITH DASIA AND VARIA
ENCODING 8011
SWIDTH 1028 0
DWIDTH 15 0
BBX 13 11 1 0
BITMAP
D000
90E0
4910
0A08
0208
0208
0208
0208
0208
0110
00E0
ENDCHAR
STARTCHAR GREEK CAPITAL LETTER OMICRON WITH PSILI AND OXIA
ENCODING 8012
SWIDTH 960 0
DWIDTH 14 0
BBX 12 11 1 0
BITMAP
C800
49C0
9220
1410
0410
0410
0410
0410
0410
0220
01C0
ENDCHAR
STARTCHAR GREEK CAPITAL LETTER OMICRON WITH DASIA AND OXIA
ENCODING 8013
SWIDTH 960 0
DWIDTH 14 0
BBX 12 11 1 0
BITMAP
C800
89C0
5220
1410
0410
0410
0410
0410
0410
0220
01C0
ENDCHAR
STARTCHAR GREEK SMALL LETTER UPSILON WITH PSILI
ENCODING 8016
SWIDTH 617 0
DWIDTH 9 0
BBX 7 11 1 0
BITMAP
18
08
10
00
82
82
82
82
82
44
38
ENDCHAR
STARTCHAR GREEK SMALL LETTER UPSILON WITH DASIA
ENCODING 8017
SWIDTH 617 0
DWIDTH 9 0
BBX 7 11 1 0
BITMAP
30
20
10
00
82
82
82
82
82
44
38
ENDCHAR
STARTCHAR GREEK SMALL LETTER UPSILON WITH PSILI AND VARIA
ENCODING 8018
SWIDTH 617 0
DWIDTH 9 0
BBX 7 12 1 0
BITMAP
68
28
44
04
00
82
82
82
82
82
44
38
ENDCHAR
STARTCHAR GREEK SMALL LETTER UPSILON WITH DASIA AND VARIA
ENCODING 8019
SWIDTH 617 0
DWIDTH 9 0
BBX 7 12 1 0
BITMAP
68
48
24
04
00
82
82
82
82
82
44
38
ENDCHAR
STARTCHAR GREEK SMALL LETTER UPSILON WITH PSILI AND OXIA
ENCODING 8020
SWIDTH 617 0
DWIDTH 9 0
BBX 7 12 1 0
BITMAP
64
24
48
08
00
82
82
82
82
82
44
38
ENDCHAR
STARTCHAR GREEK SMALL LETTER UPSILON WITH DASIA AND OXIA
ENCODING 8021
SWIDTH 617 0
DWIDTH 9 0
BBX 7 12 1 0
BITMAP
64
44
28
08
00
82
82
82
82
82
44
38
ENDCHAR
STARTCHAR GREEK SMALL LETTER UPSILON WITH PSILI AND PERISPOMENI
ENCODING 8022
SWIDTH 617 0
DWIDTH 9 0
BBX 7 14 1 0
BITMAP
72
8C
00
18
08
10
00
82
82
82
82
82
44
38
ENDCHAR
STARTCHAR GREEK SMALL LETTER UPSILON WITH DASIA AND PERISPOMENI
ENCODING 8023
SWIDTH 617 0
DWIDTH 9 0
BBX 7 14 1 0
BITMAP
72
8C
00
30
20
10
00
82
82
82
82
82
44
38
ENDCHAR
STARTCHAR GREEK CAPITAL LETTER UPSILON WITH DASIA
ENCODING 8025
SWIDTH 822 0
DWIDTH 12 0
BBX 10 11 1 0
BITMAP
C000
9040
5040
0880
0880
0500
0200
0200
0200
0200
0200
ENDCHAR
STARTCHAR GREEK CAPITAL LETTER UPSILON WITH DASIA AND VARIA
ENCODING 8027
SWIDTH 1028 0
DWIDTH 15 0
BBX 13 11 1 0
BITMAP
D000
9208
4A08
0910
0110
00A0
0040
0040
0040
0040
0040
ENDCHAR
STARTCHAR GREEK CAPITAL LETTER UPSILON WITH DASIA AND OXIA
ENCODING 8029
SWIDTH 1028 0
DWIDTH 15 0
BBX 13 11 1 0
BITMAP
C800
8A08
5208
1110
0110
00A0
0040
0040
0040
0040
0040
ENDCHAR
STARTCHAR GREEK CAPITAL LETTER UPSILON WITH DASIA AND PERISPOMENI
ENCODING 8031
SWIDTH 960 0
DWIDTH 14 0
BBX 12 14 1 0
BITMAP
6400
9800
0000
3000
2410
1410
0220
0220
0140
0080
0080
0080
0080
0080
ENDCHAR
STARTCHAR GREEK SMALL LETTER OMEGA WITH PSILI
ENCODING 8032
SWIDTH 754 0
DWIDTH 11 0
BBX 9 11 1 0
BITMAP
0C00
0400
0800
0000
2200
4100
8080
8880
8880
4900
3600
ENDCHAR
STARTCHAR GREEK SMALL LETTER OMEGA WITH DASIA
ENCODING 8033
SWIDTH 754 0
DWIDTH 11 0
BBX 9 11 1 0
BITMAP
1800
1000
0800
0000
2200
4100
8080
8880
8880
4900
3600
ENDCHAR
STARTCHAR GREEK SMALL LETTER OMEGA WITH PSILI AND VARIA
ENCODING 8034
SWIDTH 754 0
DWIDTH 11 0
BBX 9 12 1 0
BITMAP
3400
1400
2200
0200
0000
2200
4100
8080
8880
8880
4900
3600
ENDCHAR
STARTCHAR GREEK SMALL LETTER OMEGA WITH DASIA AND VARIA
ENCODING 8035
SWIDTH 754 0
DWIDTH 11 0
BBX 9 12 1 0
BITMAP
3400
2400
1200
0200
0000
2200
4100
8080
8880
8880
4900
3600
ENDCHAR
STARTCHAR GREEK SMALL LETTER OMEGA WITH PSILI AND OXIA
ENCODING 8036
SWIDTH 754 0
DWIDTH 11 0
BBX 9 12 1 0
BITMAP
3200
1200
2400
0400
0000
2200
4100
8080
8880
8880
4900
3600
ENDCHAR
STARTCHAR GREEK SMALL LETTER OMEGA WITH DASIA AND OXIA
ENCODING 8037
SWIDTH 754 0
DWIDTH 11 0
BBX 9 12 1 0
BITMAP
3200
2200
1400
0400
0000
2200
4100
8080
8880
8880
4900
3600
ENDCHAR
STARTCHAR GREEK SMALL LETTER OMEGA WITH PSILI AND PERISPOMENI
ENCODING 8038
SWIDTH 754 0
DWIDTH 11 0
BBX 9 14 1 0
BITMAP
1900
2600
0000
0C00
0400
0800
0000
2200
4100
8080
8880
8880
4900
3600
ENDCHAR
STARTCHAR GREEK SMALL LETTER OMEGA WITH DASIA AND PERISPOMENI
ENCODING 8039
SWIDTH 754 0
DWIDTH 11 0
BBX 9 14 1 0
BITMAP
3200
4C00
0000
1800
1000
0800
0000
2200
4100
8080
8880
8880
4900
3600
ENDCHAR
STARTCHAR GREEK CAPITAL LETTER OMEGA WITH PSILI
ENCODING 8040
SWIDTH 822 0
DWIDTH 12 0
BBX 10 11 1 0
BITMAP
C000
4F00
9080
2040
2040
2040
2040
1080
0900
0900
39C0
ENDCHAR
STARTCHAR GREEK CAPITAL LETTER OMEGA WITH DASIA
ENCODING 8041
SWIDTH 891 0
DWIDTH 13 0
BBX 11 11 1 0
BITMAP
C000
8780
4840
1020
1020
1020
1020
0840
0480
0480
1CE0
ENDCHAR
STARTCHAR GREEK CAPITAL LETTER OMEGA WITH PSILI AND VARIA
ENCODING 8042
SWIDTH 1097 0
DWIDTH 16 0
BBX 14 11 1 0
BITMAP
D000
50F0
8908
0A04
0204
0204
0204
0108
0090
0090
039C
ENDCHAR
STARTCHAR GREEK CAPITAL LETTER OMEGA WITH DASIA AND VARIA
ENCODING 8043
SWIDTH 1097 0
DWIDTH 16 0
BBX 14 11 1 0
BITMAP
D000
90F0
4908
0A04
0204
0204
0204
0108
0090
0090
039C
ENDCHAR
STARTCHAR GREEK CAPITAL LETTER OMEGA WITH PSILI AND OXIA
ENCODING 8044
SWIDTH 1097 0
DWIDTH 16 0
BBX 14 11 1 0
BITMAP
C800
48F0
9108
1204
0204
0204
0204
0108
0090
0090
039C
ENDCHAR
STARTCHAR GREEK CAPITAL LETTER OMEGA WITH DASIA AND OXIA
ENCODING 8045
SWIDTH 1028 0
DWIDTH 15 0
BBX 13 11 1 0
BITMAP
C800
89E0
5210
1408
0408
0408
0408
0210
0120
0120
0738
ENDCHAR
STARTCHAR GREEK CAPITAL LETTER OMEGA WITH PSILI AND PERISPOMENI
ENCODING 8046
SWIDTH 1028 0
DWIDTH 15 0
BBX 13 14 1 0
BITMAP
6400
9800
0000
3000
11E0
2210
0408
0408
0408
0408
0210
0120
0120
0738
ENDCHAR
STARTCHAR GREEK CAPITAL LETTER OMEGA WITH DASIA AND PERISPOMENI
ENCODING 8047
SWIDTH 1028 0
DWIDTH 15 0
BBX 13 14 1 0
BITMAP
6400
9800
0000
3000
21E0
1210
0408
0408
0408
0408
0210
0120
0120
0738
ENDCHAR
STARTCHAR GREEK SMALL LETTER ALPHA WITH VARIA
ENCODING 8048
SWIDTH 617 0
DWIDTH 9 0
BBX 7 12 1 0
BITMAP
20
20
10
10
00
32
4A
84
84
84
8A
72
ENDCHAR
STARTCHAR GREEK SMALL LETTER ALPHA WITH OXIA
ENCODING 8049
SWIDTH 617 0
DWIDTH 9 0
BBX 7 12 1 0
BITMAP
10
10
20
20
00
32
4A
84
84
84
8A
72
ENDCHAR
STARTCHAR GREEK SMALL LETTER EPSILON WITH VARIA
ENCODING 8050
SWIDTH 548 0
DWIDTH 8 0
BBX 6 12 1 0
BITMAP
20
20
10
10
00
78
84
80
78
80
84
78
ENDCHAR
STARTCHAR GREEK SMALL LETTER EPSILON WITH OXIA
ENCODING 8051
SWIDTH 548 0
DWIDTH 8 0
BBX 6 12 1 0
BITMAP
10
10
20
20
00
78
84
80
78
80
84
78
ENDCHAR
STARTCHAR GREEK SMALL LETTER ETA WITH VARIA
ENCODING 8052
SWIDTH 617 0
DWIDTH 9 0
BBX 7 14 1 -2
BITMAP
10
10
08
08
00
DC
62
42
42
42
42
42
02
02
ENDCHAR
STARTCHAR GREEK SMALL LETTER ETA WITH OXIA
ENCODING 8053
SWIDTH 617 0
DWIDTH 9 0
BBX 7 14 1 -2
BITMAP
08
08
10
10
00
DC
62
42
42
42
42
42
02
02
ENDCHAR
STARTCHAR GREEK SMALL LETTER IOTA WITH VARIA
ENCODING 8054
SWIDTH 411 0
DWIDTH 6 0
BBX 3 12 2 0
BITMAP
80
80
40
40
00
80
80
80
80
80
80
60
ENDCHAR
STARTCHAR GREEK SMALL LETTER IOTA WITH OXIA
ENCODING 8055
SWIDTH 411 0
DWIDTH 6 0
BBX 3 12 2 0
BITMAP
40
40
80
80
00
80
80
80
80
80
80
60
ENDCHAR
STARTCHAR GREEK SMALL LETTER OMICRON WITH VARIA
ENCODING 8056
SWIDTH 617 0
DWIDTH 9 0
BBX 7 12 1 0
BITMAP
20
20
10
10
00
38
44
82
82
82
44
38
ENDCHAR
STARTCHAR GREEK SMALL LETTER OMICRON WITH OXIA
ENCODING 8057
SWIDTH 617 0
DWIDTH 9 0
BBX 7 12 1 0
BITMAP
08
08
10
10
00
38
44
82
82
82
44
38
ENDCHAR
STARTCHAR GREEK SMALL LETTER UPSILON WITH VARIA
ENCODING 8058
SWIDTH 617 0
DWIDTH 9 0
BBX 7 12 1 0
BITMAP
20
20
10
10
00
82
82
82
82
82
44
38
ENDCHAR
STARTCHAR GREEK SMALL LETTER UPSILON WITH OXIA
ENCODING 8059
SWIDTH 617 0
DWIDTH 9 0
BBX 7 12 1 0
BITMAP
08
08
10
10
00
82
82
82
82
82
44
38
ENDCHAR
STARTCHAR GREEK SMALL LETTER OMEGA WITH VARIA
ENCODING 8060
SWIDTH 754 0
DWIDTH 11 0
BBX 9 12 1 0
BITMAP
1000
1000
0800
0800
0000
2200
4100
8080
8880
8880
4900
3600
ENDCHAR
STARTCHAR GREEK SMALL LETTER OMEGA WITH OXIA
ENCODING 8061
SWIDTH 754 0
DWIDTH 11 0
BBX 9 12 1 0
BITMAP
0400
0400
0800
0800
0000
2200
4100
8080
8880
8880
4900
3600
ENDCHAR
STARTCHAR GREEK SMALL LETTER ALPHA WITH PSILI
ENCODING 8064
SWIDTH 617 0
DWIDTH 9 0
BBX 7 14 1 -3
BITMAP
30
10
20
00
32
4A
84
84
84
8A
72
20
20
10
ENDCHAR
STARTCHAR GREEK SMALL LETTER ALPHA WITH DASIA
ENCODING 8065
SWIDTH 617 0
DWIDTH 9 0
BBX 7 14 1 -3
BITMAP
30
20
10
00
32
4A
84
84
84
8A
72
20
20
10
ENDCHAR
STARTCHAR GREEK SMALL LETTER ALPHA WITH PSILI AND VARIA
ENCODING 8066
SWIDTH 617 0
DWIDTH 9 0
BBX 7 15 1 -3
BITMAP
68
28
44
04
00
32
4A
84
84
84
8A
72
20
20
10
ENDCHAR
STARTCHAR GREEK SMALL LETTER ALPHA WITH DASIA AND VARIA
ENCODING 8067
SWIDTH 617 0
DWIDTH 9 0
BBX 7 15 1 -3
BITMAP
68
48
24
04
00
32
4A
84
84
84
8A
72
20
20
10
ENDCHAR
STARTCHAR GREEK SMALL LETTER ALPHA WITH PSILI AND OXIA
ENCODING 8068
SWIDTH 617 0
DWIDTH 9 0
BBX 7 15 1 -3
BITMAP
64
24
48
08
00
32
4A
84
84
84
8A
72
20
20
10
ENDCHAR
STARTCHAR GREEK SMALL LETTER ALPHA WITH DASIA AND OXIA
ENCODING 8069
SWIDTH 617 0
DWIDTH 9 0
BBX 7 15 1 -3
BITMAP
64
44
28
08
00
32
4A
84
84
84
8A
72
20
20
10
ENDCHAR
STARTCHAR GREEK SMALL LETTER ALPHA WITH PSILI AND PERISPOMENI
ENCODING 8070
SWIDTH 617 0
DWIDTH 9 0
BBX 7 17 1 -3
BITMAP
64
98
00
30
10
20
00
32
4A
84
84
84
8A
72
20
20
10
ENDCHAR
STARTCHAR GREEK SMALL LETTER ALPHA WITH DASIA AND PERISPOMENI
ENCODING 8071
SWIDTH 617 0
DWIDTH 9 0
BBX 7 17 1 -3
BITMAP
64
98
00
30
20
10
00
32
4A
84
84
84
8A
72
20
20
10
ENDCHAR
STARTCHAR GREEK CAPITAL LETTER ALPHA WITH PSILI
ENCODING 8072
SWIDTH 1097 0
DWIDTH 16 0
BBX 14 11 1 0
BITMAP
C000
4400
8400
0A00
0A10
1110
1110
1F10
2090
2090
208C
ENDCHAR
STARTCHAR GREEK CAPITAL LETTER ALPHA WITH DASIA
ENCODING 8073
SWIDTH 1097 0
DWIDTH 16 0
BBX 14 11 1 0
BITMAP
C000
8400
4400
0A10
0A10
1110
1110
1F10
2090
2090
208C
ENDCHAR
STARTCHAR GREEK CAPITAL LETTER ALPHA WITH PSILI AND VARIA
ENCODING 8074
SWIDTH 1302 0
DWIDTH 19 0
BBX 17 11 1 0
BITMAP
D00000
508000
888000
094000
014200
022200
022200
03E200
041200
041200
041180
ENDCHAR
STARTCHAR GREEK CAPITAL LETTER ALPHA WITH DASIA AND VARIA
ENCODING 8075
SWIDTH 1302 0
DWIDTH 19 0
BBX 17 11 1 0
BITMAP
D00000
908000
488000
094000
014200
022200
022200
03E200
041200
041200
041180
ENDCHAR
STARTCHAR GREEK CAPITAL LETTER ALPHA WITH PSILI AND OXIA
ENCODING 8076
SWIDTH 1302 0
DWIDTH 19 0
BBX 17 11 1 0
BITMAP
C80000
488000
908000
114000
014200
022200
022200
03E200
041200
041200
041180
ENDCHAR
STARTCHAR GREEK CAPITAL LETTER ALPHA WITH DASIA AND OXIA
ENCODING 8077
SWIDTH 1302 0
DWIDTH 19 0
BBX 17 11 1 0
BITMAP
C80000
888000
508000
114000
014200
022200
022200
03E200
041200
041200
041180
ENDCHAR
STARTCHAR GREEK CAPITAL LETTER ALPHA WITH PSILI AND PERISPOMENI
ENCODING 8078
SWIDTH 1302 0
DWIDTH 19 0
BBX 17 14 1 0
BITMAP
640000
980000
000000
300000
108000
208000
014000
014200
022200
022200
03E200
041200
041200
041180
ENDCHAR
STARTCHAR GREEK CAPITAL LETTER ALPHA WITH DASIA AND PERISPOMENI
ENCODING 8079
SWIDTH 1302 0
DWIDTH 19 0
BBX 17 14 1 0
BITMAP
640000
980000
000000
300000
208000
108000
014000
014200
022200
022200
03E200
041200
041200
041180
ENDCHAR
STARTCHAR GREEK SMALL LETTER ETA WITH PSILI
ENCODING 8080
SWIDTH 617 0
DWIDTH 9 0
BBX 7 14 1 -3
BITMAP
18
08
10
00
DC
62
42
42
42
42
42
22
22
10
ENDCHAR
STARTCHAR GREEK SMALL LETTER ETA WITH DASIA
ENCODING 8081
SWIDTH 617 0
DWIDTH 9 0
BBX 7 14 1 -3
BITMAP
18
10
08
00
DC
62
42
42
42
42
42
22
22
10
ENDCHAR
STARTCHAR GREEK SMALL LETTER ETA WITH PSILI AND VARIA
ENCODING 8082
SWIDTH 617 0
DWIDTH 9 0
BBX 7 15 1 -3
BITMAP
68
28
44
04
00
DC
62
42
42
42
42
42
22
20
10
ENDCHAR
STARTCHAR GREEK SMALL LETTER ETA WITH DASIA AND VARIA
ENCODING 8083
SWIDTH 617 0
DWIDTH 9 0
BBX 7 15 1 -3
BITMAP
68
48
24
04
00
DC
62
42
42
42
42
42
22
22
10
ENDCHAR
STARTCHAR GREEK SMALL LETTER ETA WITH PSILI AND OXIA
ENCODING 8084
SWIDTH 617 0
DWIDTH 9 0
BBX 7 15 1 -3
BITMAP
64
24
48
08
00
DC
62
42
42
42
42
42
22
22
10
ENDCHAR
STARTCHAR GREEK SMALL LETTER ETA WITH DASIA AND OXIA
ENCODING 8085
SWIDTH 617 0
DWIDTH 9 0
BBX 7 15 1 -3
BITMAP
64
44
28
08
00
DC
62
42
42
42
42
42
22
22
10
ENDCHAR
STARTCHAR GREEK SMALL LETTER ETA WITH PSILI AND PERISPOMENI
ENCODING 8086
SWIDTH 617 0
DWIDTH 9 0
BBX 7 17 1 -3
BITMAP
32
4C
00
18
08
10
00
DC
62
42
42
42
42
42
22
22
10
ENDCHAR
STARTCHAR GREEK SMALL LETTER ETA WITH DASIA AND PERISPOMENI
ENCODING 8087
SWIDTH 617 0
DWIDTH 9 0
BBX 7 17 1 -3
BITMAP
32
4C
00
18
10
08
00
DC
62
42
42
42
42
42
22
22
10
ENDCHAR
STARTCHAR GREEK CAPITAL LETTER ETA WITH PSILI
ENCODING 8088
SWIDTH 1097 0
DWIDTH 16 0
BBX 14 11 1 0
BITMAP
C000
5080
9080
1080
1090
1F90
1090
1090
1090
1090
108C
ENDCHAR
STARTCHAR GREEK CAPITAL LETTER ETA WITH DASIA
ENCODING 8089
SWIDTH 1097 0
DWIDTH 16 0
BBX 14 11 1 0
BITMAP
C000
9080
5080
1080
1090
1F90
1090
1090
1090
1090
108C
ENDCHAR
STARTCHAR GREEK CAPITAL LETTER ETA WITH PSILI AND VARIA
ENCODING 8090
SWIDTH 1302 0
DWIDTH 19 0
BBX 17 11 1 0
BITMAP
D00000
521000
8A1000
0A1000
021200
03F200
021200
021200
021200
021200
021180
ENDCHAR
STARTCHAR GREEK CAPITAL LETTER ETA WITH DASIA AND VARIA
ENCODING 8091
SWIDTH 1302 0
DWIDTH 19 0
BBX 17 11 1 0
BITMAP
D00000
921000
4A1000
0A1000
021200
03F200
021200
021200
021200
021200
021180
ENDCHAR
STARTCHAR GREEK CAPITAL LETTER ETA WITH PSILI AND OXIA
ENCODING 8092
SWIDTH 1302 0
DWIDTH 19 0
BBX 17 11 1 0
BITMAP
C80000
4A1000
921000
121000
021200
03F200
021200
021200
021200
021200
021180
ENDCHAR
STARTCHAR GREEK CAPITAL LETTER ETA WITH DASIA AND OXIA
ENCODING 8093
SWIDTH 1302 0
DWIDTH 19 0
BBX 17 11 1 0
BITMAP
C80000
8A1000
521000
121000
021200
03F200
021200
021200
021200
021200
021180
ENDCHAR
STARTCHAR GREEK CAPITAL LETTER ETA WITH PSILI AND PERISPOMENI
ENCODING 8094
SWIDTH 1302 0
DWIDTH 19 0
BBX 17 14 1 0
BITMAP
640000
980000
000000
300000
121000
221000
021000
021200
03F200
021200
021200
021200
021200
021180
ENDCHAR
STARTCHAR GREEK CAPITAL LETTER ETA WITH DASIA AND PERISPOMENI
ENCODING 8095
SWIDTH 1302 0
DWIDTH 19 0
BBX 17 14 1 0
BITMAP
640000
980000
000000
300000
221000
121000
021000
021200
03F200
021200
021200
021200
021200
021180
ENDCHAR
STARTCHAR GREEK SMALL LETTER OMEGA WITH PSILI
ENCODING 8096
SWIDTH 754 0
DWIDTH 11 0
BBX 9 14 1 -3
BITMAP
0C00
0400
0800
0000
2200
4100
8080
8880
8880
4900
3600
0800
0800
0400
ENDCHAR
STARTCHAR GREEK SMALL LETTER OMEGA WITH DASIA
ENCODING 8097
SWIDTH 754 0
DWIDTH 11 0
BBX 9 14 1 -3
BITMAP
1800
1000
0800
0000
2200
4100
8080
8880
8880
4900
3600
0800
0800
0400
ENDCHAR
STARTCHAR GREEK SMALL LETTER OMEGA WITH PSILI AND VARIA
ENCODING 8098
SWIDTH 754 0
DWIDTH 11 0
BBX 9 15 1 -3
BITMAP
3400
1400
2200
0200
0000
2200
4100
8080
8880
8880
4900
3600
0800
0800
0400
ENDCHAR
STARTCHAR GREEK SMALL LETTER OMEGA WITH DASIA AND VARIA
ENCODING 8099
SWIDTH 754 0
DWIDTH 11 0
BBX 9 15 1 -3
BITMAP
3400
2400
1200
0200
0000
2200
4100
8080
8880
8880
4900
3600
0800
0800
0400
ENDCHAR
STARTCHAR GREEK SMALL LETTER OMEGA WITH PSILI AND OXIA
ENCODING 8100
SWIDTH 754 0
DWIDTH 11 0
BBX 9 15 1 -3
BITMAP
3200
1200
2400
0400
0000
2200
4100
8080
8880
8880
4900
3600
0800
0800
0400
ENDCHAR
STARTCHAR GREEK SMALL LETTER OMEGA WITH DASIA AND OXIA
ENCODING 8101
SWIDTH 754 0
DWIDTH 11 0
BBX 9 15 1 -3
BITMAP
3200
2200
1400
0400
0000
2200
4100
8080
8880
8880
4900
3600
0800
0800
0400
ENDCHAR
STARTCHAR GREEK SMALL LETTER OMEGA WITH PSILI AND PERISPOMENI
ENCODING 8102
SWIDTH 754 0
DWIDTH 11 0
BBX 9 17 1 -3
BITMAP
3900
4600
0000
0C00
0400
0800
0000
2200
4100
8080
8880
8880
4900
3600
0800
0800
0400
ENDCHAR
STARTCHAR GREEK SMALL LETTER OMEGA WITH DASIA AND PERISPOMENI
ENCODING 8103
SWIDTH 754 0
DWIDTH 11 0
BBX 9 17 1 -3
BITMAP
3900
4600
0000
1800
1000
0800
0000
2200
4100
8080
8880
8880
4900
3600
0800
0800
0400
ENDCHAR
STARTCHAR GREEK CAPITAL LETTER OMEGA WITH PSILI
ENCODING 8104
SWIDTH 1165 0
DWIDTH 17 0
BBX 15 11 1 0
BITMAP
C000
4F00
9080
2040
2048
2048
2048
1088
0908
0908
39C6
ENDCHAR
STARTCHAR GREEK CAPITAL LETTER OMEGA WITH DASIA
ENCODING 8105
SWIDTH 1234 0
DWIDTH 18 0
BBX 16 11 1 0
BITMAP
C000
8780
4840
1020
1024
1024
1024
0844
0484
0484
1CE3
ENDCHAR
STARTCHAR GREEK CAPITAL LETTER OMEGA WITH PSILI AND VARIA
ENCODING 8106
SWIDTH 1440 0
DWIDTH 21 0
BBX 19 11 1 0
BITMAP
D00000
50F000
890800
0A0400
020480
020480
020480
010880
009080
009080
039C60
ENDCHAR
STARTCHAR GREEK CAPITAL LETTER OMEGA WITH DASIA AND VARIA
ENCODING 8107
SWIDTH 1440 0
DWIDTH 21 0
BBX 19 11 1 0
BITMAP
D00000
90F000
490800
0A0400
020480
020480
020480
010880
009080
009080
039C60
ENDCHAR
STARTCHAR GREEK CAPITAL LETTER OMEGA WITH PSILI AND OXIA
ENCODING 8108
SWIDTH 1371 0
DWIDTH 20 0
BBX 18 11 1 0
BITMAP
C80000
49E000
921000
140800
040900
040900
040900
021100
012100
012100
0738C0
ENDCHAR
STARTCHAR GREEK CAPITAL LETTER OMEGA WITH DASIA AND OXIA
ENCODING 8109
SWIDTH 1371 0
DWIDTH 20 0
BBX 18 11 1 0
BITMAP
C80000
89E000
521000
140800
040900
040900
040900
021100
012100
012100
0738C0
ENDCHAR
STARTCHAR GREEK CAPITAL LETTER OMEGA WITH PSILI AND PERISPOMENI
ENCODING 8110
SWIDTH 1371 0
DWIDTH 20 0
BBX 18 14 1 0
BITMAP
640000
980000
000000
300000
11E000
221000
040800
040900
040900
040900
021100
012100
012100
0738C0
ENDCHAR
STARTCHAR GREEK CAPITAL LETTER OMEGA WITH DASIA AND PERISPOMENI
ENCODING 8111
SWIDTH 1371 0
DWIDTH 20 0
BBX 18 14 1 0
BITMAP
640000
980000
000000
300000
21E000
121000
040800
040900
040900
040900
021100
012100
012100
0738C0
ENDCHAR
STARTCHAR GREEK SMALL LETTER ALPHA WITH VRACHY
ENCODING 8112
SWIDTH 617 0
DWIDTH 9 0
BBX 7 11 1 0
BITMAP
44
44
38
00
32
4A
84
84
84
8A
72
ENDCHAR
STARTCHAR GREEK SMALL LETTER ALPHA WITH MACRON
ENCODING 8113
SWIDTH 617 0
DWIDTH 9 0
BBX 7 10 1 0
BITMAP
7C
00
00
32
4A
84
84
84
8A
72
ENDCHAR
STARTCHAR GREEK SMALL LETTER ALPHA WITH VARIA AND YPOGEGRAMMENI
ENCODING 8114
SWIDTH 617 0
DWIDTH 9 0
BBX 7 15 1 -3
BITMAP
20
20
10
10
00
32
4A
84
84
84
8A
72
20
20
10
ENDCHAR
STARTCHAR GREEK SMALL LETTER ALPHA WITH YPOGEGRAMMENI
ENCODING 8115
SWIDTH 617 0
DWIDTH 9 0
BBX 7 10 1 -3
BITMAP
32
4A
84
84
84
8A
72
20
20
10
ENDCHAR
STARTCHAR GREEK SMALL LETTER ALPHA WITH OXIA AND YPOGEGRAMMENI
ENCODING 8116
SWIDTH 617 0
DWIDTH 9 0
BBX 7 15 1 -3
BITMAP
10
10
20
20
00
32
4A
84
84
84
8A
72
20
20
10
ENDCHAR
STARTCHAR GREEK SMALL LETTER ALPHA WITH PERISPOMENI
ENCODING 8118
SWIDTH 617 0
DWIDTH 9 0
BBX 7 10 1 0
BITMAP
64
98
00
32
4A
84
84
84
8A
72
ENDCHAR
STARTCHAR GREEK SMALL LETTER ALPHA WITH PERISPOMENI AND YPOGEGRAMMENI
ENCODING 8119
SWIDTH 617 0
DWIDTH 9 0
BBX 7 13 1 -3
BITMAP
64
98
00
32
4A
84
84
84
8A
72
20
20
10
ENDCHAR
STARTCHAR GREEK CAPTAL LETTER ALPHA WITH VRACHY
ENCODING 8120
SWIDTH 617 0
DWIDTH 9 0
BBX 7 14 1 0
BITMAP
44
44
38
00
10
10
28
28
44
44
7C
82
82
82
ENDCHAR
STARTCHAR GREEK CAPTAL LETTER ALPHA WITH MACRON
ENCODING 8121
SWIDTH 617 0
DWIDTH 9 0
BBX 7 13 1 0
BITMAP
7C
00
00
10
10
28
28
44
44
7C
82
82
82
ENDCHAR
STARTCHAR GREEK CAPTAL LETTER ALPHA WITH VARIA
ENCODING 8122
SWIDTH 754 0
DWIDTH 11 0
BBX 9 11 1 0
BITMAP
8000
8400
4400
4A00
0A00
1100
1100
1F00
2080
2080
2080
ENDCHAR
STARTCHAR GREEK CAPTAL LETTER ALPHA WITH OXIA
ENCODING 8123
SWIDTH 754 0
DWIDTH 11 0
BBX 9 11 1 0
BITMAP
4000
4400
8400
8A00
0A00
1100
1100
1F00
2080
2080
2080
ENDCHAR
STARTCHAR GREEK CAPTAL LETTER ALPHA WITH PROSGEGRAMMENI
ENCODING 8124
SWIDTH 960 0
DWIDTH 14 0
BBX 12 10 1 0
BITMAP
1000
1000
2800
2840
4440
4440
7C40
8240
8240
8230
ENDCHAR
STARTCHAR GREEK KORONIS
ENCODING 8125
SWIDTH 274 0
DWIDTH 4 0
BBX 2 3 1 9
BITMAP
C0
40
80
ENDCHAR
STARTCHAR GREEK PROSGEGRAMMENI
ENCODING 8126
SWIDTH 274 0
DWIDTH 4 0
BBX 2 3 1 -3
BITMAP
80
80
40
ENDCHAR
STARTCHAR GREEK PSILI
ENCODING 8127
SWIDTH 274 0
DWIDTH 4 0
BBX 2 3 1 9
BITMAP
C0
40
80
ENDCHAR
STARTCHAR GREEK PERISPOMENI
ENCODING 8128
SWIDTH 548 0
DWIDTH 8 0
BBX 6 2 1 11
BITMAP
64
98
ENDCHAR
STARTCHAR GREEK DIALYTIKA AND PERISPOMENI
ENCODING 8129
SWIDTH 548 0
DWIDTH 8 0
BBX 6 5 1 9
BITMAP
64
98
00
48
48
ENDCHAR
STARTCHAR GREEK SMALL LETTER ETA WITH VARIA AND YPOGEGRAMMENI
ENCODING 8130
SWIDTH 617 0
DWIDTH 9 0
BBX 7 15 1 -3
BITMAP
20
20
10
10
00
DC
62
42
42
42
42
42
22
22
10
ENDCHAR
STARTCHAR GREEK SMALL LETTER ETA WITH YPOGEGRAMMENI
ENCODING 8131
SWIDTH 617 0
DWIDTH 9 0
BBX 7 10 1 -3
BITMAP
DC
62
42
42
42
42
42
22
22
10
ENDCHAR
STARTCHAR GREEK SMALL LETTER ETA WITH OXIA AND YPOGEGRAMMENI
ENCODING 8132
SWIDTH 617 0
DWIDTH 9 0
BBX 7 15 1 -3
BITMAP
08
08
10
10
00
DC
62
42
42
42
42
42
22
22
10
ENDCHAR
STARTCHAR GREEK SMALL LETTER ETA WITH PERISPOMENI
ENCODING 8134
SWIDTH 617 0
DWIDTH 9 0
BBX 7 12 1 -2
BITMAP
72
8C
00
DC
62
42
42
42
42
42
02
02
ENDCHAR
STARTCHAR GREEK SMALL LETTER ETA WITH REPISPOMENI AND YPOGEGRAMMENI
ENCODING 8135
SWIDTH 617 0
DWIDTH 9 0
BBX 7 13 1 -3
BITMAP
72
8C
00
DC
62
42
42
42
42
42
22
22
10
ENDCHAR
STARTCHAR GREEK CAPITAL LETTER EPSILON WITH VARIA
ENCODING 8136
SWIDTH 754 0
DWIDTH 11 0
BBX 9 11 1 0
BITMAP
8000
9F80
5000
5000
1000
1F00
1000
1000
1000
1000
1F80
ENDCHAR
STARTCHAR GREEK CAPITAL LETTER EPSILON WITH OXIA
ENCODING 8137
SWIDTH 754 0
DWIDTH 11 0
BBX 9 11 1 0
BITMAP
4000
5F80
9000
9000
1000
1F00
1000
1000
1000
1000
1F80
ENDCHAR
STARTCHAR GREEK CAPITAL LETTER ETA WITH VARIA
ENCODING 8138
SWIDTH 754 0
DWIDTH 11 0
BBX 9 11 1 0
BITMAP
8000
9080
5080
5080
1080
1F80
1080
1080
1080
1080
1080
ENDCHAR
STARTCHAR GREEK CAPITAL LETTER ETA WITH OXIA
ENCODING 8139
SWIDTH 754 0
DWIDTH 11 0
BBX 9 11 1 0
BITMAP
4000
5080
9080
9080
1080
1F80
1080
1080
1080
1080
1080
ENDCHAR
STARTCHAR GREEK CAPITAL LETTER ETA WITH PROSGEGRAMMENI
ENCODING 8140
SWIDTH 891 0
DWIDTH 13 0
BBX 11 10 1 0
BITMAP
8400
8400
8400
8480
FC80
8480
8480
8480
8480
8460
ENDCHAR
STARTCHAR GREEK PSILI AND VARIA
ENCODING 8141
SWIDTH 480 0
DWIDTH 7 0
BBX 5 4 1 8
BITMAP
D0
50
88
08
ENDCHAR
ENDFONT
